SplineFontDB: 3.2
FontName: IRSina
FullName: IRSina
FamilyName: IRSina
Weight: Book
Copyright: Copyright (c) 2022, Information Technology Organization of Iran (ito.gov.ir)
Version: 1.001
ItalicAngle: 0
UnderlinePosition: -100
UnderlineWidth: 60
Ascent: 1638
Descent: 410
InvalidEm: 0
sfntRevision: 0x00010042
LayerCount: 2
Layer: 0 1 "Back" 1
Layer: 1 1 "Fore" 0
XUID: [1021 420 722297922 3874641]
StyleMap: 0x0040
FSType: 0
OS2Version: 3
OS2_WeightWidthSlopeOnly: 0
OS2_UseTypoMetrics: 0
CreationTime: 1354501199
ModificationTime: 1662631103
PfmFamily: 17
TTFWeight: 400
TTFWidth: 5
LineGap: 100
VLineGap: 0
Panose: 2 0 5 3 0 0 0 2 0 2
OS2TypoAscent: 2616
OS2TypoAOffset: 0
OS2TypoDescent: -1334
OS2TypoDOffset: 0
OS2TypoLinegap: 1500
OS2WinAscent: 2616
OS2WinAOffset: 0
OS2WinDescent: 1334
OS2WinDOffset: 0
HheadAscent: 2616
HheadAOffset: 0
HheadDescent: -1334
HheadDOffset: 0
OS2SubXSize: 1434
OS2SubYSize: 1331
OS2SubXOff: 0
OS2SubYOff: 293
OS2SupXSize: 1434
OS2SupYSize: 1331
OS2SupXOff: 0
OS2SupYOff: 930
OS2StrikeYSize: 50
OS2StrikeYPos: 250
OS2CapHeight: 2386
OS2XHeight: 594
OS2FamilyClass: 2048
OS2Vendor: 'PARS'
OS2CodePages: 20000041.00000000
OS2UnicodeRanges: 00002003.00000000.00000000.00000000
Lookup: 1 1 0 "'isol' Isolated Forms in Arabic lookup 0" { "'isol' Isolated Forms in Arabic lookup 0 subtable"  } ['isol' ('arab' <'dflt' > ) ]
Lookup: 1 1 0 "'init' Initial Forms in Arabic lookup 1" { "'init' Initial Forms in Arabic lookup 1 subtable"  } ['init' ('arab' <'dflt' > ) ]
Lookup: 1 1 0 "'fina' Terminal Forms in Arabic lookup 2" { "'fina' Terminal Forms in Arabic lookup 2 subtable"  } ['fina' ('arab' <'dflt' > ) ]
Lookup: 1 1 0 "'medi' Medial Forms in Arabic lookup 3" { "'medi' Medial Forms in Arabic lookup 3 subtable"  } ['medi' ('arab' <'dflt' > ) ]
Lookup: 4 1 0 "'ccmp' Glyph Composition/Decomposition in Arabic lookup 4" { "'ccmp' Glyph Composition/Decomposition in Arabic lookup 4 subtable"  } ['ccmp' ('arab' <'dflt' > ) ]

StartChar: quotedbl
Encoding: 34 34 4
Width: 966
Flags: W
LayerCount: 2
Fore
SplineSet
270 1100 m 1,0,1
 263 1129 263 1129 258.5 1151.5 c 128,-1,2
 254 1174 254 1174 251 1184 c 0,3,4
 224 1293 224 1293 208.5 1371 c 128,-1,5
 193 1449 193 1449 193 1476 c 0,6,7
 193 1533 193 1533 224 1566.5 c 128,-1,8
 255 1600 255 1600 305 1600 c 0,9,10
 329 1600 329 1600 349.5 1591 c 128,-1,11
 370 1582 370 1582 385.5 1566.5 c 128,-1,12
 401 1551 401 1551 409.5 1529.5 c 128,-1,13
 418 1508 418 1508 418 1483 c 0,14,15
 418 1469 418 1469 414.5 1443 c 128,-1,16
 411 1417 411 1417 402 1373 c 128,-1,17
 393 1329 393 1329 378 1262.5 c 128,-1,18
 363 1196 363 1196 341 1100 c 1,19,-1
 270 1100 l 1,0,1
723 1100 m 1,20,21
 716 1127 716 1127 710.5 1150.5 c 128,-1,22
 705 1174 705 1174 703 1184 c 0,23,24
 676 1294 676 1294 661 1371.5 c 128,-1,25
 646 1449 646 1449 646 1476 c 0,26,27
 646 1533 646 1533 677 1566.5 c 128,-1,28
 708 1600 708 1600 758 1600 c 0,29,30
 782 1600 782 1600 802.5 1591 c 128,-1,31
 823 1582 823 1582 838.5 1566.5 c 128,-1,32
 854 1551 854 1551 862.5 1529.5 c 128,-1,33
 871 1508 871 1508 871 1483 c 0,34,35
 871 1469 871 1469 866.5 1440 c 128,-1,36
 862 1411 862 1411 852.5 1364.5 c 128,-1,37
 843 1318 843 1318 828.5 1252.5 c 128,-1,38
 814 1187 814 1187 794 1100 c 1,39,-1
 723 1100 l 1,20,21
EndSplineSet
EndChar

StartChar: quotesingle
Encoding: 39 39 5
Width: 533
Flags: W
LayerCount: 2
Fore
SplineSet
246 1100 m 1,0,1
 239 1127 239 1127 233.5 1150.5 c 128,-1,2
 228 1174 228 1174 226 1184 c 0,3,4
 199 1294 199 1294 184 1371.5 c 128,-1,5
 169 1449 169 1449 169 1476 c 0,6,7
 169 1533 169 1533 200 1566.5 c 128,-1,8
 231 1600 231 1600 281 1600 c 0,9,10
 305 1600 305 1600 325.5 1591 c 128,-1,11
 346 1582 346 1582 361.5 1566.5 c 128,-1,12
 377 1551 377 1551 385.5 1529.5 c 128,-1,13
 394 1508 394 1508 394 1483 c 0,14,15
 394 1469 394 1469 389.5 1440 c 128,-1,16
 385 1411 385 1411 375.5 1364.5 c 128,-1,17
 366 1318 366 1318 351.5 1252.5 c 128,-1,18
 337 1187 337 1187 317 1100 c 1,19,-1
 246 1100 l 1,0,1
EndSplineSet
EndChar

StartChar: asterisk
Encoding: 42 42 6
Width: 1126
Flags: W
LayerCount: 2
Fore
SplineSet
568 347 m 1,0,-1
 574 687 l 1,1,-1
 355 467 l 1,2,-1
 250 467 l 1,3,-1
 527 746 l 1,4,-1
 203 746 l 1,5,-1
 223 839 l 1,6,-1
 547 839 l 1,7,-1
 277 1104 l 1,8,-1
 370 1104 l 1,9,-1
 579 899 l 1,10,-1
 585 1199 l 1,11,-1
 704 1239 l 1,12,-1
 699 912 l 1,13,-1
 905 1104 l 1,14,-1
 1013 1104 l 1,15,-1
 730 839 l 1,16,-1
 1065 839 l 1,17,-1
 1043 746 l 1,18,-1
 729 746 l 1,19,-1
 1002 467 l 1,20,-1
 910 467 l 1,21,-1
 696 687 l 1,22,-1
 688 386 l 1,23,-1
 568 347 l 1,0,-1
EndSplineSet
EndChar

StartChar: plus
Encoding: 43 43 7
Width: 1253
GlyphClass: 2
Flags: W
LayerCount: 2
Fore
SplineSet
1149 578 m 1,0,-1
 707 578 l 1,1,-1
 707 141 l 1,2,-1
 547 141 l 1,3,-1
 547 578 l 1,4,-1
 109 578 l 1,5,-1
 109 745 l 1,6,-1
 547 745 l 1,7,-1
 547 1186 l 1,8,-1
 707 1186 l 1,9,-1
 707 745 l 1,10,-1
 1149 745 l 1,11,-1
 1149 578 l 1,0,-1
EndSplineSet
EndChar

StartChar: hyphen
Encoding: 45 45 8
Width: 1360
Flags: W
LayerCount: 2
Fore
SplineSet
182 721 m 1,0,-1
 1167 721 l 1,1,-1
 1167 573 l 1,2,-1
 182 573 l 1,3,-1
 182 721 l 1,0,-1
EndSplineSet
EndChar

StartChar: period
Encoding: 46 46 9
Width: 740
GlyphClass: 2
Flags: W
LayerCount: 2
Fore
SplineSet
650 195 m 0,0,1
 650 112 650 112 593 56.5 c 128,-1,2
 536 1 536 1 453 1 c 0,3,4
 371 1 371 1 316 56.5 c 128,-1,5
 261 112 261 112 261 195 c 0,6,7
 261 276 261 276 316.5 331.5 c 128,-1,8
 372 387 372 387 453 387 c 0,9,10
 532 387 532 387 591 330 c 128,-1,11
 650 273 650 273 650 195 c 0,0,1
EndSplineSet
EndChar

StartChar: slash
Encoding: 47 47 10
Width: 813
Flags: W
LayerCount: 2
Fore
SplineSet
584 1133 m 1,0,-1
 727 1133 l 1,1,-1
 254 -36 l 1,2,-1
 110 -36 l 1,3,-1
 584 1133 l 1,0,-1
EndSplineSet
EndChar

StartChar: less
Encoding: 60 60 11
Width: 1117
Flags: W
LayerCount: 2
Fore
SplineSet
955 58 m 1,0,-1
 150 444 l 1,1,-1
 150 534 l 1,2,-1
 955 918 l 1,3,-1
 955 784 l 1,4,-1
 331 489 l 1,5,-1
 955 192 l 1,6,-1
 955 58 l 1,0,-1
EndSplineSet
EndChar

StartChar: equal
Encoding: 61 61 12
Width: 1117
Flags: W
LayerCount: 2
Fore
SplineSet
182 831 m 1,0,-1
 997 831 l 1,1,-1
 997 683 l 1,2,-1
 182 683 l 1,3,-1
 182 831 l 1,0,-1
182 511 m 1,4,-1
 997 511 l 1,5,-1
 997 363 l 1,6,-1
 182 363 l 1,7,-1
 182 511 l 1,4,-1
EndSplineSet
EndChar

StartChar: greater
Encoding: 62 62 13
Width: 1117
Flags: W
LayerCount: 2
Fore
SplineSet
966 444 m 1,0,-1
 160 58 l 1,1,-1
 160 192 l 1,2,-1
 786 489 l 1,3,-1
 160 784 l 1,4,-1
 160 918 l 1,5,-1
 966 534 l 1,6,-1
 966 444 l 1,0,-1
EndSplineSet
EndChar

StartChar: bracketleft
Encoding: 91 91 14
Width: 550
GlyphClass: 2
Flags: W
LayerCount: 2
Fore
SplineSet
118 -333 m 1,0,-1
 118 1183 l 1,1,-1
 519 1183 l 1,2,-1
 519 1004 l 1,3,-1
 333 1004 l 1,4,-1
 333 -155 l 1,5,-1
 519 -155 l 1,6,-1
 519 -333 l 1,7,-1
 118 -333 l 1,0,-1
EndSplineSet
EndChar

StartChar: bracketright
Encoding: 93 93 15
Width: 550
GlyphClass: 2
Flags: W
LayerCount: 2
Fore
SplineSet
433 1183 m 1,0,-1
 433 -333 l 1,1,-1
 30 -333 l 1,2,-1
 30 -155 l 1,3,-1
 217 -155 l 1,4,-1
 217 1006 l 1,5,-1
 30 1006 l 1,6,-1
 30 1183 l 1,7,-1
 433 1183 l 1,0,-1
EndSplineSet
EndChar

StartChar: grave
Encoding: 96 96 16
Width: 487
Flags: W
LayerCount: 2
Fore
SplineSet
296 741 m 1,0,-1
 70 883 l 2,1,2
 50 897 50 897 39 912.5 c 128,-1,3
 28 928 28 928 28 946 c 0,4,5
 28 967 28 967 41.5 979.5 c 128,-1,6
 55 992 55 992 78 992 c 0,7,8
 93 992 93 992 106 984.5 c 128,-1,9
 119 977 119 977 139 958 c 2,10,-1
 354 741 l 1,11,-1
 296 741 l 1,0,-1
EndSplineSet
EndChar

StartChar: braceleft
Encoding: 123 123 17
Width: 643
GlyphClass: 2
Flags: W
LayerCount: 2
Fore
SplineSet
49 331 m 1,0,-1
 49 524 l 1,1,2
 107 528 107 528 137 542 c 128,-1,3
 167 556 167 556 189 590.5 c 128,-1,4
 211 625 211 625 218 676 c 0,5,6
 225 716 225 716 225 811 c 0,7,8
 225 968 225 968 239.5 1029 c 128,-1,9
 254 1090 254 1090 291.5 1128 c 128,-1,10
 329 1166 329 1166 402 1188 c 0,11,12
 452 1203 452 1203 558 1203 c 2,13,-1
 600 1203 l 1,14,-1
 600 1010 l 1,15,16
 510 1010 510 1010 484.5 1000 c 128,-1,17
 459 990 459 990 447 969 c 128,-1,18
 435 948 435 948 435 898 c 256,19,20
 435 848 435 848 428 706 c 0,21,22
 424 626 424 626 407 576 c 128,-1,23
 390 526 390 526 364 494 c 128,-1,24
 338 462 338 462 284 428 c 1,25,26
 332 400 332 400 362 363.5 c 128,-1,27
 392 327 392 327 408 274.5 c 128,-1,28
 424 222 424 222 429 134 c 0,29,30
 434 0 434 0 434 -37 c 0,31,32
 434 -91 434 -91 447 -111.5 c 128,-1,33
 460 -132 460 -132 486.5 -143.5 c 128,-1,34
 513 -155 513 -155 600 -155 c 1,35,-1
 600 -348 l 1,36,-1
 558 -348 l 2,37,38
 449 -348 449 -348 391 -330 c 128,-1,39
 333 -312 333 -312 292.5 -272 c 128,-1,40
 252 -232 252 -232 238.5 -173 c 128,-1,41
 225 -114 225 -114 225 14 c 0,42,43
 225 162 225 162 212 207 c 0,44,45
 195 271 195 271 159 299 c 128,-1,46
 123 327 123 327 49 331 c 1,0,-1
EndSplineSet
EndChar

StartChar: bar
Encoding: 124 124 18
Width: 462
Flags: W
LayerCount: 2
Fore
SplineSet
142 -348 m 1,0,-1
 142 1203 l 1,1,-1
 322 1203 l 1,2,-1
 322 -348 l 1,3,-1
 142 -348 l 1,0,-1
EndSplineSet
EndChar

StartChar: asciitilde
Encoding: 126 126 19
Width: 964
Flags: W
LayerCount: 2
Fore
SplineSet
55 418 m 1,0,-1
 55 627 l 1,1,2
 156 739 156 739 292 739 c 0,3,4
 344 739 344 739 386.5 729 c 128,-1,5
 429 719 429 719 540 674 c 128,-1,6
 651 629 651 629 690 629 c 0,7,8
 736 629 736 629 794.5 657 c 128,-1,9
 853 685 853 685 911 745 c 1,10,-1
 911 528 l 1,11,12
 873 489 873 489 806.5 455.5 c 128,-1,13
 740 422 740 422 669 422 c 0,14,15
 629 422 629 422 591 431 c 128,-1,16
 553 440 553 440 470 477 c 0,17,18
 344 530 344 530 274 530 c 0,19,20
 161 530 161 530 55 418 c 1,0,-1
EndSplineSet
EndChar

StartChar: agrave
Encoding: 224 224 20
Width: 1075
Flags: W
LayerCount: 2
Fore
SplineSet
741 331 m 1,0,1
 720 266 720 266 690.5 213 c 128,-1,2
 661 160 661 160 626 114 c 0,3,4
 519 -19 519 -19 400 -19 c 0,5,6
 208 -19 208 -19 159 214 c 0,7,8
 133 334 133 334 157 451 c 128,-1,9
 181 568 181 568 252 683 c 0,10,11
 325 801 325 801 433 860 c 128,-1,12
 541 919 541 919 684 919 c 0,13,14
 712 919 712 919 746 918.5 c 128,-1,15
 780 918 780 918 815.5 916 c 128,-1,16
 851 914 851 914 886 912 c 128,-1,17
 921 910 921 910 952 908 c 1,18,-1
 946 646 l 1,19,-1
 946 647 l 1,20,-1
 950 254 l 2,21,22
 952 209 952 209 954.5 179.5 c 128,-1,23
 957 150 957 150 958 139 c 0,24,25
 961 114 961 114 985 114 c 0,26,27
 1053 114 1053 114 1214 346 c 1,28,-1
 1218 179 l 1,29,30
 1073 -19 1073 -19 925 -19 c 0,31,32
 785 -19 785 -19 753 126 c 0,33,34
 749 146 749 146 747 182 c 128,-1,35
 745 218 745 218 745 264 c 2,36,-1
 741 331 l 1,0,1
737 758 m 1,37,38
 688 775 688 775 647 783.5 c 128,-1,39
 606 792 606 792 561 792 c 0,40,41
 497 792 497 792 453.5 749.5 c 128,-1,42
 410 707 410 707 387 625 c 0,43,44
 362 522 362 522 357 425 c 128,-1,45
 352 328 352 328 368 248 c 0,46,47
 388 146 388 146 437 146 c 0,48,49
 493 146 493 146 589 280 c 0,50,51
 637 352 637 352 674 430 c 128,-1,52
 711 508 711 508 739 599 c 1,53,-1
 737 758 l 1,37,38
585 396 m 1,54,-1
 359 538 l 2,55,56
 339 552 339 552 328 567.5 c 128,-1,57
 317 583 317 583 317 601 c 0,58,59
 317 622 317 622 330.5 634.5 c 128,-1,60
 344 647 344 647 367 647 c 0,61,62
 382 647 382 647 395 639.5 c 128,-1,63
 408 632 408 632 428 613 c 2,64,-1
 643 396 l 1,65,-1
 585 396 l 1,54,-1
EndSplineSet
EndChar

StartChar: ocircumflex.001
Encoding: 65539 -1 26
Width: 1112
Flags: W
LayerCount: 2
Fore
SplineSet
416 -19 m 0,0,1
 301 -19 301 -19 205 70 c 0,2,3
 110 160 110 160 85 288 c 0,4,5
 32 528 32 528 170 726 c 0,6,7
 307 928 307 928 522 928 c 0,8,9
 643 928 643 928 742 842 c 1,10,11
 837 753 837 753 864 626 c 0,12,13
 890 499 890 499 869 388.5 c 128,-1,14
 848 278 848 278 781 179 c 0,15,16
 711 79 711 79 619.5 30 c 128,-1,17
 528 -19 528 -19 416 -19 c 0,0,1
483 98 m 0,18,19
 536 98 536 98 573.5 133 c 128,-1,20
 611 168 611 168 637 236 c 0,21,22
 665 310 665 310 668.5 393.5 c 128,-1,23
 672 477 672 477 652 574 c 0,24,25
 602 813 602 813 466 813 c 0,26,27
 365 813 365 813 313 670 c 0,28,29
 284 595 284 595 281 510.5 c 128,-1,30
 278 426 278 426 298 332 c 0,31,32
 324 213 324 213 370 155.5 c 128,-1,33
 416 98 416 98 483 98 c 0,18,19
EndSplineSet
EndChar

StartChar: dagger
Encoding: 8224 8224 30
Width: 932
Flags: W
LayerCount: 2
Fore
SplineSet
347 -231 m 1,0,-1
 567 622 l 1,1,-1
 248 592 l 1,2,-1
 297 700 l 1,3,-1
 576 668 l 1,4,-1
 607 1066 l 1,5,-1
 755 1093 l 1,6,-1
 621 668 l 1,7,-1
 941 700 l 1,8,-1
 895 592 l 1,9,-1
 612 622 l 1,10,-1
 496 -213 l 1,11,-1
 347 -231 l 1,0,-1
EndSplineSet
EndChar

StartChar: degree
Encoding: 176 176 31
Width: 409
Flags: W
LayerCount: 2
Fore
SplineSet
395 844 m 0,0,1
 344 844 344 844 307.5 880 c 128,-1,2
 271 916 271 916 271 968 c 0,3,4
 271 1021 271 1021 307.5 1057 c 128,-1,5
 344 1093 344 1093 395 1093 c 0,6,7
 447 1093 447 1093 483 1057 c 128,-1,8
 519 1021 519 1021 519 968 c 0,9,10
 519 916 519 916 483 880 c 128,-1,11
 447 844 447 844 395 844 c 0,0,1
395 888 m 256,12,13
 427 888 427 888 450.5 912 c 128,-1,14
 474 936 474 936 474 968 c 256,15,16
 474 1000 474 1000 450.5 1024 c 128,-1,17
 427 1048 427 1048 395 1048 c 256,18,19
 363 1048 363 1048 339 1024 c 128,-1,20
 315 1000 315 1000 315 968 c 256,21,22
 315 936 315 936 339 912 c 128,-1,23
 363 888 363 888 395 888 c 256,12,13
EndSplineSet
EndChar

StartChar: bullet
Encoding: 8226 8226 32
Width: 931
Flags: W
LayerCount: 2
Fore
SplineSet
817 662 m 256,0,1
 817 517 817 517 713.5 414 c 128,-1,2
 610 311 610 311 465 311 c 256,3,4
 320 311 320 311 217 414 c 128,-1,5
 114 517 114 517 114 662 c 256,6,7
 114 807 114 807 217 910 c 128,-1,8
 320 1013 320 1013 465 1013 c 256,9,10
 610 1013 610 1013 713.5 910 c 128,-1,11
 817 807 817 807 817 662 c 256,0,1
EndSplineSet
EndChar

StartChar: registered
Encoding: 174 174 33
Width: 897
Flags: W
LayerCount: 2
Fore
SplineSet
580 445 m 0,0,1
 448 445 448 445 354.5 538.5 c 128,-1,2
 261 632 261 632 261 764 c 256,3,4
 261 896 261 896 354.5 990 c 128,-1,5
 448 1084 448 1084 580 1084 c 0,6,7
 714 1084 714 1084 807 990 c 128,-1,8
 900 896 900 896 900 764 c 256,9,10
 900 632 900 632 806.5 538.5 c 128,-1,11
 713 445 713 445 580 445 c 0,0,1
580 484 m 0,12,13
 695 484 695 484 777.5 567 c 128,-1,14
 860 650 860 650 860 764 c 256,15,16
 860 878 860 878 777.5 961 c 128,-1,17
 695 1044 695 1044 580 1044 c 0,18,19
 466 1044 466 1044 383.5 961 c 128,-1,20
 301 878 301 878 301 764 c 256,21,22
 301 650 301 650 383.5 567 c 128,-1,23
 466 484 466 484 580 484 c 0,12,13
529 737 m 1,24,-1
 501 596 l 1,25,-1
 394 596 l 1,26,-1
 403 639 l 1,27,-1
 456 639 l 1,28,-1
 511 915 l 1,29,-1
 458 915 l 1,30,-1
 466 959 l 1,31,-1
 598 959 l 2,32,33
 751 959 751 959 751 875 c 0,34,35
 751 800 751 800 650 750 c 1,36,-1
 685 639 l 1,37,-1
 747 639 l 1,38,-1
 738 596 l 1,39,-1
 641 596 l 1,40,-1
 591 737 l 1,41,-1
 529 737 l 1,24,-1
538 782 m 1,42,-1
 574 782 l 2,43,44
 697 782 697 782 697 866 c 0,45,46
 697 915 697 915 607 915 c 2,47,-1
 564 915 l 1,48,-1
 538 782 l 1,42,-1
EndSplineSet
EndChar

StartChar: copyright
Encoding: 169 169 34
Width: 1244
Flags: W
LayerCount: 2
Fore
SplineSet
725 -27 m 0,0,1
 495 -27 495 -27 330.5 137 c 128,-1,2
 166 301 166 301 166 533 c 256,3,4
 166 765 166 765 330.5 929 c 128,-1,5
 495 1093 495 1093 725 1093 c 0,6,7
 958 1093 958 1093 1122 929 c 128,-1,8
 1286 765 1286 765 1286 533 c 256,9,10
 1286 301 1286 301 1122 137 c 128,-1,11
 958 -27 958 -27 725 -27 c 0,0,1
725 18 m 0,12,13
 939 18 939 18 1090 169 c 128,-1,14
 1241 320 1241 320 1241 533 c 256,15,16
 1241 746 1241 746 1090 897 c 128,-1,17
 939 1048 939 1048 725 1048 c 0,18,19
 513 1048 513 1048 362 897 c 128,-1,20
 211 746 211 746 211 533 c 256,21,22
 211 320 211 320 362 169 c 128,-1,23
 513 18 513 18 725 18 c 0,12,13
890 246 m 1,24,25
 785 213 785 213 704 213 c 0,26,27
 580 213 580 213 508 279.5 c 128,-1,28
 436 346 436 346 436 462 c 0,29,30
 436 625 436 625 541 734.5 c 128,-1,31
 646 844 646 844 805 844 c 0,32,33
 896 844 896 844 1003 814 c 1,34,-1
 967 675 l 1,35,-1
 915 684 l 1,36,-1
 923 766 l 1,37,38
 854 798 854 798 792 798 c 0,39,40
 688 798 688 798 616 700 c 128,-1,41
 544 602 544 602 544 462 c 0,42,43
 544 271 544 271 722 271 c 0,44,45
 823 271 823 271 902 307 c 1,46,-1
 890 246 l 1,24,25
EndSplineSet
EndChar

StartChar: trademark
Encoding: 8482 8482 35
Width: 1333
Flags: W
LayerCount: 2
Fore
SplineSet
440 1021 m 1,0,-1
 307 1021 l 1,1,-1
 288 923 l 1,2,-1
 225 923 l 1,3,-1
 254 1066 l 1,4,-1
 751 1066 l 1,5,-1
 723 923 l 1,6,-1
 661 923 l 1,7,-1
 679 1021 l 1,8,-1
 546 1021 l 1,9,-1
 456 569 l 1,10,-1
 554 569 l 1,11,-1
 545 524 l 1,12,-1
 243 524 l 1,13,-1
 253 569 l 1,14,-1
 350 569 l 1,15,-1
 440 1021 l 1,0,-1
1011 569 m 1,16,-1
 942 956 l 1,17,-1
 857 524 l 1,18,-1
 688 524 l 1,19,-1
 697 569 l 1,20,-1
 794 569 l 1,21,-1
 884 1021 l 1,22,-1
 787 1021 l 1,23,-1
 796 1066 l 1,24,-1
 1036 1066 l 1,25,-1
 1092 747 l 1,26,-1
 1265 1066 l 1,27,-1
 1481 1066 l 1,28,-1
 1473 1021 l 1,29,-1
 1375 1021 l 1,30,-1
 1285 569 l 1,31,-1
 1383 569 l 1,32,-1
 1373 524 l 1,33,-1
 1178 524 l 1,34,-1
 1270 985 l 1,35,-1
 1041 569 l 1,36,-1
 1011 569 l 1,16,-1
EndSplineSet
EndChar

StartChar: logicalnot
Encoding: 172 172 39
Width: 932
Flags: W
LayerCount: 2
Fore
SplineSet
177 510 m 1,0,-1
 193 590 l 1,1,-1
 975 590 l 1,2,-1
 906 248 l 1,3,-1
 814 248 l 1,4,-1
 866 510 l 1,5,-1
 177 510 l 1,0,-1
EndSplineSet
EndChar

StartChar: florin
Encoding: 402 402 40
Width: 679
Flags: W
LayerCount: 2
Fore
SplineSet
158 -231 m 1,0,-1
 210 -18 l 1,1,-1
 286 364 l 1,2,-1
 108 364 l 1,3,-1
 117 409 l 1,4,-1
 294 409 l 1,5,-1
 298 427 l 2,6,7
 330 586 330 586 463 692.5 c 128,-1,8
 596 799 596 799 761 799 c 0,9,10
 818 799 818 799 860 784 c 1,11,-1
 764 678 l 1,12,13
 712 729 712 729 643 729 c 0,14,15
 500 729 500 729 457 512 c 2,16,-1
 436 409 l 1,17,-1
 623 409 l 1,18,-1
 614 364 l 1,19,-1
 427 364 l 1,20,-1
 313 -213 l 1,21,-1
 158 -231 l 1,0,-1
EndSplineSet
EndChar

StartChar: ellipsis
Encoding: 8230 8230 41
Width: 1827
Flags: W
LayerCount: 2
Fore
SplineSet
758 113 m 0,0,1
 758 144 758 144 809.5 245.5 c 128,-1,2
 861 347 861 347 876 355 c 0,3,4
 907 369 907 369 964.5 307.5 c 128,-1,5
 1022 246 1022 246 1026 211 c 1,6,7
 1026 166 1026 166 977.5 79.5 c 128,-1,8
 929 -7 929 -7 908 -7 c 0,9,10
 899 -7 899 -7 851 26.5 c 128,-1,11
 803 60 803 60 778 79 c 0,12,13
 758 96 758 96 758 113 c 0,0,1
1308 113 m 0,14,15
 1308 144 1308 144 1359 245.5 c 128,-1,16
 1410 347 1410 347 1426 355 c 0,17,18
 1457 369 1457 369 1514.5 307.5 c 128,-1,19
 1572 246 1572 246 1575 211 c 0,20,21
 1575 166 1575 166 1527 79.5 c 128,-1,22
 1479 -7 1479 -7 1458 -7 c 0,23,24
 1449 -7 1449 -7 1401 26.5 c 128,-1,25
 1353 60 1353 60 1328 79 c 0,26,27
 1308 96 1308 96 1308 113 c 0,14,15
211 113 m 0,28,29
 211 144 211 144 262 245.5 c 128,-1,30
 313 347 313 347 329 355 c 0,31,32
 360 369 360 369 417.5 307.5 c 128,-1,33
 475 246 475 246 478 211 c 0,34,35
 478 166 478 166 430 79.5 c 128,-1,36
 382 -7 382 -7 361 -7 c 0,37,38
 352 -7 352 -7 304 26.5 c 128,-1,39
 256 60 256 60 231 79 c 0,40,41
 211 96 211 96 211 113 c 0,28,29
EndSplineSet
EndChar

StartChar: endash
Encoding: 8211 8211 42
Width: 434
Flags: W
LayerCount: 2
Fore
SplineSet
434 154 m 1,0,-1
 0 154 l 1,1,-1
 0 234 l 1,2,-1
 434 234 l 1,3,-1
 434 154 l 1,0,-1
EndSplineSet
EndChar

StartChar: emdash
Encoding: 8212 8212 43
Width: 1862
Flags: W
LayerCount: 2
Fore
SplineSet
1866 572 m 1,0,-1
 -4 572 l 1,1,-1
 -4 732 l 1,2,-1
 1866 732 l 1,3,-1
 1866 572 l 1,0,-1
EndSplineSet
EndChar

StartChar: quotedblleft
Encoding: 8220 8220 44
Width: 743
Flags: W
LayerCount: 2
Fore
SplineSet
402 1258 m 0,0,1
 403 1340 403 1340 458.5 1419.5 c 128,-1,2
 514 1499 514 1499 582 1532 c 1,3,-1
 621 1459 l 1,4,5
 601 1448 601 1448 573.5 1417.5 c 128,-1,6
 546 1387 546 1387 533 1340 c 1,7,8
 616 1304 616 1304 612 1235 c 0,9,10
 612 1215 612 1215 604 1196.5 c 128,-1,11
 596 1178 596 1178 582.5 1164 c 128,-1,12
 569 1150 569 1150 551 1142 c 128,-1,13
 533 1134 533 1134 512 1134 c 0,14,15
 486 1134 486 1134 465.5 1144.5 c 128,-1,16
 445 1155 445 1155 431 1172.5 c 128,-1,17
 417 1190 417 1190 409.5 1212.5 c 128,-1,18
 402 1235 402 1235 402 1258 c 0,0,1
127 1258 m 0,19,20
 128 1340 128 1340 183.5 1419.5 c 128,-1,21
 239 1499 239 1499 308 1532 c 1,22,-1
 347 1459 l 1,23,24
 327 1448 327 1448 299 1417.5 c 128,-1,25
 271 1387 271 1387 259 1340 c 1,26,27
 342 1304 342 1304 338 1235 c 0,28,29
 338 1215 338 1215 330 1196.5 c 128,-1,30
 322 1178 322 1178 308 1164 c 128,-1,31
 294 1150 294 1150 275.5 1142 c 128,-1,32
 257 1134 257 1134 236 1134 c 0,33,34
 210 1134 210 1134 190 1144.5 c 128,-1,35
 170 1155 170 1155 156 1172.5 c 128,-1,36
 142 1190 142 1190 134.5 1212.5 c 128,-1,37
 127 1235 127 1235 127 1258 c 0,19,20
EndSplineSet
EndChar

StartChar: quotedblright
Encoding: 8221 8221 45
Width: 768
Flags: W
LayerCount: 2
Fore
SplineSet
346 1408 m 0,0,1
 345 1326 345 1326 289.5 1246.5 c 128,-1,2
 234 1167 234 1167 166 1134 c 1,3,-1
 127 1207 l 1,4,5
 147 1218 147 1218 174.5 1248.5 c 128,-1,6
 202 1279 202 1279 215 1326 c 1,7,8
 132 1362 132 1362 136 1431 c 0,9,10
 136 1451 136 1451 144 1469.5 c 128,-1,11
 152 1488 152 1488 165.5 1502 c 128,-1,12
 179 1516 179 1516 197 1524 c 128,-1,13
 215 1532 215 1532 236 1532 c 0,14,15
 262 1532 262 1532 282.5 1521.5 c 128,-1,16
 303 1511 303 1511 317 1493.5 c 128,-1,17
 331 1476 331 1476 338.5 1453.5 c 128,-1,18
 346 1431 346 1431 346 1408 c 0,0,1
621 1408 m 0,19,20
 620 1326 620 1326 564.5 1246.5 c 128,-1,21
 509 1167 509 1167 440 1134 c 1,22,-1
 401 1207 l 1,23,24
 421 1218 421 1218 449 1248.5 c 128,-1,25
 477 1279 477 1279 489 1326 c 1,26,27
 406 1362 406 1362 410 1431 c 0,28,29
 410 1451 410 1451 418 1469.5 c 128,-1,30
 426 1488 426 1488 440 1502 c 128,-1,31
 454 1516 454 1516 472.5 1524 c 128,-1,32
 491 1532 491 1532 512 1532 c 0,33,34
 537 1532 537 1532 557.5 1521.5 c 128,-1,35
 578 1511 578 1511 592 1493.5 c 128,-1,36
 606 1476 606 1476 613.5 1453.5 c 128,-1,37
 621 1431 621 1431 621 1408 c 0,19,20
EndSplineSet
EndChar

StartChar: divide
Encoding: 247 247 46
Width: 1413
Flags: W
LayerCount: 2
Fore
SplineSet
1413 370 m 1,0,-1
 184 370 l 1,1,-1
 184 614 l 1,2,-1
 1413 614 l 1,3,-1
 1413 370 l 1,0,-1
952 -89 m 1,4,-1
 830 -89 l 2,5,6
 625 -89 625 -89 625 114 c 2,7,-1
 625 238 l 1,8,-1
 952 238 l 1,9,-1
 952 -89 l 1,4,-1
912 751 m 1,10,-1
 790 751 l 2,11,12
 585 751 585 751 585 954 c 2,13,-1
 585 1078 l 1,14,-1
 912 1078 l 1,15,-1
 912 751 l 1,10,-1
EndSplineSet
EndChar

StartChar: lozenge
Encoding: 9674 9674 47
Width: 1118
Flags: W
LayerCount: 2
Fore
SplineSet
1003 699 m 1,0,-1
 560 197 l 1,1,-1
 117 699 l 1,2,-1
 560 1202 l 1,3,-1
 1003 699 l 1,0,-1
848 699 m 1,4,-1
 560 1036 l 1,5,-1
 271 699 l 1,6,-1
 560 364 l 1,7,-1
 848 699 l 1,4,-1
EndSplineSet
EndChar

StartChar: fraction
Encoding: 8260 8260 48
Width: 742
Flags: W
LayerCount: 2
Fore
SplineSet
740 1101 m 1,0,-1
 101 -82 l 1,1,-1
 -9 -82 l 1,2,-1
 629 1101 l 1,3,-1
 740 1101 l 1,0,-1
EndSplineSet
EndChar

StartChar: guilsinglleft
Encoding: 8249 8249 49
Width: 1117
Flags: W
LayerCount: 2
Fore
SplineSet
955 58 m 1,0,-1
 150 444 l 1,1,-1
 150 534 l 1,2,-1
 955 918 l 1,3,-1
 955 784 l 1,4,-1
 331 489 l 1,5,-1
 955 192 l 1,6,-1
 955 58 l 1,0,-1
EndSplineSet
EndChar

StartChar: daggerdbl
Encoding: 8225 8225 52
Width: 932
Flags: W
LayerCount: 2
Fore
SplineSet
349 -231 m 1,0,-1
 481 185 l 1,1,-1
 161 154 l 1,2,-1
 211 261 l 1,3,-1
 490 229 l 1,4,-1
 567 616 l 1,5,-1
 247 586 l 1,6,-1
 297 693 l 1,7,-1
 575 661 l 1,8,-1
 608 1066 l 1,9,-1
 758 1093 l 1,10,-1
 620 661 l 1,11,-1
 940 693 l 1,12,-1
 889 586 l 1,13,-1
 611 616 l 1,14,-1
 535 229 l 1,15,-1
 855 261 l 1,16,-1
 804 154 l 1,17,-1
 525 185 l 1,18,-1
 499 -213 l 1,19,-1
 349 -231 l 1,0,-1
EndSplineSet
EndChar

StartChar: middot.001
Encoding: 8729 8729 53
Width: 620
Flags: W
LayerCount: 2
Fore
SplineSet
429 516 m 1,0,-1
 190 516 l 1,1,-1
 190 789 l 1,2,-1
 429 789 l 1,3,-1
 429 516 l 1,0,-1
EndSplineSet
EndChar

StartChar: quotesinglbase
Encoding: 8218 8218 54
Width: 418
Flags: W
LayerCount: 2
Fore
SplineSet
103 128 m 1,0,-1
 247 231 l 1,1,-1
 353 90 l 1,2,3
 345 -56 345 -56 262.5 -134.5 c 128,-1,4
 180 -213 180 -213 36 -213 c 1,5,-1
 76 -168 l 1,6,7
 189 -158 189 -158 211 -18 c 1,8,-1
 103 128 l 1,0,-1
EndSplineSet
EndChar

StartChar: quotedblbase
Encoding: 8222 8222 55
Width: 684
Flags: W
LayerCount: 2
Fore
SplineSet
91 92 m 1,0,-1
 204 178 l 1,1,-1
 292 64 l 1,2,3
 270 -213 270 -213 31 -213 c 1,4,-1
 60 -168 l 1,5,6
 166 -148 166 -148 179 -16 c 1,7,-1
 91 92 l 1,0,-1
401 92 m 1,8,-1
 516 178 l 1,9,-1
 602 64 l 1,10,11
 581 -213 581 -213 341 -213 c 1,12,-1
 372 -168 l 1,13,14
 476 -148 476 -148 490 -16 c 1,15,-1
 401 92 l 1,8,-1
EndSplineSet
EndChar

StartChar: perthousand
Encoding: 8240 8240 56
Width: 1571
Flags: W
LayerCount: 2
Fore
SplineSet
385 533 m 0,0,1
 304 533 304 533 254.5 584.5 c 128,-1,2
 205 636 205 636 205 722 c 0,3,4
 205 865 205 865 286.5 965.5 c 128,-1,5
 368 1066 368 1066 483 1066 c 0,6,7
 567 1066 567 1066 617.5 1014.5 c 128,-1,8
 668 963 668 963 668 877 c 0,9,10
 668 733 668 733 585.5 633 c 128,-1,11
 503 533 503 533 385 533 c 0,0,1
311 715 m 0,12,13
 311 578 311 578 398 578 c 0,14,15
 463 578 463 578 517 671.5 c 128,-1,16
 571 765 571 765 571 881 c 0,17,18
 571 1022 571 1022 483 1022 c 0,19,20
 416 1022 416 1022 363.5 928 c 128,-1,21
 311 834 311 834 311 715 c 0,12,13
850 0 m 0,22,23
 769 0 769 0 719.5 51.5 c 128,-1,24
 670 103 670 103 670 189 c 0,25,26
 670 331 670 331 751 432 c 128,-1,27
 832 533 832 533 947 533 c 0,28,29
 1031 533 1031 533 1081.5 481.5 c 128,-1,30
 1132 430 1132 430 1132 344 c 0,31,32
 1132 200 1132 200 1049.5 100 c 128,-1,33
 967 0 967 0 850 0 c 0,22,23
776 182 m 0,34,35
 776 44 776 44 862 44 c 0,36,37
 929 44 929 44 982 138 c 128,-1,38
 1035 232 1035 232 1035 348 c 0,39,40
 1035 490 1035 490 948 490 c 0,41,42
 880 490 880 490 828 395.5 c 128,-1,43
 776 301 776 301 776 182 c 0,34,35
131 -27 m 1,44,-1
 1111 1093 l 1,45,-1
 1206 1093 l 1,46,-1
 225 -27 l 1,47,-1
 131 -27 l 1,44,-1
1376 0 m 0,48,49
 1294 0 1294 0 1244.5 51.5 c 128,-1,50
 1195 103 1195 103 1195 189 c 0,51,52
 1195 331 1195 331 1276.5 432 c 128,-1,53
 1358 533 1358 533 1473 533 c 0,54,55
 1557 533 1557 533 1607.5 481.5 c 128,-1,56
 1658 430 1658 430 1658 344 c 0,57,58
 1658 200 1658 200 1575.5 100 c 128,-1,59
 1493 0 1493 0 1376 0 c 0,48,49
1301 183 m 0,60,61
 1301 44 1301 44 1389 44 c 0,62,63
 1453 44 1453 44 1507 138 c 128,-1,64
 1561 232 1561 232 1561 347 c 0,65,66
 1561 490 1561 490 1473 490 c 0,67,68
 1406 490 1406 490 1353.5 395.5 c 128,-1,69
 1301 301 1301 301 1301 183 c 0,60,61
EndSplineSet
EndChar

StartChar: multiply
Encoding: 215 215 60
Width: 1235
Flags: W
LayerCount: 2
Fore
SplineSet
937 235 m 1,0,-1
 624 548 l 1,1,-1
 315 239 l 1,2,-1
 202 352 l 1,3,-1
 511 661 l 1,4,-1
 201 971 l 1,5,-1
 319 1089 l 1,6,-1
 629 779 l 1,7,-1
 941 1091 l 1,8,-1
 1054 978 l 1,9,-1
 742 666 l 1,10,-1
 1055 353 l 1,11,-1
 937 235 l 1,0,-1
EndSplineSet
EndChar

StartChar: macron
Encoding: 175 175 61
Width: 1118
Flags: W
LayerCount: 2
Fore
SplineSet
1134 1259 m 1,0,-1
 -16 1259 l 1,1,-1
 -16 1389 l 1,2,-1
 1134 1389 l 1,3,-1
 1134 1259 l 1,0,-1
EndSplineSet
EndChar

StartChar: periodcentered
Encoding: 183 183 62
Width: 724
Flags: W
LayerCount: 2
Fore
SplineSet
482 832 m 1,0,-1
 243 832 l 1,1,-1
 243 1117 l 1,2,-1
 482 1117 l 1,3,-1
 482 832 l 1,0,-1
EndSplineSet
EndChar

StartChar: H22073
Encoding: 9633 9633 63
Width: 1237
Flags: W
LayerCount: 2
Fore
SplineSet
146 944 m 1,0,-1
 1090 944 l 1,1,-1
 1090 0 l 1,2,-1
 146 0 l 1,3,-1
 146 944 l 1,0,-1
222 868 m 1,4,-1
 222 76 l 1,5,-1
 1014 76 l 1,6,-1
 1014 868 l 1,7,-1
 222 868 l 1,4,-1
EndSplineSet
EndChar

StartChar: H18543
Encoding: 9642 9642 64
Width: 1089
Flags: W
LayerCount: 2
Fore
SplineSet
886 894 m 1,0,-1
 886 200 l 1,1,-1
 192 200 l 1,2,-1
 192 894 l 1,3,-1
 886 894 l 1,0,-1
EndSplineSet
EndChar

StartChar: H18551
Encoding: 9643 9643 65
Width: 1089
Flags: W
LayerCount: 2
Fore
SplineSet
888 930 m 1,0,-1
 888 235 l 1,1,-1
 193 235 l 1,2,-1
 193 930 l 1,3,-1
 888 930 l 1,0,-1
774 816 m 1,4,-1
 307 816 l 1,5,-1
 307 349 l 1,6,-1
 774 349 l 1,7,-1
 774 816 l 1,4,-1
EndSplineSet
EndChar

StartChar: H18533
Encoding: 9679 9679 66
Width: 1339
Flags: W
LayerCount: 2
Fore
SplineSet
204 775 m 0,0,1
 204 976 204 976 345 1117 c 128,-1,2
 486 1258 486 1258 685 1258 c 0,3,4
 885 1258 885 1258 1026 1117 c 128,-1,5
 1167 976 1167 976 1167 775 c 0,6,7
 1167 577 1167 577 1026 436 c 128,-1,8
 885 295 885 295 685 295 c 0,9,10
 486 295 486 295 345 436 c 128,-1,11
 204 577 204 577 204 775 c 0,0,1
EndSplineSet
EndChar

StartChar: openbullet
Encoding: 9702 9702 67
Width: 1089
Flags: W
LayerCount: 2
Fore
SplineSet
544 1392 m 0,0,1
 700 1392 700 1392 810.5 1281.5 c 128,-1,2
 921 1171 921 1171 921 1015 c 256,3,4
 921 859 921 859 810.5 749 c 128,-1,5
 700 639 700 639 544 639 c 256,6,7
 388 639 388 639 278 749 c 128,-1,8
 168 859 168 859 168 1015 c 256,9,10
 168 1171 168 1171 277.5 1281.5 c 128,-1,11
 387 1392 387 1392 544 1392 c 0,0,1
544 1278 m 0,12,13
 435 1278 435 1278 358.5 1200.5 c 128,-1,14
 282 1123 282 1123 282 1015 c 0,15,16
 282 906 282 906 359 829.5 c 128,-1,17
 436 753 436 753 544 753 c 256,18,19
 652 753 652 753 729.5 829.5 c 128,-1,20
 807 906 807 906 807 1015 c 0,21,22
 807 1123 807 1123 730.5 1200.5 c 128,-1,23
 654 1278 654 1278 544 1278 c 0,12,13
EndSplineSet
EndChar

StartChar: uniFFFC
Encoding: 65532 65532 68
Width: 2048
Flags: W
LayerCount: 2
Fore
SplineSet
2048 1150 m 1,0,-1
 1948 1150 l 1,1,-1
 1948 1373 l 1,2,-1
 1725 1373 l 1,3,-1
 1725 1473 l 1,4,-1
 2048 1473 l 1,5,-1
 2048 1150 l 1,0,-1
1473 1373 m 1,6,-1
 1150 1373 l 1,7,-1
 1150 1473 l 1,8,-1
 1473 1473 l 1,9,-1
 1473 1373 l 1,6,-1
2048 575 m 1,10,-1
 1948 575 l 1,11,-1
 1948 898 l 1,12,-1
 2048 898 l 1,13,-1
 2048 575 l 1,10,-1
1782 611 m 2,14,15
 1782 370 1782 370 1571 370 c 0,16,17
 1485 370 1485 370 1433 415 c 1,18,-1
 1506 494 l 1,19,20
 1531 468 1531 468 1571 468 c 0,21,22
 1666 468 1666 468 1666 606 c 2,23,-1
 1666 1090 l 1,24,-1
 1782 1090 l 1,25,-1
 1782 611 l 2,14,15
898 1373 m 1,26,-1
 575 1373 l 1,27,-1
 575 1473 l 1,28,-1
 898 1473 l 1,29,-1
 898 1373 l 1,26,-1
2048 0 m 1,30,-1
 1725 0 l 1,31,-1
 1725 100 l 1,32,-1
 1948 100 l 1,33,-1
 1948 323 l 1,34,-1
 2048 323 l 1,35,-1
 2048 0 l 1,30,-1
1423 591 m 0,36,37
 1423 382 1423 382 1149 382 c 2,38,-1
 909 382 l 1,39,-1
 909 1090 l 1,40,-1
 1144 1090 l 2,41,42
 1393 1090 1393 1090 1393 904 c 0,43,44
 1393 813 1393 813 1304 759 c 1,45,46
 1423 713 1423 713 1423 591 c 0,36,37
323 1373 m 1,47,-1
 100 1373 l 1,48,-1
 100 1150 l 1,49,-1
 0 1150 l 1,50,-1
 0 1473 l 1,51,-1
 323 1473 l 1,52,-1
 323 1373 l 1,47,-1
1473 0 m 1,53,-1
 1150 0 l 1,54,-1
 1150 100 l 1,55,-1
 1473 100 l 1,56,-1
 1473 0 l 1,53,-1
854 735 m 0,57,58
 854 562 854 562 772 466 c 128,-1,59
 690 370 690 370 537 370 c 256,60,61
 384 370 384 370 303.5 466 c 128,-1,62
 223 562 223 562 223 735 c 0,63,64
 223 910 223 910 303.5 1006 c 128,-1,65
 384 1102 384 1102 537 1102 c 256,66,67
 690 1102 690 1102 772 1006 c 128,-1,68
 854 910 854 910 854 735 c 0,57,58
100 575 m 1,69,-1
 0 575 l 1,70,-1
 0 898 l 1,71,-1
 100 898 l 1,72,-1
 100 575 l 1,69,-1
898 0 m 1,73,-1
 575 0 l 1,74,-1
 575 100 l 1,75,-1
 898 100 l 1,76,-1
 898 0 l 1,73,-1
323 0 m 1,77,-1
 0 0 l 1,78,-1
 0 323 l 1,79,-1
 100 323 l 1,80,-1
 100 100 l 1,81,-1
 323 100 l 1,82,-1
 323 0 l 1,77,-1
1277 893 m 0,83,84
 1277 992 1277 992 1114 992 c 2,85,-1
 1025 992 l 1,86,-1
 1025 798 l 1,87,-1
 1126 798 l 2,88,89
 1277 798 1277 798 1277 893 c 0,83,84
1307 591 m 0,90,91
 1307 700 1307 700 1136 700 c 2,92,-1
 1025 700 l 1,93,-1
 1025 480 l 1,94,-1
 1149 480 l 2,95,96
 1307 480 1307 480 1307 591 c 0,90,91
738 735 m 0,97,98
 738 1004 738 1004 537 1004 c 0,99,100
 339 1004 339 1004 339 735 c 0,101,102
 339 468 339 468 537 468 c 0,103,104
 738 468 738 468 738 735 c 0,97,98
EndSplineSet
EndChar

StartChar: zerowidthnonjoiner
Encoding: 8204 8204 88
Width: 0
GlyphClass: 2
Flags: W
LayerCount: 2
Fore
SplineSet
36 1289 m 1,0,-1
 36 -275 l 1,1,-1
 -36 -275 l 1,2,-1
 -36 1289 l 1,3,-1
 36 1289 l 1,0,-1
EndSplineSet
EndChar

StartChar: zerowidthjoiner
Encoding: 8205 8205 89
Width: 0
GlyphClass: 2
Flags: W
LayerCount: 2
Fore
SplineSet
36 -275 m 1,0,-1
 -36 -275 l 1,1,-1
 -36 1114 l 1,2,-1
 -170 978 l 1,3,-1
 -219 1027 l 1,4,-1
 -48 1196 l 1,5,-1
 -219 1364 l 1,6,-1
 -170 1413 l 1,7,-1
 0 1242 l 1,8,-1
 170 1413 l 1,9,-1
 219 1364 l 1,10,-1
 48 1196 l 1,11,-1
 219 1027 l 1,12,-1
 170 978 l 1,13,-1
 36 1114 l 1,14,-1
 36 -275 l 1,0,-1
EndSplineSet
EndChar

StartChar: lefttorightmark
Encoding: 8206 8206 90
Width: 0
GlyphClass: 2
Flags: W
LayerCount: 2
Fore
SplineSet
430 1198 m 1,0,-1
 213 984 l 1,1,-1
 164 1033 l 1,2,-1
 301 1163 l 1,3,-1
 35 1163 l 1,4,-1
 35 -275 l 1,5,-1
 -36 -275 l 1,6,-1
 -36 1234 l 1,7,-1
 301 1234 l 1,8,-1
 164 1364 l 1,9,-1
 213 1413 l 1,10,-1
 430 1198 l 1,0,-1
EndSplineSet
EndChar

StartChar: righttoleftmark
Encoding: 8207 8207 91
Width: 0
GlyphClass: 2
Flags: W
LayerCount: 2
Fore
SplineSet
35 -275 m 1,0,-1
 -36 -275 l 1,1,-1
 -36 1163 l 1,2,-1
 -302 1163 l 1,3,-1
 -165 1033 l 1,4,-1
 -214 984 l 1,5,-1
 -431 1198 l 1,6,-1
 -214 1413 l 1,7,-1
 -165 1364 l 1,8,-1
 -302 1234 l 1,9,-1
 35 1234 l 1,10,-1
 35 -275 l 1,0,-1
EndSplineSet
EndChar

StartChar: afii57388.001
Encoding: 1644 1644 92
Width: 353
GlyphClass: 2
Flags: W
LayerCount: 2
Fore
SplineSet
210 654 m 0,0,1
 200 627 200 627 185 603 c 0,2,3
 180 597 180 597 173.5 593.5 c 128,-1,4
 167 590 167 590 162 590 c 128,-1,5
 157 590 157 590 154.5 593 c 128,-1,6
 152 596 152 596 155 603 c 0,7,8
 187 660 187 660 202.5 713.5 c 128,-1,9
 218 767 218 767 218 800 c 1,10,11
 194 806 194 806 179 816 c 128,-1,12
 164 826 164 826 155 837.5 c 128,-1,13
 146 849 146 849 143 859 c 128,-1,14
 140 869 140 869 140 874 c 0,15,16
 140 890 140 890 145.5 907 c 128,-1,17
 151 924 151 924 160.5 937.5 c 128,-1,18
 170 951 170 951 183.5 959.5 c 128,-1,19
 197 968 197 968 213 968 c 0,20,21
 272 968 272 968 272 874 c 0,22,23
 272 859 272 859 268 835 c 128,-1,24
 264 811 264 811 256 781.5 c 128,-1,25
 248 752 248 752 236.5 719.5 c 128,-1,26
 225 687 225 687 210 654 c 0,0,1
EndSplineSet
EndChar

StartChar: afii57409
Encoding: 1569 1569 93
Width: 819
GlyphClass: 2
Flags: W
AnchorPoint: "Anchor-3" 465 -405 basechar 0
AnchorPoint: "Anchor-2" 540 660 basechar 0
LayerCount: 2
Fore
SplineSet
821 2 m 1,0,-1
 184 2 l 1,1,-1
 184 158 l 1,2,-1
 312 158 l 1,3,-1
 312 312 l 2,4,5
 312 361 312 361 343 391.5 c 128,-1,6
 374 422 374 422 423 422 c 2,7,-1
 754 422 l 1,8,-1
 754 269 l 1,9,-1
 533 269 l 1,10,-1
 533 157 l 1,11,-1
 821 157 l 1,12,-1
 821 2 l 1,0,-1
EndSplineSet
EndChar

StartChar: afii57440
Encoding: 1600 1600 94
Width: 832
GlyphClass: 2
Flags: W
LayerCount: 2
Fore
SplineSet
861 1 m 1,0,-1
 -30 1 l 1,1,-1
 -30 287 l 1,2,-1
 861 287 l 1,3,-1
 861 1 l 1,0,-1
EndSplineSet
EndChar

StartChar: afii57453
Encoding: 1613 1613 95
Width: 0
GlyphClass: 4
Flags: W
AnchorPoint: "Anchor-3" 0 0 mark 0
AnchorPoint: "Anchor-1" 0 0 mark 0
LayerCount: 2
Fore
SplineSet
-240 -110 m 1,0,-1
 244 7 l 1,1,-1
 244 -102 l 1,2,-1
 -240 -217 l 1,3,-1
 -240 -110 l 1,0,-1
244 227 m 1,4,-1
 244 118 l 1,5,-1
 -240 3 l 1,6,-1
 -240 109 l 1,7,-1
 239 226 l 1,8,-1
 244 227 l 1,4,-1
EndSplineSet
EndChar

StartChar: afii57381
Encoding: 1642 1642 96
Width: 1005
GlyphClass: 2
Flags: W
LayerCount: 2
Fore
SplineSet
512 1188 m 256,0,1
 512 1120 512 1120 464 1072 c 128,-1,2
 416 1024 416 1024 348 1024 c 0,3,4
 281 1024 281 1024 232.5 1072.5 c 128,-1,5
 184 1121 184 1121 184 1188 c 0,6,7
 184 1256 184 1256 232 1304 c 128,-1,8
 280 1352 280 1352 348 1352 c 256,9,10
 416 1352 416 1352 464 1304 c 128,-1,11
 512 1256 512 1256 512 1188 c 256,0,1
1005 1434 m 1,12,-1
 471 0 l 1,13,-1
 184 0 l 1,14,-1
 717 1434 l 1,15,-1
 1005 1434 l 1,12,-1
1005 246 m 256,16,17
 1005 178 1005 178 957 130 c 128,-1,18
 909 82 909 82 841 82 c 0,19,20
 774 82 774 82 725.5 130.5 c 128,-1,21
 677 179 677 179 677 246 c 0,22,23
 677 314 677 314 725 362 c 128,-1,24
 773 410 773 410 841 410 c 256,25,26
 909 410 909 410 957 362 c 128,-1,27
 1005 314 1005 314 1005 246 c 256,16,17
EndSplineSet
EndChar

StartChar: afii57461
Encoding: 1643 1643 97
Width: 536
GlyphClass: 2
Flags: W
LayerCount: 2
Fore
SplineSet
518 521 m 1,0,-1
 115 -382 l 1,1,-1
 19 -352 l 1,2,-1
 425 551 l 1,3,-1
 518 521 l 1,0,-1
EndSplineSet
EndChar

StartChar: afii63167
Encoding: 1645 1645 98
Width: 1118
GlyphClass: 2
Flags: W
LayerCount: 2
Fore
SplineSet
694 729 m 1,0,-1
 1057 733 l 1,1,-1
 1057 610 l 1,2,-1
 702 612 l 1,3,-1
 971 352 l 1,4,-1
 883 264 l 1,5,-1
 616 539 l 1,6,-1
 623 168 l 1,7,-1
 498 168 l 1,8,-1
 502 539 l 1,9,-1
 236 264 l 1,10,-1
 147 352 l 1,11,-1
 422 614 l 1,12,-1
 63 610 l 1,13,-1
 63 733 l 1,14,-1
 420 729 l 1,15,-1
 170 975 l 1,16,-1
 258 1065 l 1,17,-1
 502 817 l 1,18,-1
 498 1176 l 1,19,-1
 623 1176 l 1,20,-1
 616 813 l 1,21,-1
 860 1065 l 1,22,-1
 948 975 l 1,23,-1
 694 729 l 1,0,-1
EndSplineSet
EndChar

StartChar: afii57459
Encoding: 65543 -1 99
Width: 1230
GlyphClass: 2
Flags: W
LayerCount: 2
Fore
SplineSet
1230 205 m 2,0,1
 1230 132 1230 132 1179 71 c 0,2,3
 1119 0 1119 0 1025 0 c 2,4,-1
 -31 0 l 1,5,-1
 -31 287 l 1,6,-1
 409 287 l 2,7,8
 323 287 323 287 263.5 346.5 c 128,-1,9
 204 406 204 406 204 492 c 2,10,-1
 204 697 l 2,11,12
 204 786 204 786 262 843.5 c 128,-1,13
 320 901 320 901 409 901 c 2,14,-1
 1025 901 l 2,15,16
 1115 901 1115 901 1172.5 844 c 128,-1,17
 1230 787 1230 787 1230 697 c 2,18,-1
 1230 205 l 2,0,1
819 287 m 1,19,-1
 819 614 l 1,20,-1
 613 614 l 1,21,-1
 613 492 l 2,22,23
 613 406 613 406 673 346.5 c 128,-1,24
 733 287 733 287 819 287 c 1,19,-1
EndSplineSet
EndChar

StartChar: afii57543
Encoding: 65544 -1 100
Width: 820
Flags: W
LayerCount: 2
Fore
SplineSet
852 1 m 1,0,-1
 820 1 l 1,1,-1
 820 287 l 1,2,-1
 852 287 l 1,3,-1
 852 1 l 1,0,-1
820 205 m 2,4,5
 820 119 820 119 760.5 60 c 128,-1,6
 701 1 701 1 615 1 c 2,7,-1
 -32 1 l 1,8,-1
 -32 287 l 1,9,-1
 411 287 l 1,10,-1
 411 778 l 1,11,-1
 820 778 l 1,12,-1
 820 205 l 2,4,5
EndSplineSet
EndChar

StartChar: afii57534
Encoding: 1749 1749 101
Width: 1208
GlyphClass: 2
Flags: W
LayerCount: 2
Fore
SplineSet
1208 207 m 2,0,1
 1208 118 1208 118 1150 59.5 c 128,-1,2
 1092 1 1092 1 1004 1 c 2,3,-1
 390 1 l 2,4,5
 299 1 299 1 241.5 56.5 c 128,-1,6
 184 112 184 112 184 202 c 2,7,-1
 184 574 l 2,8,9
 184 663 184 663 242 720.5 c 128,-1,10
 300 778 300 778 389 778 c 2,11,-1
 1004 778 l 2,12,13
 1091 778 1091 778 1149.5 719.5 c 128,-1,14
 1208 661 1208 661 1208 574 c 2,15,-1
 1208 207 l 2,0,1
799 287 m 1,16,-1
 799 492 l 1,17,-1
 594 492 l 1,18,-1
 594 287 l 1,19,-1
 799 287 l 1,16,-1
EndSplineSet
EndChar

StartChar: afii64240
Encoding: 65546 -1 103
Width: 374
Flags: W
LayerCount: 2
Fore
SplineSet
342 -165 m 256,0,1
 342 -233 342 -233 294 -281 c 128,-1,2
 246 -329 246 -329 178 -329 c 256,3,4
 110 -329 110 -329 62 -281 c 128,-1,5
 14 -233 14 -233 14 -165 c 0,6,7
 14 -98 14 -98 62.5 -49.5 c 128,-1,8
 111 -1 111 -1 178 -1 c 0,9,10
 246 -1 246 -1 294 -49 c 128,-1,11
 342 -97 342 -97 342 -165 c 256,0,1
EndSplineSet
EndChar

StartChar: afii64241
Encoding: 65547 -1 104
Width: 692
Flags: W
LayerCount: 2
Fore
SplineSet
675 166 m 256,0,1
 675 98 675 98 627 50 c 128,-1,2
 579 2 579 2 511 2 c 0,3,4
 444 2 444 2 395.5 50.5 c 128,-1,5
 347 99 347 99 347 166 c 0,6,7
 347 234 347 234 395 282 c 128,-1,8
 443 330 443 330 511 330 c 256,9,10
 579 330 579 330 627 282 c 128,-1,11
 675 234 675 234 675 166 c 256,0,1
346 166 m 256,12,13
 346 98 346 98 298 50 c 128,-1,14
 250 2 250 2 182 2 c 0,15,16
 115 2 115 2 66.5 50.5 c 128,-1,17
 18 99 18 99 18 166 c 0,18,19
 18 234 18 234 66 282 c 128,-1,20
 114 330 114 330 182 330 c 256,21,22
 250 330 250 330 298 282 c 128,-1,23
 346 234 346 234 346 166 c 256,12,13
EndSplineSet
EndChar

StartChar: afii63954
Encoding: 65548 -1 105
Width: 716
Flags: W
LayerCount: 2
Fore
SplineSet
700 172 m 256,0,1
 700 104 700 104 652 56 c 128,-1,2
 604 8 604 8 536 8 c 0,3,4
 469 8 469 8 420.5 56.5 c 128,-1,5
 372 105 372 105 372 172 c 0,6,7
 372 240 372 240 420 288 c 128,-1,8
 468 336 468 336 536 336 c 256,9,10
 604 336 604 336 652 288 c 128,-1,11
 700 240 700 240 700 172 c 256,0,1
371 172 m 256,12,13
 371 104 371 104 323 56 c 128,-1,14
 275 8 275 8 207 8 c 0,15,16
 140 8 140 8 91.5 56.5 c 128,-1,17
 43 105 43 105 43 172 c 0,18,19
 43 240 43 240 91 288 c 128,-1,20
 139 336 139 336 207 336 c 256,21,22
 275 336 275 336 323 288 c 128,-1,23
 371 240 371 240 371 172 c 256,12,13
535 541 m 256,24,25
 535 473 535 473 487 425 c 128,-1,26
 439 377 439 377 371 377 c 0,27,28
 304 377 304 377 255.5 425.5 c 128,-1,29
 207 474 207 474 207 541 c 0,30,31
 207 609 207 609 255 657 c 128,-1,32
 303 705 303 705 371 705 c 256,33,34
 439 705 439 705 487 657 c 128,-1,35
 535 609 535 609 535 541 c 256,24,25
EndSplineSet
EndChar

StartChar: afii57382
Encoding: 65549 -1 106
Width: 714
Flags: W
LayerCount: 2
Fore
SplineSet
690 -164 m 256,0,1
 690 -232 690 -232 642 -280 c 128,-1,2
 594 -328 594 -328 526 -328 c 256,3,4
 458 -328 458 -328 410 -280 c 128,-1,5
 362 -232 362 -232 362 -164 c 0,6,7
 362 -97 362 -97 410.5 -48.5 c 128,-1,8
 459 0 459 0 526 0 c 0,9,10
 594 0 594 0 642 -48 c 128,-1,11
 690 -96 690 -96 690 -164 c 256,0,1
361 -164 m 256,12,13
 361 -232 361 -232 313 -280 c 128,-1,14
 265 -328 265 -328 197 -328 c 256,15,16
 129 -328 129 -328 81 -280 c 128,-1,17
 33 -232 33 -232 33 -164 c 0,18,19
 33 -97 33 -97 81.5 -48.5 c 128,-1,20
 130 0 130 0 197 0 c 0,21,22
 265 0 265 0 313 -48 c 128,-1,23
 361 -96 361 -96 361 -164 c 256,12,13
525 -533 m 256,24,25
 525 -601 525 -601 477 -649 c 128,-1,26
 429 -697 429 -697 361 -697 c 256,27,28
 293 -697 293 -697 245 -649 c 128,-1,29
 197 -601 197 -601 197 -533 c 0,30,31
 197 -466 197 -466 245.5 -417.5 c 128,-1,32
 294 -369 294 -369 361 -369 c 0,33,34
 429 -369 429 -369 477 -417 c 128,-1,35
 525 -465 525 -465 525 -533 c 256,24,25
EndSplineSet
EndChar

StartChar: afii64242
Encoding: 65550 -1 107
Width: 820
Flags: W
LayerCount: 2
Fore
SplineSet
820 205 m 2,0,1
 820 119 820 119 760.5 60 c 128,-1,2
 701 1 701 1 615 1 c 2,3,-1
 -32 1 l 1,4,-1
 -32 287 l 1,5,-1
 411 287 l 1,6,-1
 411 778 l 1,7,-1
 820 778 l 1,8,-1
 820 205 l 2,0,1
EndSplineSet
EndChar

StartChar: afii57373
Encoding: 65551 -1 112
Width: 638
Flags: W
LayerCount: 2
Fore
SplineSet
576 988 m 1,0,-1
 82 988 l 1,1,-1
 82 1126 l 1,2,-1
 160 1126 l 1,3,-1
 160 1262 l 2,4,5
 160 1360 160 1360 258 1360 c 2,6,-1
 517 1360 l 1,7,-1
 517 1223 l 1,8,-1
 357 1223 l 1,9,-1
 357 1126 l 1,10,-1
 576 1126 l 1,11,-1
 576 988 l 1,0,-1
EndSplineSet
EndChar

StartChar: afii57374
Encoding: 65552 -1 113
Width: 1230
GlyphClass: 2
Flags: W
LayerCount: 2
Fore
SplineSet
1262 1 m 1,0,-1
 1230 1 l 1,1,-1
 1230 287 l 1,2,-1
 1262 287 l 1,3,-1
 1262 1 l 1,0,-1
1230 205 m 2,4,5
 1230 132 1230 132 1179 71 c 0,6,7
 1119 0 1119 0 1025 0 c 2,8,-1
 -31 0 l 1,9,-1
 -31 287 l 1,10,-1
 409 287 l 2,11,12
 323 287 323 287 263.5 346.5 c 128,-1,13
 204 406 204 406 204 492 c 2,14,-1
 204 697 l 2,15,16
 204 786 204 786 262 843.5 c 128,-1,17
 320 901 320 901 409 901 c 2,18,-1
 1025 901 l 2,19,20
 1115 901 1115 901 1172.5 844 c 128,-1,21
 1230 787 1230 787 1230 697 c 2,22,-1
 1230 205 l 2,4,5
819 287 m 1,23,-1
 819 614 l 1,24,-1
 613 614 l 1,25,-1
 613 492 l 2,26,27
 613 406 613 406 673 346.5 c 128,-1,28
 733 287 733 287 819 287 c 1,23,-1
EndSplineSet
EndChar

StartChar: afii57375
Encoding: 1619 1619 114
Width: 1312
GlyphClass: 2
Flags: W
LayerCount: 2
Fore
SplineSet
1255 1639 m 1,0,-1
 641 1639 l 1,1,-1
 641 1762 l 1,2,-1
 437 1762 l 1,3,-1
 437 1639 l 1,4,-1
 27 1639 l 1,5,-1
 27 1762 l 2,6,7
 27 1847 27 1847 87 1907 c 128,-1,8
 147 1967 147 1967 232 1967 c 2,9,-1
 845 1967 l 1,10,-1
 845 1844 l 1,11,-1
 1050 1844 l 1,12,-1
 1050 1967 l 1,13,-1
 1255 1967 l 1,14,-1
 1255 1639 l 1,0,-1
EndSplineSet
EndChar

StartChar: afii57391
Encoding: 59450 59450 115
Width: 1024
GlyphClass: 2
Flags: W
LayerCount: 2
Fore
SplineSet
1024 0 m 1,0,-1
 -70 0 l 1,1,-1
 -70 188 l 1,2,-1
 1024 188 l 1,3,-1
 1024 0 l 1,0,-1
EndSplineSet
EndChar

StartChar: afii57471
Encoding: 65553 -1 116
Width: 1740
Flags: W
LayerCount: 2
Fore
SplineSet
1772 1 m 1,0,-1
 1740 1 l 1,1,-1
 1740 287 l 1,2,-1
 1772 287 l 1,3,-1
 1772 1 l 1,0,-1
1740 205 m 2,4,5
 1740 119 1740 119 1680.5 60 c 128,-1,6
 1621 1 1621 1 1535 1 c 2,7,-1
 389 1 l 2,8,9
 303 1 303 1 243.5 60 c 128,-1,10
 184 119 184 119 184 205 c 2,11,-1
 184 778 l 1,12,-1
 594 778 l 1,13,-1
 594 287 l 1,14,-1
 1330 287 l 1,15,-1
 1330 778 l 1,16,-1
 1740 778 l 1,17,-1
 1740 205 l 2,4,5
EndSplineSet
EndChar

StartChar: afii52258
Encoding: 65554 -1 117
Width: 2111
GlyphClass: 2
Flags: W
LayerCount: 2
Fore
SplineSet
2143 1 m 1,0,-1
 2111 1 l 1,1,-1
 2111 287 l 1,2,-1
 2143 287 l 1,3,-1
 2143 1 l 1,0,-1
2111 205 m 2,4,5
 2111 117 2111 117 2052.5 58.5 c 128,-1,6
 1994 0 1994 0 1907 0 c 2,7,-1
 389 0 l 2,8,9
 303 0 303 0 243.5 59 c 128,-1,10
 184 118 184 118 184 204 c 2,11,-1
 184 614 l 1,12,-1
 594 614 l 1,13,-1
 594 287 l 1,14,-1
 1290 287 l 2,15,16
 1204 287 1204 287 1144.5 346.5 c 128,-1,17
 1085 406 1085 406 1085 492 c 2,18,-1
 1085 697 l 2,19,20
 1085 786 1085 786 1143 843.5 c 128,-1,21
 1201 901 1201 901 1290 901 c 2,22,-1
 1907 901 l 2,23,24
 1997 901 1997 901 2054 844 c 128,-1,25
 2111 787 2111 787 2111 697 c 2,26,-1
 2111 205 l 2,4,5
1701 287 m 1,27,-1
 1701 614 l 1,28,-1
 1495 614 l 1,29,-1
 1495 492 l 2,30,31
 1495 406 1495 406 1555 346.5 c 128,-1,32
 1615 287 1615 287 1701 287 c 1,27,-1
EndSplineSet
EndChar

StartChar: afii62889
Encoding: 65555 -1 123
Width: 1906
Flags: W
LayerCount: 2
Fore
SplineSet
1938 1 m 1,0,-1
 1906 1 l 1,1,-1
 1906 287 l 1,2,-1
 1938 287 l 1,3,-1
 1938 1 l 1,0,-1
1906 -287 m 2,4,5
 1906 -379 1906 -379 1849.5 -435.5 c 128,-1,6
 1793 -492 1793 -492 1701 -492 c 2,7,-1
 389 -492 l 2,8,9
 303 -492 303 -492 243.5 -433 c 128,-1,10
 184 -374 184 -374 184 -288 c 2,11,-1
 184 613 l 1,12,-1
 594 613 l 1,13,-1
 594 -205 l 1,14,-1
 1496 -205 l 1,15,-1
 1496 0 l 1,16,-1
 1084 0 l 2,17,18
 998 0 998 0 939 59.5 c 128,-1,19
 880 119 880 119 880 205 c 2,20,-1
 880 694 l 2,21,22
 880 784 880 784 937 841 c 128,-1,23
 994 898 994 898 1084 898 c 2,24,-1
 1701 898 l 2,25,26
 1792 898 1792 898 1849 841.5 c 128,-1,27
 1906 785 1906 785 1906 694 c 2,28,-1
 1906 -287 l 2,4,5
1496 287 m 1,29,-1
 1496 612 l 1,30,-1
 1290 612 l 1,31,-1
 1290 287 l 1,32,-1
 1496 287 l 1,29,-1
EndSplineSet
EndChar

StartChar: afii62887
Encoding: 65556 -1 124
Width: 1740
Flags: W
LayerCount: 2
Fore
SplineSet
1740 205 m 2,0,1
 1740 119 1740 119 1680.5 60 c 128,-1,2
 1621 1 1621 1 1535 1 c 2,3,-1
 389 1 l 2,4,5
 303 1 303 1 243.5 60 c 128,-1,6
 184 119 184 119 184 205 c 2,7,-1
 184 778 l 1,8,-1
 594 778 l 1,9,-1
 594 287 l 1,10,-1
 1330 287 l 1,11,-1
 1330 778 l 1,12,-1
 1740 778 l 1,13,-1
 1740 205 l 2,0,1
EndSplineSet
EndChar

StartChar: afii62888
Encoding: 1697 1697 125
Width: 2111
GlyphClass: 2
Flags: W
LayerCount: 2
Fore
SplineSet
2111 205 m 2,0,1
 2111 117 2111 117 2052.5 58.5 c 128,-1,2
 1994 0 1994 0 1907 0 c 2,3,-1
 389 0 l 2,4,5
 303 0 303 0 243.5 59 c 128,-1,6
 184 118 184 118 184 204 c 2,7,-1
 184 614 l 1,8,-1
 594 614 l 1,9,-1
 594 287 l 1,10,-1
 1290 287 l 2,11,12
 1204 287 1204 287 1144.5 346.5 c 128,-1,13
 1085 406 1085 406 1085 492 c 2,14,-1
 1085 697 l 2,15,16
 1085 786 1085 786 1143 843.5 c 128,-1,17
 1201 901 1201 901 1290 901 c 2,18,-1
 1907 901 l 2,19,20
 1997 901 1997 901 2054 844 c 128,-1,21
 2111 787 2111 787 2111 697 c 2,22,-1
 2111 205 l 2,0,1
1701 287 m 1,23,-1
 1701 614 l 1,24,-1
 1495 614 l 1,25,-1
 1495 492 l 2,26,27
 1495 406 1495 406 1555 346.5 c 128,-1,28
 1615 287 1615 287 1701 287 c 1,23,-1
EndSplineSet
Substitution2: "'medi' Medial Forms in Arabic lookup 3 subtable" afii57374
Substitution2: "'fina' Terminal Forms in Arabic lookup 2 subtable" afii52258
Substitution2: "'init' Initial Forms in Arabic lookup 1 subtable" afii57459
EndChar

StartChar: afii57567
Encoding: 1705 1705 132
Width: 2108
GlyphClass: 2
Flags: W
AnchorPoint: "Anchor-3" 1050 -585 basechar 0
AnchorPoint: "Anchor-2" 1080 1575 basechar 0
LayerCount: 2
Fore
SplineSet
2191 983 m 1,0,-1
 1290 983 l 1,1,-1
 1290 778 l 1,2,-1
 1904 778 l 2,3,4
 1994 778 1994 778 2051 721 c 128,-1,5
 2108 664 2108 664 2108 574 c 2,6,-1
 2108 204 l 2,7,8
 2108 118 2108 118 2049 59 c 128,-1,9
 1990 0 1990 0 1904 0 c 2,10,-1
 389 0 l 2,11,12
 303 0 303 0 243.5 59 c 128,-1,13
 184 118 184 118 184 204 c 2,14,-1
 184 614 l 1,15,-1
 594 614 l 1,16,-1
 594 287 l 1,17,-1
 1699 287 l 1,18,-1
 1699 492 l 1,19,-1
 880 492 l 1,20,-1
 880 1066 l 2,21,22
 880 1152 880 1152 939 1211 c 128,-1,23
 998 1270 998 1270 1084 1270 c 2,24,-1
 2191 1270 l 1,25,-1
 2191 983 l 1,0,-1
EndSplineSet
Substitution2: "'medi' Medial Forms in Arabic lookup 3 subtable" afii52306
Substitution2: "'fina' Terminal Forms in Arabic lookup 2 subtable" afii62964
Substitution2: "'init' Initial Forms in Arabic lookup 1 subtable" afii52305
EndChar

StartChar: afii62964
Encoding: 64399 64399 133
Width: 2108
GlyphClass: 2
Flags: W
AnchorPoint: "Anchor-3" 990 -510 basechar 0
AnchorPoint: "Anchor-2" 945 1515 basechar 0
LayerCount: 2
Fore
SplineSet
2140 1 m 1,0,-1
 2108 1 l 1,1,-1
 2108 287 l 1,2,-1
 2140 287 l 1,3,-1
 2140 1 l 1,0,-1
2191 983 m 1,4,-1
 1290 983 l 1,5,-1
 1290 778 l 1,6,-1
 1904 778 l 2,7,8
 1994 778 1994 778 2051 721 c 128,-1,9
 2108 664 2108 664 2108 574 c 2,10,-1
 2108 204 l 2,11,12
 2108 118 2108 118 2049 59 c 128,-1,13
 1990 0 1990 0 1904 0 c 2,14,-1
 389 0 l 2,15,16
 303 0 303 0 243.5 59 c 128,-1,17
 184 118 184 118 184 204 c 2,18,-1
 184 614 l 1,19,-1
 594 614 l 1,20,-1
 594 287 l 1,21,-1
 1699 287 l 1,22,-1
 1699 492 l 1,23,-1
 880 492 l 1,24,-1
 880 1066 l 2,25,26
 880 1152 880 1152 939 1211 c 128,-1,27
 998 1270 998 1270 1084 1270 c 2,28,-1
 2191 1270 l 1,29,-1
 2191 983 l 1,4,-1
EndSplineSet
EndChar

StartChar: afii52305
Encoding: 64400 64400 134
Width: 1433
GlyphClass: 2
Flags: W
AnchorPoint: "Anchor-3" 615 -525 basechar 0
AnchorPoint: "Anchor-2" 810 1530 basechar 0
LayerCount: 2
Fore
SplineSet
1516 983 m 1,0,-1
 614 983 l 1,1,-1
 614 778 l 1,2,-1
 1228 778 l 2,3,4
 1318 778 1318 778 1375.5 720.5 c 128,-1,5
 1433 663 1433 663 1433 574 c 2,6,-1
 1433 204 l 2,7,8
 1433 118 1433 118 1373.5 59 c 128,-1,9
 1314 0 1314 0 1228 0 c 2,10,-1
 -31 0 l 1,11,-1
 -31 287 l 1,12,-1
 1023 287 l 1,13,-1
 1023 492 l 1,14,-1
 204 492 l 1,15,-1
 204 1066 l 2,16,17
 204 1152 204 1152 263.5 1211 c 128,-1,18
 323 1270 323 1270 409 1270 c 2,19,-1
 1516 1270 l 1,20,-1
 1516 983 l 1,0,-1
EndSplineSet
EndChar

StartChar: afii52306
Encoding: 64401 64401 135
Width: 1433
GlyphClass: 2
Flags: W
AnchorPoint: "Anchor-3" 630 -570 basechar 0
AnchorPoint: "Anchor-2" 795 1530 basechar 0
LayerCount: 2
Fore
SplineSet
1465 1 m 1,0,-1
 1433 1 l 1,1,-1
 1433 287 l 1,2,-1
 1465 287 l 1,3,-1
 1465 1 l 1,0,-1
1516 983 m 1,4,-1
 614 983 l 1,5,-1
 614 778 l 1,6,-1
 1228 778 l 2,7,8
 1318 778 1318 778 1375.5 720.5 c 128,-1,9
 1433 663 1433 663 1433 574 c 2,10,-1
 1433 204 l 2,11,12
 1433 118 1433 118 1373.5 59 c 128,-1,13
 1314 0 1314 0 1228 0 c 2,14,-1
 -31 0 l 1,15,-1
 -31 287 l 1,16,-1
 1023 287 l 1,17,-1
 1023 492 l 1,18,-1
 204 492 l 1,19,-1
 204 1066 l 2,20,21
 204 1152 204 1152 263.5 1211 c 128,-1,22
 323 1270 323 1270 409 1270 c 2,23,-1
 1516 1270 l 1,24,-1
 1516 983 l 1,4,-1
EndSplineSet
EndChar

StartChar: afii57509
Encoding: 1711 1711 136
Width: 2108
GlyphClass: 2
Flags: W
AnchorPoint: "Anchor-3" 1020 -630 basechar 0
AnchorPoint: "Anchor-2" 945 1740 basechar 0
LayerCount: 2
Fore
SplineSet
2108 1290 m 1,0,-1
 1084 1290 l 1,1,-1
 1084 1434 l 1,2,-1
 2108 1434 l 1,3,-1
 2108 1290 l 1,0,-1
2191 942 m 1,4,-1
 1290 942 l 1,5,-1
 1290 778 l 1,6,-1
 1904 778 l 2,7,8
 1994 778 1994 778 2051 721 c 128,-1,9
 2108 664 2108 664 2108 574 c 2,10,-1
 2108 205 l 2,11,12
 2108 119 2108 119 2049 60 c 128,-1,13
 1990 1 1990 1 1904 1 c 2,14,-1
 389 1 l 2,15,16
 303 1 303 1 243.5 60 c 128,-1,17
 184 119 184 119 184 205 c 2,18,-1
 184 614 l 1,19,-1
 594 614 l 1,20,-1
 594 287 l 1,21,-1
 1699 287 l 1,22,-1
 1699 492 l 1,23,-1
 880 492 l 1,24,-1
 880 984 l 2,25,26
 880 1070 880 1070 939 1129 c 128,-1,27
 998 1188 998 1188 1084 1188 c 2,28,-1
 2191 1188 l 1,29,-1
 2191 942 l 1,4,-1
EndSplineSet
Substitution2: "'medi' Medial Forms in Arabic lookup 3 subtable" afii62966
Substitution2: "'fina' Terminal Forms in Arabic lookup 2 subtable" afii62967
Substitution2: "'init' Initial Forms in Arabic lookup 1 subtable" afii62965
EndChar

StartChar: afii62967
Encoding: 64403 64403 137
Width: 2108
GlyphClass: 2
Flags: W
AnchorPoint: "Anchor-3" 1050 -600 basechar 0
AnchorPoint: "Anchor-2" 645 1515 basechar 0
LayerCount: 2
Fore
SplineSet
2108 1290 m 1,0,-1
 1084 1290 l 1,1,-1
 1084 1434 l 1,2,-1
 2108 1434 l 1,3,-1
 2108 1290 l 1,0,-1
2140 1 m 1,4,-1
 2108 1 l 1,5,-1
 2108 287 l 1,6,-1
 2140 287 l 1,7,-1
 2140 1 l 1,4,-1
2191 942 m 1,8,-1
 1290 942 l 1,9,-1
 1290 778 l 1,10,-1
 1904 778 l 2,11,12
 1994 778 1994 778 2051 721 c 128,-1,13
 2108 664 2108 664 2108 574 c 2,14,-1
 2108 205 l 2,15,16
 2108 119 2108 119 2049 60 c 128,-1,17
 1990 1 1990 1 1904 1 c 2,18,-1
 389 1 l 2,19,20
 303 1 303 1 243.5 60 c 128,-1,21
 184 119 184 119 184 205 c 2,22,-1
 184 614 l 1,23,-1
 594 614 l 1,24,-1
 594 287 l 1,25,-1
 1699 287 l 1,26,-1
 1699 492 l 1,27,-1
 880 492 l 1,28,-1
 880 984 l 2,29,30
 880 1070 880 1070 939 1129 c 128,-1,31
 998 1188 998 1188 1084 1188 c 2,32,-1
 2191 1188 l 1,33,-1
 2191 942 l 1,8,-1
EndSplineSet
EndChar

StartChar: afii62965
Encoding: 64404 64404 138
Width: 1433
GlyphClass: 2
Flags: W
AnchorPoint: "Anchor-3" 540 -570 basechar 0
AnchorPoint: "Anchor-2" 750 1665 basechar 0
LayerCount: 2
Fore
SplineSet
1433 1290 m 1,0,-1
 409 1290 l 1,1,-1
 409 1434 l 1,2,-1
 1433 1434 l 1,3,-1
 1433 1290 l 1,0,-1
1516 942 m 1,4,-1
 614 942 l 1,5,-1
 614 778 l 1,6,-1
 1228 778 l 2,7,8
 1318 778 1318 778 1375.5 720.5 c 128,-1,9
 1433 663 1433 663 1433 574 c 2,10,-1
 1433 204 l 2,11,12
 1433 118 1433 118 1373.5 59 c 128,-1,13
 1314 0 1314 0 1228 0 c 2,14,-1
 -31 0 l 1,15,-1
 -31 287 l 1,16,-1
 1023 287 l 1,17,-1
 1023 492 l 1,18,-1
 204 492 l 1,19,-1
 204 984 l 2,20,21
 204 1070 204 1070 263.5 1129 c 128,-1,22
 323 1188 323 1188 409 1188 c 2,23,-1
 1516 1188 l 1,24,-1
 1516 942 l 1,4,-1
EndSplineSet
EndChar

StartChar: afii62966
Encoding: 64405 64405 139
Width: 1433
GlyphClass: 2
Flags: W
AnchorPoint: "Anchor-3" 675 -510 basechar 0
AnchorPoint: "Anchor-2" 825 1650 basechar 0
LayerCount: 2
Fore
SplineSet
1433 1290 m 1,0,-1
 409 1290 l 1,1,-1
 409 1434 l 1,2,-1
 1433 1434 l 1,3,-1
 1433 1290 l 1,0,-1
1465 1 m 1,4,-1
 1433 1 l 1,5,-1
 1433 287 l 1,6,-1
 1465 287 l 1,7,-1
 1465 1 l 1,4,-1
1516 942 m 1,8,-1
 614 942 l 1,9,-1
 614 778 l 1,10,-1
 1228 778 l 2,11,12
 1318 778 1318 778 1375.5 720.5 c 128,-1,13
 1433 663 1433 663 1433 574 c 2,14,-1
 1433 204 l 2,15,16
 1433 118 1433 118 1373.5 59 c 128,-1,17
 1314 0 1314 0 1228 0 c 2,18,-1
 -31 0 l 1,19,-1
 -31 287 l 1,20,-1
 1023 287 l 1,21,-1
 1023 492 l 1,22,-1
 204 492 l 1,23,-1
 204 984 l 2,24,25
 204 1070 204 1070 263.5 1129 c 128,-1,26
 323 1188 323 1188 409 1188 c 2,27,-1
 1516 1188 l 1,28,-1
 1516 942 l 1,8,-1
EndSplineSet
EndChar

StartChar: afii57555
Encoding: 1740 1740 140
Width: 1618
GlyphClass: 2
Flags: W
AnchorPoint: "Anchor-3" 825 -870 basechar 0
AnchorPoint: "Anchor-2" 795 1020 basechar 0
LayerCount: 2
Fore
SplineSet
1618 -287 m 2,0,1
 1618 -374 1618 -374 1559 -433 c 128,-1,2
 1500 -492 1500 -492 1413 -492 c 2,3,-1
 389 -492 l 2,4,5
 302 -492 302 -492 243 -433 c 128,-1,6
 184 -374 184 -374 184 -287 c 2,7,-1
 184 492 l 1,8,-1
 594 492 l 1,9,-1
 594 -205 l 1,10,-1
 1208 -205 l 1,11,-1
 1208 1 l 1,12,-1
 799 1 l 1,13,-1
 799 573 l 2,14,15
 799 663 799 663 856.5 720.5 c 128,-1,16
 914 778 914 778 1004 778 c 2,17,-1
 1618 778 l 1,18,-1
 1618 492 l 1,19,-1
 1208 492 l 1,20,-1
 1208 287 l 1,21,-1
 1618 287 l 1,22,-1
 1618 -287 l 2,0,1
EndSplineSet
Substitution2: "'medi' Medial Forms in Arabic lookup 3 subtable" afii62832
Substitution2: "'fina' Terminal Forms in Arabic lookup 2 subtable" afii52364
Substitution2: "'init' Initial Forms in Arabic lookup 1 subtable" uniFBFE
EndChar

StartChar: afii52364
Encoding: 64509 64509 141
Width: 1618
GlyphClass: 2
Flags: W
AnchorPoint: "Anchor-3" 825 -945 basechar 0
AnchorPoint: "Anchor-2" 915 870 basechar 0
LayerCount: 2
Fore
SplineSet
1650 1 m 1,0,-1
 1618 1 l 1,1,-1
 1618 287 l 1,2,-1
 1650 287 l 1,3,-1
 1650 1 l 1,0,-1
1618 -287 m 2,4,5
 1618 -374 1618 -374 1559 -433 c 128,-1,6
 1500 -492 1500 -492 1413 -492 c 2,7,-1
 389 -492 l 2,8,9
 302 -492 302 -492 243 -433 c 128,-1,10
 184 -374 184 -374 184 -287 c 2,11,-1
 184 492 l 1,12,-1
 594 492 l 1,13,-1
 594 -205 l 1,14,-1
 1208 -205 l 1,15,-1
 1208 1 l 1,16,-1
 799 1 l 1,17,-1
 799 287 l 1,18,-1
 1618 287 l 1,19,-1
 1618 -287 l 2,4,5
EndSplineSet
EndChar

StartChar: afii62945
Encoding: 65557 -1 147
Width: 2437
GlyphClass: 3
Flags: W
LayerCount: 2
Fore
SplineSet
2437 206 m 2,0,1
 2437 118 2437 118 2378.5 59.5 c 128,-1,2
 2320 1 2320 1 2232 1 c 2,3,-1
 1823 1 l 1,4,-1
 1823 208 l 2,5,6
 1823 119 1823 119 1764.5 60 c 128,-1,7
 1706 1 1706 1 1618 1 c 2,8,-1
 1005 1 l 2,9,10
 914 1 914 1 856.5 56.5 c 128,-1,11
 799 112 799 112 799 202 c 2,12,-1
 799 943 l 1,13,-1
 594 943 l 1,14,-1
 594 607 l 1,15,-1
 717 607 l 1,16,-1
 717 321 l 1,17,-1
 389 321 l 2,18,19
 299 321 299 321 241.5 378.5 c 128,-1,20
 184 436 184 436 184 525 c 2,21,-1
 184 1028 l 2,22,23
 184 1118 184 1118 241.5 1173.5 c 128,-1,24
 299 1229 299 1229 390 1229 c 2,25,-1
 1004 1229 l 2,26,27
 1096 1229 1096 1229 1152 1171.5 c 128,-1,28
 1208 1114 1208 1114 1208 1021 c 2,29,-1
 1208 287 l 1,30,-1
 1413 287 l 1,31,-1
 1413 1229 l 1,32,-1
 1823 1229 l 1,33,-1
 1823 287 l 1,34,-1
 2028 287 l 1,35,-1
 2028 1229 l 1,36,-1
 2437 1229 l 1,37,-1
 2437 206 l 2,0,1
EndSplineSet
EndChar

StartChar: afii64184
Encoding: 65010 65010 148
Width: 2437
GlyphClass: 3
Flags: W
AnchorPoint: "Anchor-1" 2145 -480 baselig 0
AnchorPoint: "Anchor-0" 2250 1380 baselig 0
AnchorPoint: "Anchor-1" 1455 -540 baselig 1
AnchorPoint: "Anchor-0" 1605 1335 baselig 1
AnchorPoint: "Anchor-1" 495 -510 baselig 2
AnchorPoint: "Anchor-0" 570 1500 baselig 2
LayerCount: 2
Fore
SplineSet
2437 206 m 2,0,1
 2437 118 2437 118 2378.5 59.5 c 128,-1,2
 2320 1 2320 1 2232 1 c 2,3,-1
 1823 1 l 1,4,-1
 1823 208 l 2,5,6
 1823 119 1823 119 1764.5 60 c 128,-1,7
 1706 1 1706 1 1618 1 c 2,8,-1
 1005 1 l 2,9,10
 914 1 914 1 856.5 56.5 c 128,-1,11
 799 112 799 112 799 202 c 2,12,-1
 799 943 l 1,13,-1
 594 943 l 1,14,-1
 594 607 l 1,15,-1
 717 607 l 1,16,-1
 717 321 l 1,17,-1
 389 321 l 2,18,19
 299 321 299 321 241.5 378.5 c 128,-1,20
 184 436 184 436 184 525 c 2,21,-1
 184 1028 l 2,22,23
 184 1118 184 1118 241.5 1173.5 c 128,-1,24
 299 1229 299 1229 390 1229 c 2,25,-1
 1004 1229 l 2,26,27
 1096 1229 1096 1229 1152 1171.5 c 128,-1,28
 1208 1114 1208 1114 1208 1021 c 2,29,-1
 1208 287 l 1,30,-1
 1413 287 l 1,31,-1
 1413 1229 l 1,32,-1
 1823 1229 l 1,33,-1
 1823 287 l 1,34,-1
 2028 287 l 1,35,-1
 2028 1229 l 1,36,-1
 2437 1229 l 1,37,-1
 2437 206 l 2,0,1
1565 2026 m 1,38,-1
 1676 2026 l 1,39,-1
 1676 1683 l 1,40,-1
 1565 1683 l 1,41,-1
 1565 2026 l 1,38,-1
1850 1390 m 2,42,43
 1850 1329 1850 1329 1788 1329 c 2,44,-1
 1438 1329 l 2,45,46
 1376 1329 1376 1329 1376 1390 c 2,47,-1
 1376 1615 l 1,48,-1
 1479 1615 l 1,49,-1
 1479 1452 l 1,50,-1
 1561 1452 l 1,51,-1
 1561 1615 l 1,52,-1
 1665 1615 l 1,53,-1
 1665 1452 l 1,54,-1
 1747 1452 l 1,55,-1
 1747 1615 l 1,56,-1
 1850 1615 l 1,57,-1
 1850 1390 l 2,42,43
EndSplineSet
Ligature2: "'rlig' Required Ligatures in Arabic lookup 5 subtable" afii62817 afii62818 uniFC63 afii62828
Ligature2: "'rlig' Required Ligatures in Arabic lookup 5 subtable" afii62817 afii62818 afii57457 uni0670 afii62828
EndChar

StartChar: afii57415.001
Encoding: 1575 1575 162
Width: 594
GlyphClass: 2
Flags: W
AnchorPoint: "Anchor-3" 360 -480 basechar 0
AnchorPoint: "Anchor-2" 390 1725 basechar 0
LayerCount: 2
Fore
SplineSet
594 1 m 1,0,-1
 389 1 l 2,1,2
 303 1 303 1 243.5 60 c 128,-1,3
 184 119 184 119 184 205 c 2,4,-1
 184 1555 l 1,5,-1
 594 1555 l 1,6,-1
 594 1 l 1,0,-1
EndSplineSet
Substitution2: "'fina' Terminal Forms in Arabic lookup 2 subtable" afii62760
EndChar

StartChar: afii62760.001
Encoding: 65558 -1 163
Width: 594
GlyphClass: 2
Flags: W
LayerCount: 2
Fore
SplineSet
594 1 m 1,0,-1
 389 1 l 2,1,2
 303 1 303 1 243.5 60 c 128,-1,3
 184 119 184 119 184 205 c 2,4,-1
 184 1555 l 1,5,-1
 594 1555 l 1,6,-1
 594 1 l 1,0,-1
626 1 m 1,7,-1
 594 1 l 1,8,-1
 594 287 l 1,9,-1
 626 287 l 1,10,-1
 626 1 l 1,7,-1
EndSplineSet
EndChar

StartChar: afii57421
Encoding: 1581 1581 182
Width: 1536
GlyphClass: 2
Flags: W
AnchorPoint: "Anchor-3" 915 -975 basechar 0
AnchorPoint: "Anchor-2" 945 1110 basechar 0
LayerCount: 2
Fore
SplineSet
1536 1 m 1,0,-1
 594 1 l 1,1,-1
 594 -246 l 2,2,3
 594 -326 594 -326 656.5 -388.5 c 128,-1,4
 719 -451 719 -451 799 -451 c 1,5,-1
 799 -492 l 1,6,-1
 389 -492 l 2,7,8
 302 -492 302 -492 243 -433 c 128,-1,9
 184 -374 184 -374 184 -287 c 2,10,-1
 184 82 l 2,11,12
 184 175 184 175 240 231 c 128,-1,13
 296 287 296 287 389 287 c 2,14,-1
 1004 287 l 1,15,-1
 1004 492 l 1,16,-1
 512 492 l 1,17,-1
 512 778 l 1,18,-1
 1208 778 l 2,19,20
 1298 778 1298 778 1355.5 721 c 128,-1,21
 1413 664 1413 664 1413 574 c 2,22,-1
 1413 287 l 1,23,-1
 1536 287 l 1,24,-1
 1536 1 l 1,0,-1
EndSplineSet
Substitution2: "'medi' Medial Forms in Arabic lookup 3 subtable" afii62775
Substitution2: "'fina' Terminal Forms in Arabic lookup 2 subtable" afii62776
Substitution2: "'init' Initial Forms in Arabic lookup 1 subtable" afii62774
EndChar

StartChar: afii62776
Encoding: 65186 65186 183
Width: 1536
GlyphClass: 2
Flags: W
AnchorPoint: "Anchor-3" 930 -900 basechar 0
AnchorPoint: "Anchor-2" 885 1110 basechar 0
LayerCount: 2
Fore
SplineSet
1567 1 m 1,0,-1
 594 1 l 1,1,-1
 594 -246 l 2,2,3
 594 -326 594 -326 656.5 -388.5 c 128,-1,4
 719 -451 719 -451 799 -451 c 1,5,-1
 799 -492 l 1,6,-1
 389 -492 l 2,7,8
 302 -492 302 -492 243 -433 c 128,-1,9
 184 -374 184 -374 184 -287 c 2,10,-1
 184 82 l 2,11,12
 184 175 184 175 240 231 c 128,-1,13
 296 287 296 287 389 287 c 2,14,-1
 1004 287 l 1,15,-1
 1004 492 l 1,16,-1
 512 492 l 1,17,-1
 512 778 l 1,18,-1
 1208 778 l 2,19,20
 1298 778 1298 778 1355.5 721 c 128,-1,21
 1413 664 1413 664 1413 574 c 2,22,-1
 1413 287 l 1,23,-1
 1567 287 l 1,24,-1
 1567 1 l 1,0,-1
EndSplineSet
EndChar

StartChar: afii62774
Encoding: 65187 65187 184
Width: 1229
GlyphClass: 2
Flags: W
AnchorPoint: "Anchor-3" 585 -540 basechar 0
AnchorPoint: "Anchor-2" 525 1095 basechar 0
LayerCount: 2
Fore
SplineSet
1229 1 m 1,0,-1
 -31 1 l 1,1,-1
 -31 287 l 1,2,-1
 696 287 l 1,3,-1
 696 492 l 1,4,-1
 205 492 l 1,5,-1
 205 778 l 1,6,-1
 901 778 l 2,7,8
 991 778 991 778 1048.5 721 c 128,-1,9
 1106 664 1106 664 1106 574 c 2,10,-1
 1106 287 l 1,11,-1
 1229 287 l 1,12,-1
 1229 1 l 1,0,-1
EndSplineSet
EndChar

StartChar: afii62775
Encoding: 65188 65188 185
Width: 1229
GlyphClass: 2
Flags: W
AnchorPoint: "Anchor-3" 480 -690 basechar 0
AnchorPoint: "Anchor-2" 615 1110 basechar 0
LayerCount: 2
Fore
SplineSet
1260 1 m 1,0,-1
 -31 1 l 1,1,-1
 -31 287 l 1,2,-1
 696 287 l 1,3,-1
 696 492 l 1,4,-1
 205 492 l 1,5,-1
 205 778 l 1,6,-1
 901 778 l 2,7,8
 991 778 991 778 1048.5 721 c 128,-1,9
 1106 664 1106 664 1106 574 c 2,10,-1
 1106 287 l 1,11,-1
 1260 287 l 1,12,-1
 1260 1 l 1,0,-1
EndSplineSet
EndChar

StartChar: afii57423
Encoding: 1583 1583 190
Width: 1136
GlyphClass: 2
Flags: W
AnchorPoint: "Anchor-3" 585 -495 basechar 0
AnchorPoint: "Anchor-2" 630 1095 basechar 0
LayerCount: 2
Fore
SplineSet
1134 206 m 2,0,1
 1134 133 1134 133 1083 72 c 0,2,3
 1023 1 1023 1 929 1 c 2,4,-1
 184 1 l 1,5,-1
 184 287 l 1,6,-1
 724 287 l 1,7,-1
 724 492 l 1,8,-1
 307 492 l 1,9,-1
 307 778 l 1,10,-1
 929 778 l 2,11,12
 1019 778 1019 778 1076.5 721 c 128,-1,13
 1134 664 1134 664 1134 574 c 2,14,-1
 1134 206 l 2,0,1
EndSplineSet
Substitution2: "'fina' Terminal Forms in Arabic lookup 2 subtable" afii62780
EndChar

StartChar: afii62780
Encoding: 65194 65194 191
Width: 1136
GlyphClass: 2
Flags: W
AnchorPoint: "Anchor-3" 570 -525 basechar 0
AnchorPoint: "Anchor-2" 645 1125 basechar 0
LayerCount: 2
Fore
SplineSet
1165 1 m 1,0,-1
 1134 1 l 1,1,-1
 1134 287 l 1,2,-1
 1165 287 l 1,3,-1
 1165 1 l 1,0,-1
1134 206 m 2,4,5
 1134 133 1134 133 1083 72 c 0,6,7
 1023 1 1023 1 929 1 c 2,8,-1
 184 1 l 1,9,-1
 184 287 l 1,10,-1
 724 287 l 1,11,-1
 724 492 l 1,12,-1
 307 492 l 1,13,-1
 307 778 l 1,14,-1
 929 778 l 2,15,16
 1019 778 1019 778 1076.5 721 c 128,-1,17
 1134 664 1134 664 1134 574 c 2,18,-1
 1134 206 l 2,4,5
EndSplineSet
EndChar

StartChar: afii57425
Encoding: 1585 1585 194
Width: 799
GlyphClass: 2
Flags: W
AnchorPoint: "Anchor-3" 465 -930 basechar 0
AnchorPoint: "Anchor-2" 540 1095 basechar 0
LayerCount: 2
Fore
SplineSet
799 -287 m 2,0,1
 799 -374 799 -374 740 -433 c 128,-1,2
 681 -492 681 -492 594 -492 c 2,3,-1
 184 -492 l 1,4,-1
 184 -205 l 1,5,-1
 389 -205 l 1,6,-1
 389 778 l 1,7,-1
 799 778 l 1,8,-1
 799 -287 l 2,0,1
EndSplineSet
Substitution2: "'fina' Terminal Forms in Arabic lookup 2 subtable" afii62782
EndChar

StartChar: afii62782
Encoding: 65198 65198 195
Width: 799
GlyphClass: 2
Flags: W
AnchorPoint: "Anchor-3" 525 -1020 basechar 0
AnchorPoint: "Anchor-2" 510 1110 basechar 0
LayerCount: 2
Fore
SplineSet
830 1 m 1,0,-1
 799 1 l 1,1,-1
 799 287 l 1,2,-1
 830 287 l 1,3,-1
 830 1 l 1,0,-1
799 -287 m 2,4,5
 799 -374 799 -374 740 -433 c 128,-1,6
 681 -492 681 -492 594 -492 c 2,7,-1
 184 -492 l 1,8,-1
 184 -205 l 1,9,-1
 389 -205 l 1,10,-1
 389 778 l 1,11,-1
 799 778 l 1,12,-1
 799 -287 l 2,4,5
EndSplineSet
EndChar

StartChar: afii57427
Encoding: 1587 1587 198
Width: 2724
GlyphClass: 2
Flags: W
AnchorPoint: "Anchor-3" 1455 -945 basechar 0
AnchorPoint: "Anchor-2" 1860 1245 basechar 0
LayerCount: 2
Fore
SplineSet
2724 206 m 2,0,1
 2724 114 2724 114 2667.5 57.5 c 128,-1,2
 2611 1 2611 1 2519 1 c 2,3,-1
 1495 1 l 1,4,-1
 1495 -287 l 2,5,6
 1495 -374 1495 -374 1436 -433 c 128,-1,7
 1377 -492 1377 -492 1290 -492 c 2,8,-1
 389 -492 l 2,9,10
 302 -492 302 -492 243 -433 c 128,-1,11
 184 -374 184 -374 184 -287 c 2,12,-1
 184 614 l 1,13,-1
 594 614 l 1,14,-1
 594 -205 l 1,15,-1
 1085 -205 l 1,16,-1
 1085 778 l 1,17,-1
 1495 778 l 1,18,-1
 1495 287 l 1,19,-1
 1700 287 l 1,20,-1
 1700 778 l 1,21,-1
 2109 778 l 1,22,-1
 2109 287 l 1,23,-1
 2314 287 l 1,24,-1
 2314 778 l 1,25,-1
 2724 778 l 1,26,-1
 2724 206 l 2,0,1
EndSplineSet
Substitution2: "'medi' Medial Forms in Arabic lookup 3 subtable" afii62785
Substitution2: "'fina' Terminal Forms in Arabic lookup 2 subtable" afii62786
Substitution2: "'init' Initial Forms in Arabic lookup 1 subtable" afii62784
EndChar

StartChar: afii62786
Encoding: 65202 65202 199
Width: 2724
GlyphClass: 2
Flags: W
AnchorPoint: "Anchor-3" 1365 -975 basechar 0
AnchorPoint: "Anchor-2" 1665 1230 basechar 0
LayerCount: 2
Fore
SplineSet
2756 1 m 1,0,-1
 2724 1 l 1,1,-1
 2724 287 l 1,2,-1
 2756 287 l 1,3,-1
 2756 1 l 1,0,-1
2724 206 m 2,4,5
 2724 114 2724 114 2667.5 57.5 c 128,-1,6
 2611 1 2611 1 2519 1 c 2,7,-1
 1495 1 l 1,8,-1
 1495 -287 l 2,9,10
 1495 -374 1495 -374 1436 -433 c 128,-1,11
 1377 -492 1377 -492 1290 -492 c 2,12,-1
 389 -492 l 2,13,14
 302 -492 302 -492 243 -433 c 128,-1,15
 184 -374 184 -374 184 -287 c 2,16,-1
 184 614 l 1,17,-1
 594 614 l 1,18,-1
 594 -205 l 1,19,-1
 1085 -205 l 1,20,-1
 1085 778 l 1,21,-1
 1495 778 l 1,22,-1
 1495 287 l 1,23,-1
 1700 287 l 1,24,-1
 1700 778 l 1,25,-1
 2109 778 l 1,26,-1
 2109 287 l 1,27,-1
 2314 287 l 1,28,-1
 2314 778 l 1,29,-1
 2724 778 l 1,30,-1
 2724 206 l 2,4,5
EndSplineSet
EndChar

StartChar: afii62784
Encoding: 65203 65203 200
Width: 1843
GlyphClass: 2
Flags: W
AnchorPoint: "Anchor-3" 870 -600 basechar 0
AnchorPoint: "Anchor-2" 1050 1275 basechar 0
LayerCount: 2
Fore
SplineSet
1843 206 m 2,0,1
 1843 133 1843 133 1792 72 c 0,2,3
 1732 1 1732 1 1638 1 c 2,4,-1
 -31 1 l 1,5,-1
 -31 287 l 1,6,-1
 205 287 l 1,7,-1
 205 778 l 1,8,-1
 614 778 l 1,9,-1
 614 287 l 1,10,-1
 819 287 l 1,11,-1
 819 778 l 1,12,-1
 1229 778 l 1,13,-1
 1229 287 l 1,14,-1
 1434 287 l 1,15,-1
 1434 778 l 1,16,-1
 1843 778 l 1,17,-1
 1843 206 l 2,0,1
EndSplineSet
EndChar

StartChar: afii62785
Encoding: 65204 65204 201
Width: 1843
GlyphClass: 2
Flags: W
AnchorPoint: "Anchor-3" 885 -615 basechar 0
AnchorPoint: "Anchor-2" 1050 1290 basechar 0
LayerCount: 2
Fore
SplineSet
1875 1 m 1,0,-1
 1843 1 l 1,1,-1
 1843 287 l 1,2,-1
 1875 287 l 1,3,-1
 1875 1 l 1,0,-1
1843 206 m 2,4,5
 1843 133 1843 133 1792 72 c 0,6,7
 1732 1 1732 1 1638 1 c 2,8,-1
 -31 1 l 1,9,-1
 -31 287 l 1,10,-1
 205 287 l 1,11,-1
 205 778 l 1,12,-1
 614 778 l 1,13,-1
 614 287 l 1,14,-1
 819 287 l 1,15,-1
 819 778 l 1,16,-1
 1229 778 l 1,17,-1
 1229 287 l 1,18,-1
 1434 287 l 1,19,-1
 1434 778 l 1,20,-1
 1843 778 l 1,21,-1
 1843 206 l 2,4,5
EndSplineSet
EndChar

StartChar: afii57429
Encoding: 1589 1589 206
Width: 2847
GlyphClass: 2
Flags: W
AnchorPoint: "Anchor-3" 1680 -900 basechar 0
AnchorPoint: "Anchor-2" 1695 1155 basechar 0
LayerCount: 2
Fore
SplineSet
2847 206 m 2,0,1
 2847 115 2847 115 2790 58 c 128,-1,2
 2733 1 2733 1 2642 1 c 2,3,-1
 1495 1 l 1,4,-1
 1495 -287 l 2,5,6
 1495 -374 1495 -374 1436 -433 c 128,-1,7
 1377 -492 1377 -492 1290 -492 c 2,8,-1
 389 -492 l 2,9,10
 302 -492 302 -492 243 -433 c 128,-1,11
 184 -374 184 -374 184 -287 c 2,12,-1
 184 614 l 1,13,-1
 594 614 l 1,14,-1
 594 -205 l 1,15,-1
 1085 -205 l 1,16,-1
 1085 778 l 1,17,-1
 1495 778 l 1,18,-1
 1495 287 l 1,19,-1
 1777 639 l 2,20,21
 1888 778 1888 778 2056 778 c 2,22,-1
 2642 778 l 2,23,24
 2732 778 2732 778 2789.5 721 c 128,-1,25
 2847 664 2847 664 2847 574 c 2,26,-1
 2847 206 l 2,0,1
2437 287 m 1,27,-1
 2437 492 l 1,28,-1
 2109 492 l 1,29,-1
 1946 287 l 1,30,-1
 2437 287 l 1,27,-1
EndSplineSet
Substitution2: "'medi' Medial Forms in Arabic lookup 3 subtable" afii62791
Substitution2: "'fina' Terminal Forms in Arabic lookup 2 subtable" afii62792
Substitution2: "'init' Initial Forms in Arabic lookup 1 subtable" afii62790
EndChar

StartChar: afii62792
Encoding: 65210 65210 207
Width: 2847
GlyphClass: 2
Flags: W
AnchorPoint: "Anchor-3" 1680 -840 basechar 0
AnchorPoint: "Anchor-2" 1665 1230 basechar 0
LayerCount: 2
Fore
SplineSet
2878 1 m 1,0,-1
 2847 1 l 1,1,-1
 2847 287 l 1,2,-1
 2878 287 l 1,3,-1
 2878 1 l 1,0,-1
2847 206 m 2,4,5
 2847 115 2847 115 2790 58 c 128,-1,6
 2733 1 2733 1 2642 1 c 2,7,-1
 1495 1 l 1,8,-1
 1495 -287 l 2,9,10
 1495 -374 1495 -374 1436 -433 c 128,-1,11
 1377 -492 1377 -492 1290 -492 c 2,12,-1
 389 -492 l 2,13,14
 302 -492 302 -492 243 -433 c 128,-1,15
 184 -374 184 -374 184 -287 c 2,16,-1
 184 614 l 1,17,-1
 594 614 l 1,18,-1
 594 -205 l 1,19,-1
 1085 -205 l 1,20,-1
 1085 778 l 1,21,-1
 1495 778 l 1,22,-1
 1495 287 l 1,23,-1
 1777 639 l 2,24,25
 1888 778 1888 778 2056 778 c 2,26,-1
 2642 778 l 2,27,28
 2732 778 2732 778 2789.5 721 c 128,-1,29
 2847 664 2847 664 2847 574 c 2,30,-1
 2847 206 l 2,4,5
2437 287 m 1,31,-1
 2437 492 l 1,32,-1
 2109 492 l 1,33,-1
 1946 287 l 1,34,-1
 2437 287 l 1,31,-1
EndSplineSet
EndChar

StartChar: afii62790
Encoding: 65211 65211 208
Width: 1966
GlyphClass: 2
Flags: W
AnchorPoint: "Anchor-3" 810 -570 basechar 0
AnchorPoint: "Anchor-2" 1005 1275 basechar 0
LayerCount: 2
Fore
SplineSet
1966 206 m 2,0,1
 1966 118 1966 118 1907.5 59.5 c 128,-1,2
 1849 1 1849 1 1761 1 c 2,3,-1
 -31 1 l 1,4,-1
 -31 287 l 1,5,-1
 205 287 l 1,6,-1
 205 778 l 1,7,-1
 614 778 l 1,8,-1
 614 287 l 1,9,-1
 896 639 l 2,10,11
 1007 778 1007 778 1176 778 c 2,12,-1
 1761 778 l 2,13,14
 1851 778 1851 778 1908.5 721 c 128,-1,15
 1966 664 1966 664 1966 574 c 2,16,-1
 1966 206 l 2,0,1
1556 287 m 1,17,-1
 1556 492 l 1,18,-1
 1229 492 l 1,19,-1
 1065 287 l 1,20,-1
 1556 287 l 1,17,-1
EndSplineSet
EndChar

StartChar: afii62791
Encoding: 65212 65212 209
Width: 1966
GlyphClass: 2
Flags: W
AnchorPoint: "Anchor-3" 915 -690 basechar 0
AnchorPoint: "Anchor-2" 930 1155 basechar 0
LayerCount: 2
Fore
SplineSet
1998 1 m 1,0,-1
 1966 1 l 1,1,-1
 1966 287 l 1,2,-1
 1998 287 l 1,3,-1
 1998 1 l 1,0,-1
1966 206 m 2,4,5
 1966 118 1966 118 1907.5 59.5 c 128,-1,6
 1849 1 1849 1 1761 1 c 2,7,-1
 -31 1 l 1,8,-1
 -31 287 l 1,9,-1
 205 287 l 1,10,-1
 205 778 l 1,11,-1
 614 778 l 1,12,-1
 614 287 l 1,13,-1
 896 639 l 2,14,15
 1007 778 1007 778 1176 778 c 2,16,-1
 1761 778 l 2,17,18
 1851 778 1851 778 1908.5 721 c 128,-1,19
 1966 664 1966 664 1966 574 c 2,20,-1
 1966 206 l 2,4,5
1556 287 m 1,21,-1
 1556 492 l 1,22,-1
 1229 492 l 1,23,-1
 1065 287 l 1,24,-1
 1556 287 l 1,21,-1
EndSplineSet
EndChar

StartChar: afii57431
Encoding: 1591 1591 214
Width: 1802
GlyphClass: 2
Flags: W
AnchorPoint: "Anchor-3" 870 -525 basechar 0
AnchorPoint: "Anchor-2" 1155 1725 basechar 0
LayerCount: 2
Fore
SplineSet
1802 206 m 2,0,1
 1802 117 1802 117 1744 59 c 128,-1,2
 1686 1 1686 1 1598 1 c 2,3,-1
 183 1 l 1,4,-1
 183 287 l 1,5,-1
 449 287 l 1,6,-1
 730 639 l 2,7,8
 841 778 841 778 933 778 c 1,9,-1
 933 1556 l 1,10,-1
 1343 1556 l 1,11,-1
 1343 982 l 2,12,13
 1343 893 1343 893 1285.5 835.5 c 128,-1,14
 1228 778 1228 778 1139 778 c 2,15,-1
 1598 778 l 2,16,17
 1688 778 1688 778 1745 721 c 128,-1,18
 1802 664 1802 664 1802 574 c 2,19,-1
 1802 206 l 2,0,1
1393 287 m 1,20,-1
 1393 492 l 1,21,-1
 1063 492 l 1,22,-1
 899 287 l 1,23,-1
 1393 287 l 1,20,-1
EndSplineSet
Substitution2: "'medi' Medial Forms in Arabic lookup 3 subtable" afii62797
Substitution2: "'fina' Terminal Forms in Arabic lookup 2 subtable" afii62798
Substitution2: "'init' Initial Forms in Arabic lookup 1 subtable" afii62796
EndChar

StartChar: afii62798
Encoding: 65218 65218 215
Width: 1802
GlyphClass: 2
Flags: W
AnchorPoint: "Anchor-3" 855 -480 basechar 0
AnchorPoint: "Anchor-2" 1095 1770 basechar 0
LayerCount: 2
Fore
SplineSet
1834 1 m 1,0,-1
 1802 1 l 1,1,-1
 1802 287 l 1,2,-1
 1834 287 l 1,3,-1
 1834 1 l 1,0,-1
1802 206 m 2,4,5
 1802 117 1802 117 1744 59 c 128,-1,6
 1686 1 1686 1 1598 1 c 2,7,-1
 183 1 l 1,8,-1
 183 287 l 1,9,-1
 449 287 l 1,10,-1
 730 639 l 2,11,12
 841 778 841 778 933 778 c 1,13,-1
 933 1556 l 1,14,-1
 1343 1556 l 1,15,-1
 1343 982 l 2,16,17
 1343 893 1343 893 1285.5 835.5 c 128,-1,18
 1228 778 1228 778 1139 778 c 2,19,-1
 1598 778 l 2,20,21
 1688 778 1688 778 1745 721 c 128,-1,22
 1802 664 1802 664 1802 574 c 2,23,-1
 1802 206 l 2,4,5
1393 287 m 1,24,-1
 1393 492 l 1,25,-1
 1063 492 l 1,26,-1
 899 287 l 1,27,-1
 1393 287 l 1,24,-1
EndSplineSet
EndChar

StartChar: afii62796
Encoding: 65219 65219 216
Width: 1560
GlyphClass: 2
Flags: W
AnchorPoint: "Anchor-3" 780 -660 basechar 0
AnchorPoint: "Anchor-2" 1140 1740 basechar 0
LayerCount: 2
Fore
SplineSet
1562 206 m 2,0,1
 1562 117 1562 117 1504 59 c 128,-1,2
 1446 1 1446 1 1358 1 c 2,3,-1
 -27 1 l 1,4,-1
 -27 287 l 1,5,-1
 209 287 l 1,6,-1
 490 639 l 2,7,8
 601 778 601 778 693 778 c 1,9,-1
 693 1556 l 1,10,-1
 1103 1556 l 1,11,-1
 1103 982 l 2,12,13
 1103 893 1103 893 1045.5 835.5 c 128,-1,14
 988 778 988 778 899 778 c 2,15,-1
 1358 778 l 2,16,17
 1448 778 1448 778 1505 721 c 128,-1,18
 1562 664 1562 664 1562 574 c 2,19,-1
 1562 206 l 2,0,1
1153 287 m 1,20,-1
 1153 492 l 1,21,-1
 823 492 l 1,22,-1
 659 287 l 1,23,-1
 1153 287 l 1,20,-1
EndSplineSet
EndChar

StartChar: afii62797
Encoding: 65220 65220 217
Width: 1564
GlyphClass: 2
Flags: W
AnchorPoint: "Anchor-3" 645 -600 basechar 0
AnchorPoint: "Anchor-2" 915 1785 basechar 0
LayerCount: 2
Fore
SplineSet
1594 1 m 1,0,-1
 1562 1 l 1,1,-1
 1562 287 l 1,2,-1
 1594 287 l 1,3,-1
 1594 1 l 1,0,-1
1562 206 m 2,4,5
 1562 117 1562 117 1504 59 c 128,-1,6
 1446 1 1446 1 1358 1 c 2,7,-1
 -27 1 l 1,8,-1
 -27 287 l 1,9,-1
 209 287 l 1,10,-1
 490 639 l 2,11,12
 601 778 601 778 693 778 c 1,13,-1
 693 1556 l 1,14,-1
 1103 1556 l 1,15,-1
 1103 982 l 2,16,17
 1103 893 1103 893 1045.5 835.5 c 128,-1,18
 988 778 988 778 899 778 c 2,19,-1
 1358 778 l 2,20,21
 1448 778 1448 778 1505 721 c 128,-1,22
 1562 664 1562 664 1562 574 c 2,23,-1
 1562 206 l 2,4,5
1153 287 m 1,24,-1
 1153 492 l 1,25,-1
 823 492 l 1,26,-1
 659 287 l 1,27,-1
 1153 287 l 1,24,-1
EndSplineSet
EndChar

StartChar: afii57433
Encoding: 1593 1593 222
Width: 1536
GlyphClass: 2
Flags: W
AnchorPoint: "Anchor-3" 930 -975 basechar 0
AnchorPoint: "Anchor-2" 1035 990 basechar 0
LayerCount: 2
Fore
SplineSet
1536 1 m 1,0,-1
 594 1 l 1,1,-1
 594 -246 l 2,2,3
 594 -326 594 -326 656.5 -388.5 c 128,-1,4
 719 -451 719 -451 799 -451 c 1,5,-1
 799 -492 l 1,6,-1
 389 -492 l 2,7,8
 302 -492 302 -492 243 -433 c 128,-1,9
 184 -374 184 -374 184 -287 c 2,10,-1
 184 82 l 2,11,12
 184 175 184 175 240 231 c 128,-1,13
 296 287 296 287 389 287 c 2,14,-1
 594 287 l 1,15,-1
 594 574 l 2,16,17
 594 663 594 663 652 720.5 c 128,-1,18
 710 778 710 778 799 778 c 2,19,-1
 1413 778 l 1,20,-1
 1413 492 l 1,21,-1
 1004 492 l 1,22,-1
 1004 287 l 1,23,-1
 1536 287 l 1,24,-1
 1536 1 l 1,0,-1
EndSplineSet
Substitution2: "'medi' Medial Forms in Arabic lookup 3 subtable" afii62803
Substitution2: "'fina' Terminal Forms in Arabic lookup 2 subtable" afii62804
Substitution2: "'init' Initial Forms in Arabic lookup 1 subtable" afii62802
EndChar

StartChar: afii62804
Encoding: 65226 65226 223
Width: 1536
GlyphClass: 2
Flags: W
AnchorPoint: "Anchor-3" 960 -855 basechar 0
AnchorPoint: "Anchor-2" 1080 1080 basechar 0
LayerCount: 2
Fore
SplineSet
1566 1 m 1,0,-1
 594 1 l 1,1,-1
 594 -246 l 2,2,3
 594 -326 594 -326 656.5 -388.5 c 128,-1,4
 719 -451 719 -451 799 -451 c 1,5,-1
 799 -492 l 1,6,-1
 389 -492 l 2,7,8
 302 -492 302 -492 243 -433 c 128,-1,9
 184 -374 184 -374 184 -287 c 2,10,-1
 184 82 l 2,11,12
 184 175 184 175 240 231 c 128,-1,13
 296 287 296 287 389 287 c 2,14,-1
 594 287 l 1,15,-1
 594 574 l 2,16,17
 594 663 594 663 652 720.5 c 128,-1,18
 710 778 710 778 799 778 c 2,19,-1
 1536 778 l 1,20,-1
 1536 492 l 1,21,-1
 1331 287 l 1,22,-1
 1566 287 l 1,23,-1
 1566 1 l 1,0,-1
1208 492 m 1,24,-1
 1004 492 l 1,25,-1
 1004 287 l 1,26,-1
 1208 492 l 1,24,-1
EndSplineSet
EndChar

StartChar: afii62802
Encoding: 65227 65227 224
Width: 1147
GlyphClass: 2
Flags: W
AnchorPoint: "Anchor-3" 510 -540 basechar 0
AnchorPoint: "Anchor-2" 660 1095 basechar 0
LayerCount: 2
Fore
SplineSet
1147 1 m 1,0,-1
 -31 1 l 1,1,-1
 -31 287 l 1,2,-1
 205 287 l 1,3,-1
 205 574 l 2,4,5
 205 663 205 663 263 720.5 c 128,-1,6
 321 778 321 778 410 778 c 2,7,-1
 1024 778 l 1,8,-1
 1024 492 l 1,9,-1
 614 492 l 1,10,-1
 614 287 l 1,11,-1
 1147 287 l 1,12,-1
 1147 1 l 1,0,-1
EndSplineSet
EndChar

StartChar: afii62803
Encoding: 65228 65228 225
Width: 1147
GlyphClass: 2
Flags: W
AnchorPoint: "Anchor-3" 510 -555 basechar 0
AnchorPoint: "Anchor-2" 630 1155 basechar 0
LayerCount: 2
Fore
SplineSet
1177 1 m 1,0,-1
 -31 1 l 1,1,-1
 -31 287 l 1,2,-1
 205 287 l 1,3,-1
 205 574 l 2,4,5
 205 663 205 663 263 720.5 c 128,-1,6
 321 778 321 778 410 778 c 2,7,-1
 1147 778 l 1,8,-1
 1147 492 l 1,9,-1
 942 287 l 1,10,-1
 1177 287 l 1,11,-1
 1177 1 l 1,0,-1
819 492 m 1,12,-1
 614 492 l 1,13,-1
 614 287 l 1,14,-1
 819 492 l 1,12,-1
EndSplineSet
EndChar

StartChar: afii57443
Encoding: 1603 1603 238
Width: 2108
GlyphClass: 2
Flags: W
AnchorPoint: "Anchor-3" 1020 -525 basechar 0
AnchorPoint: "Anchor-2" 1095 1545 basechar 0
LayerCount: 2
Fore
SplineSet
1675 287 m 1,0,-1
 1675 1556 l 1,1,-1
 2084 1556 l 1,2,-1
 2084 206 l 2,3,4
 2084 119 2084 119 2025.5 60 c 128,-1,5
 1967 1 1967 1 1880 1 c 2,6,-1
 1685 1 l 1,7,-1
 1685 0 l 1,8,-1
 389 0 l 2,9,10
 303 0 303 0 243 59 c 0,11,12
 184 118 184 118 184 204 c 2,13,-1
 184 614 l 1,14,-1
 594 614 l 1,15,-1
 594 287 l 1,16,-1
 1675 287 l 1,0,-1
1364 875 m 1,17,-1
 870 875 l 1,18,-1
 870 1013 l 1,19,-1
 948 1013 l 1,20,-1
 948 1149 l 2,21,22
 948 1247 948 1247 1046 1247 c 2,23,-1
 1305 1247 l 1,24,-1
 1305 1110 l 1,25,-1
 1145 1110 l 1,26,-1
 1145 1013 l 1,27,-1
 1364 1013 l 1,28,-1
 1364 875 l 1,17,-1
EndSplineSet
Substitution2: "'medi' Medial Forms in Arabic lookup 3 subtable" afii52306
Substitution2: "'fina' Terminal Forms in Arabic lookup 2 subtable" afii62816
Substitution2: "'init' Initial Forms in Arabic lookup 1 subtable" afii52305
EndChar

StartChar: afii62816
Encoding: 65242 65242 239
Width: 2102
GlyphClass: 2
Flags: W
AnchorPoint: "Anchor-3" 1125 -480 basechar 0
AnchorPoint: "Anchor-2" 1080 1590 basechar 0
LayerCount: 2
Fore
SplineSet
1693 287 m 1,0,-1
 1693 1556 l 1,1,-1
 2102 1556 l 1,2,-1
 2102 287 l 1,3,-1
 2134 287 l 1,4,-1
 2134 1 l 1,5,-1
 2102 1 l 1,6,-1
 2102 193 l 1,7,8
 2097 114 2097 114 2043 60 c 0,9,10
 1985 1 1985 1 1898 1 c 2,11,-1
 1660 1 l 1,12,-1
 1660 0 l 1,13,-1
 389 0 l 2,14,15
 303 0 303 0 243 59 c 0,16,17
 184 118 184 118 184 204 c 2,18,-1
 184 614 l 1,19,-1
 594 614 l 1,20,-1
 594 287 l 1,21,-1
 1693 287 l 1,0,-1
1392 884 m 1,22,-1
 898 884 l 1,23,-1
 898 1022 l 1,24,-1
 976 1022 l 1,25,-1
 976 1158 l 2,26,27
 976 1256 976 1256 1074 1256 c 2,28,-1
 1333 1256 l 1,29,-1
 1333 1119 l 1,30,-1
 1173 1119 l 1,31,-1
 1173 1022 l 1,32,-1
 1392 1022 l 1,33,-1
 1392 884 l 1,22,-1
EndSplineSet
EndChar

StartChar: afii57444
Encoding: 1604 1604 242
Width: 1495
GlyphClass: 2
Flags: W
AnchorPoint: "Anchor-3" 825 -1080 basechar 0
AnchorPoint: "Anchor-2" 1155 1830 basechar 0
LayerCount: 2
Fore
SplineSet
1495 -287 m 2,0,1
 1495 -374 1495 -374 1436 -433 c 128,-1,2
 1377 -492 1377 -492 1290 -492 c 2,3,-1
 389 -492 l 2,4,5
 302 -492 302 -492 243 -433 c 128,-1,6
 184 -374 184 -374 184 -287 c 2,7,-1
 184 614 l 1,8,-1
 594 614 l 1,9,-1
 594 -205 l 1,10,-1
 1085 -205 l 1,11,-1
 1085 1556 l 1,12,-1
 1495 1556 l 1,13,-1
 1495 -287 l 2,0,1
EndSplineSet
Substitution2: "'medi' Medial Forms in Arabic lookup 3 subtable" afii62818
Substitution2: "'fina' Terminal Forms in Arabic lookup 2 subtable" afii62819
Substitution2: "'init' Initial Forms in Arabic lookup 1 subtable" afii62817
EndChar

StartChar: afii62817
Encoding: 65247 65247 243
Width: 614
GlyphClass: 2
Flags: W
AnchorPoint: "Anchor-3" 285 -540 basechar 0
AnchorPoint: "Anchor-2" 390 1815 basechar 0
LayerCount: 2
Fore
SplineSet
614 206 m 2,0,1
 614 119 614 119 555.5 60 c 128,-1,2
 497 1 497 1 410 1 c 2,3,-1
 -31 1 l 1,4,-1
 -31 287 l 1,5,-1
 205 287 l 1,6,-1
 205 1556 l 1,7,-1
 614 1556 l 1,8,-1
 614 206 l 2,0,1
EndSplineSet
EndChar

StartChar: afii62818
Encoding: 65248 65248 244
Width: 614
GlyphClass: 2
Flags: W
AnchorPoint: "Anchor-3" 300 -540 basechar 0
AnchorPoint: "Anchor-2" 420 1815 basechar 0
LayerCount: 2
Fore
SplineSet
614 206 m 2,0,1
 614 119 614 119 555.5 60 c 128,-1,2
 497 1 497 1 410 1 c 2,3,-1
 -31 1 l 1,4,-1
 -31 287 l 1,5,-1
 205 287 l 1,6,-1
 205 1556 l 1,7,-1
 614 1556 l 1,8,-1
 614 206 l 2,0,1
646 1 m 1,9,-1
 614 1 l 1,10,-1
 614 287 l 1,11,-1
 646 287 l 1,12,-1
 646 1 l 1,9,-1
EndSplineSet
EndChar

StartChar: afii57445
Encoding: 1605 1605 245
Width: 1618
GlyphClass: 2
Flags: W
AnchorPoint: "Anchor-3" 840 -1020 basechar 0
AnchorPoint: "Anchor-2" 1065 1065 basechar 0
LayerCount: 2
Fore
SplineSet
1618 207 m 2,0,1
 1618 122 1618 122 1558 61.5 c 128,-1,2
 1498 1 1498 1 1413 1 c 2,3,-1
 594 1 l 1,4,-1
 594 -492 l 1,5,-1
 184 -492 l 1,6,-1
 184 82 l 2,7,8
 184 170 184 170 242.5 228.5 c 128,-1,9
 301 287 301 287 389 287 c 2,10,-1
 594 287 l 1,11,-1
 594 574 l 2,12,13
 594 663 594 663 652 720.5 c 128,-1,14
 710 778 710 778 799 778 c 2,15,-1
 1413 778 l 2,16,17
 1503 778 1503 778 1560.5 721 c 128,-1,18
 1618 664 1618 664 1618 574 c 2,19,-1
 1618 207 l 2,0,1
1208 287 m 1,20,-1
 1208 492 l 1,21,-1
 1004 492 l 1,22,-1
 1004 287 l 1,23,-1
 1208 287 l 1,20,-1
EndSplineSet
Substitution2: "'medi' Medial Forms in Arabic lookup 3 subtable" afii62821
Substitution2: "'fina' Terminal Forms in Arabic lookup 2 subtable" afii62822
Substitution2: "'init' Initial Forms in Arabic lookup 1 subtable" afii62820
EndChar

StartChar: afii62822
Encoding: 65250 65250 246
Width: 1618
GlyphClass: 2
Flags: W
AnchorPoint: "Anchor-3" 930 -855 basechar 0
AnchorPoint: "Anchor-2" 765 1005 basechar 0
LayerCount: 2
Fore
SplineSet
1650 1 m 1,0,-1
 1618 1 l 1,1,-1
 1618 287 l 1,2,-1
 1650 287 l 1,3,-1
 1650 1 l 1,0,-1
1618 207 m 2,4,5
 1618 122 1618 122 1558 61.5 c 128,-1,6
 1498 1 1498 1 1413 1 c 2,7,-1
 594 1 l 1,8,-1
 594 -492 l 1,9,-1
 184 -492 l 1,10,-1
 184 82 l 2,11,12
 184 170 184 170 242.5 228.5 c 128,-1,13
 301 287 301 287 389 287 c 2,14,-1
 594 287 l 1,15,-1
 594 574 l 2,16,17
 594 663 594 663 652 720.5 c 128,-1,18
 710 778 710 778 799 778 c 2,19,-1
 1413 778 l 2,20,21
 1503 778 1503 778 1560.5 721 c 128,-1,22
 1618 664 1618 664 1618 574 c 2,23,-1
 1618 207 l 2,4,5
1208 287 m 1,24,-1
 1208 492 l 1,25,-1
 1004 492 l 1,26,-1
 1004 287 l 1,27,-1
 1208 287 l 1,24,-1
EndSplineSet
EndChar

StartChar: afii62820
Encoding: 65251 65251 247
Width: 1229
GlyphClass: 2
Flags: W
AnchorPoint: "Anchor-3" 600 -525 basechar 0
AnchorPoint: "Anchor-2" 690 1140 basechar 0
LayerCount: 2
Fore
SplineSet
1229 207 m 2,0,1
 1229 122 1229 122 1169 61.5 c 128,-1,2
 1109 1 1109 1 1024 1 c 2,3,-1
 614 1 l 1,4,-1
 614 287 l 1,5,-1
 819 287 l 1,6,-1
 819 492 l 1,7,-1
 614 492 l 1,8,-1
 614 207 l 2,9,10
 614 119 614 119 555.5 60 c 128,-1,11
 497 1 497 1 410 1 c 2,12,-1
 -31 1 l 1,13,-1
 -31 287 l 1,14,-1
 205 287 l 1,15,-1
 205 574 l 2,16,17
 205 663 205 663 263 720.5 c 128,-1,18
 321 778 321 778 410 778 c 2,19,-1
 1024 778 l 2,20,21
 1114 778 1114 778 1171.5 721 c 128,-1,22
 1229 664 1229 664 1229 574 c 2,23,-1
 1229 207 l 2,0,1
EndSplineSet
EndChar

StartChar: afii57446
Encoding: 1606 1606 248
Width: 1495
GlyphClass: 2
Flags: W
AnchorPoint: "Anchor-3" 780 -1005 basechar 0
AnchorPoint: "Anchor-2" 825 1095 basechar 0
LayerCount: 2
Fore
SplineSet
1495 -287 m 2,0,1
 1495 -374 1495 -374 1436 -433 c 128,-1,2
 1377 -492 1377 -492 1290 -492 c 2,3,-1
 389 -492 l 2,4,5
 302 -492 302 -492 243 -433 c 128,-1,6
 184 -374 184 -374 184 -287 c 2,7,-1
 184 778 l 1,8,-1
 594 778 l 1,9,-1
 594 -205 l 1,10,-1
 1085 -205 l 1,11,-1
 1085 778 l 1,12,-1
 1495 778 l 1,13,-1
 1495 -287 l 2,0,1
998 613 m 256,14,15
 998 545 998 545 950 497 c 128,-1,16
 902 449 902 449 834 449 c 0,17,18
 767 449 767 449 718.5 497.5 c 128,-1,19
 670 546 670 546 670 613 c 0,20,21
 670 681 670 681 718 729 c 128,-1,22
 766 777 766 777 834 777 c 256,23,24
 902 777 902 777 950 729 c 128,-1,25
 998 681 998 681 998 613 c 256,14,15
EndSplineSet
Substitution2: "'medi' Medial Forms in Arabic lookup 3 subtable" afii62824
Substitution2: "'fina' Terminal Forms in Arabic lookup 2 subtable" afii62825
Substitution2: "'init' Initial Forms in Arabic lookup 1 subtable" afii62823
EndChar

StartChar: afii62825
Encoding: 65254 65254 249
Width: 1495
GlyphClass: 2
Flags: W
AnchorPoint: "Anchor-3" 810 -1080 basechar 0
AnchorPoint: "Anchor-2" 825 1140 basechar 0
LayerCount: 2
Fore
SplineSet
1527 1 m 1,0,-1
 1495 1 l 1,1,-1
 1495 287 l 1,2,-1
 1527 287 l 1,3,-1
 1527 1 l 1,0,-1
1495 -287 m 2,4,5
 1495 -374 1495 -374 1436 -433 c 128,-1,6
 1377 -492 1377 -492 1290 -492 c 2,7,-1
 389 -492 l 2,8,9
 302 -492 302 -492 243 -433 c 128,-1,10
 184 -374 184 -374 184 -287 c 2,11,-1
 184 778 l 1,12,-1
 594 778 l 1,13,-1
 594 -205 l 1,14,-1
 1085 -205 l 1,15,-1
 1085 778 l 1,16,-1
 1495 778 l 1,17,-1
 1495 -287 l 2,4,5
998 613 m 256,18,19
 998 545 998 545 950 497 c 128,-1,20
 902 449 902 449 834 449 c 0,21,22
 767 449 767 449 718.5 497.5 c 128,-1,23
 670 546 670 546 670 613 c 0,24,25
 670 681 670 681 718 729 c 128,-1,26
 766 777 766 777 834 777 c 256,27,28
 902 777 902 777 950 729 c 128,-1,29
 998 681 998 681 998 613 c 256,18,19
EndSplineSet
EndChar

StartChar: afii62828
Encoding: 65258 65258 253
Width: 1207
GlyphClass: 2
Flags: W
AnchorPoint: "Anchor-3" 570 -600 basechar 0
AnchorPoint: "Anchor-2" 675 1170 basechar 0
LayerCount: 2
Fore
SplineSet
1239 1 m 1,0,-1
 1207 1 l 1,1,-1
 1207 287 l 1,2,-1
 1239 287 l 1,3,-1
 1239 1 l 1,0,-1
1207 1 m 1,4,-1
 1002 1 l 2,5,6
 916 1 916 1 857 60.5 c 128,-1,7
 798 120 798 120 798 207 c 2,8,-1
 798 492 l 1,9,-1
 593 492 l 1,10,-1
 593 287 l 1,11,-1
 716 287 l 1,12,-1
 716 1 l 1,13,-1
 388 1 l 2,14,15
 303 1 303 1 243 61.5 c 128,-1,16
 183 122 183 122 183 207 c 2,17,-1
 183 574 l 2,18,19
 183 663 183 663 241 720.5 c 128,-1,20
 299 778 299 778 388 778 c 2,21,-1
 1002 778 l 2,22,23
 1092 778 1092 778 1149.5 721 c 128,-1,24
 1207 664 1207 664 1207 574 c 2,25,-1
 1207 1 l 1,4,-1
EndSplineSet
EndChar

StartChar: afii57448
Encoding: 1608 1608 254
Width: 1208
GlyphClass: 2
Flags: W
AnchorPoint: "Anchor-3" 480 -1035 basechar 0
AnchorPoint: "Anchor-2" 735 1110 basechar 0
LayerCount: 2
Fore
SplineSet
1208 -287 m 2,0,1
 1208 -374 1208 -374 1149.5 -433 c 128,-1,2
 1091 -492 1091 -492 1004 -492 c 2,3,-1
 184 -492 l 1,4,-1
 184 -205 l 1,5,-1
 799 -205 l 1,6,-1
 799 1 l 1,7,-1
 184 1 l 1,8,-1
 184 574 l 2,9,10
 184 663 184 663 242 720.5 c 128,-1,11
 300 778 300 778 389 778 c 2,12,-1
 1004 778 l 2,13,14
 1093 778 1093 778 1150.5 720.5 c 128,-1,15
 1208 663 1208 663 1208 574 c 2,16,-1
 1208 -287 l 2,0,1
799 287 m 1,17,-1
 799 492 l 1,18,-1
 594 492 l 1,19,-1
 594 287 l 1,20,-1
 799 287 l 1,17,-1
EndSplineSet
Substitution2: "'fina' Terminal Forms in Arabic lookup 2 subtable" afii62829
EndChar

StartChar: afii62829
Encoding: 65262 65262 255
Width: 1208
GlyphClass: 2
Flags: W
AnchorPoint: "Anchor-3" 630 -945 basechar 0
AnchorPoint: "Anchor-2" 660 1170 basechar 0
LayerCount: 2
Fore
SplineSet
1240 1 m 1,0,-1
 1208 1 l 1,1,-1
 1208 287 l 1,2,-1
 1240 287 l 1,3,-1
 1240 1 l 1,0,-1
1208 -287 m 2,4,5
 1208 -374 1208 -374 1149.5 -433 c 128,-1,6
 1091 -492 1091 -492 1004 -492 c 2,7,-1
 184 -492 l 1,8,-1
 184 -205 l 1,9,-1
 799 -205 l 1,10,-1
 799 1 l 1,11,-1
 184 1 l 1,12,-1
 184 574 l 2,13,14
 184 663 184 663 242 720.5 c 128,-1,15
 300 778 300 778 389 778 c 2,16,-1
 1004 778 l 2,17,18
 1093 778 1093 778 1150.5 720.5 c 128,-1,19
 1208 663 1208 663 1208 574 c 2,20,-1
 1208 -287 l 2,4,5
799 287 m 1,21,-1
 799 492 l 1,22,-1
 594 492 l 1,23,-1
 594 287 l 1,24,-1
 799 287 l 1,21,-1
EndSplineSet
EndChar

StartChar: afii62840
Encoding: 65275 65275 268
Width: 1208
GlyphClass: 3
Flags: W
AnchorPoint: "Anchor-1" 900 -405 baselig 0
AnchorPoint: "Anchor-0" 1020 1755 baselig 0
AnchorPoint: "Anchor-1" 345 -510 baselig 1
AnchorPoint: "Anchor-0" 405 1755 baselig 1
LayerCount: 2
Fore
SplineSet
1208 205 m 2,0,1
 1208 118 1208 118 1149.5 59 c 128,-1,2
 1091 0 1091 0 1004 0 c 2,3,-1
 184 0 l 1,4,-1
 184 287 l 1,5,-1
 799 287 l 1,6,-1
 799 1556 l 1,7,-1
 1208 1556 l 1,8,-1
 1208 205 l 2,0,1
594 410 m 1,9,-1
 184 410 l 1,10,-1
 184 1555 l 1,11,-1
 594 1555 l 1,12,-1
 594 410 l 1,9,-1
EndSplineSet
Ligature2: "'rlig' Required Ligatures in Arabic lookup 6 subtable" afii62817 afii62760
Substitution2: "'fina' Terminal Forms in Arabic lookup 2 subtable" afii62841
EndChar

StartChar: afii62841
Encoding: 65276 65276 269
Width: 1208
GlyphClass: 3
Flags: W
AnchorPoint: "Anchor-1" 885 -405 baselig 0
AnchorPoint: "Anchor-0" 1020 1725 baselig 0
AnchorPoint: "Anchor-1" 345 -465 baselig 1
AnchorPoint: "Anchor-0" 390 1740 baselig 1
LayerCount: 2
Fore
SplineSet
1208 205 m 2,0,1
 1208 118 1208 118 1149.5 59 c 128,-1,2
 1091 0 1091 0 1004 0 c 2,3,-1
 184 0 l 1,4,-1
 184 287 l 1,5,-1
 799 287 l 1,6,-1
 799 1556 l 1,7,-1
 1208 1556 l 1,8,-1
 1208 205 l 2,0,1
594 410 m 1,9,-1
 184 410 l 1,10,-1
 184 1555 l 1,11,-1
 594 1555 l 1,12,-1
 594 410 l 1,9,-1
1240 1 m 1,13,-1
 1208 1 l 1,14,-1
 1208 287 l 1,15,-1
 1240 287 l 1,16,-1
 1240 1 l 1,13,-1
EndSplineSet
Ligature2: "'rlig' Required Ligatures in Arabic lookup 6 subtable" afii62818 afii62760
EndChar

StartChar: afii59759
Encoding: 3663 3663 276
Width: 1233
GlyphClass: 2
Flags: W
LayerCount: 2
Fore
SplineSet
616 983 m 0,0,1
 823 983 823 983 969.5 836.5 c 128,-1,2
 1116 690 1116 690 1116 483 c 0,3,4
 1116 277 1116 277 969.5 130.5 c 128,-1,5
 823 -16 823 -16 616 -16 c 0,6,7
 410 -16 410 -16 263.5 130.5 c 128,-1,8
 117 277 117 277 117 483 c 0,9,10
 117 690 117 690 263.5 836.5 c 128,-1,11
 410 983 410 983 616 983 c 0,0,1
616 147 m 0,12,13
 758 147 758 147 849 242 c 128,-1,14
 940 337 940 337 940 483 c 256,15,16
 940 629 940 629 849 724 c 128,-1,17
 758 819 758 819 616 819 c 0,18,19
 475 819 475 819 384 724 c 128,-1,20
 293 629 293 629 293 483 c 256,21,22
 293 337 293 337 384 242 c 128,-1,23
 475 147 475 147 616 147 c 0,12,13
616 598 m 0,24,25
 664 598 664 598 697.5 565 c 128,-1,26
 731 532 731 532 731 485 c 256,27,28
 731 438 731 438 697.5 404.5 c 128,-1,29
 664 371 664 371 616 371 c 0,30,31
 569 371 569 371 535.5 404.5 c 128,-1,32
 502 438 502 438 502 485 c 256,33,34
 502 532 502 532 535.5 565 c 128,-1,35
 569 598 569 598 616 598 c 0,24,25
EndSplineSet
EndChar

StartChar: afii59760
Encoding: 3664 3664 277
Width: 1233
GlyphClass: 2
Flags: W
LayerCount: 2
Fore
SplineSet
616 924 m 0,0,1
 834 924 834 924 975 794.5 c 128,-1,2
 1116 665 1116 665 1116 453 c 0,3,4
 1116 242 1116 242 975 113 c 128,-1,5
 834 -16 834 -16 616 -16 c 0,6,7
 399 -16 399 -16 258 113 c 128,-1,8
 117 242 117 242 117 453 c 0,9,10
 117 665 117 665 258 794.5 c 128,-1,11
 399 924 399 924 616 924 c 0,0,1
616 150 m 0,12,13
 765 150 765 150 852.5 231 c 128,-1,14
 940 312 940 312 940 453 c 256,15,16
 940 594 940 594 852 677 c 128,-1,17
 764 760 764 760 616 760 c 0,18,19
 469 760 469 760 381 677 c 128,-1,20
 293 594 293 594 293 453 c 0,21,22
 293 310 293 310 381.5 230 c 128,-1,23
 470 150 470 150 616 150 c 0,12,13
EndSplineSet
EndChar

StartChar: glyph279
Encoding: 65559 -1 279
Width: 0
GlyphClass: 2
Flags: W
LayerCount: 2
Fore
SplineSet
36 1831 m 1,0,-1
 36 863 l 1,1,-1
 -36 863 l 1,2,-1
 -36 1831 l 1,3,-1
 36 1831 l 1,0,-1
36 543 m 1,4,-1
 36 -423 l 1,5,-1
 -36 -423 l 1,6,-1
 -36 543 l 1,7,-1
 36 543 l 1,4,-1
EndSplineSet
EndChar

StartChar: glyph280
Encoding: 65560 -1 280
Width: 0
GlyphClass: 2
Flags: W
LayerCount: 2
Fore
SplineSet
-234 -423 m 1,0,-1
 -234 -352 l 1,1,-1
 -36 -352 l 1,2,-1
 -36 1760 l 1,3,-1
 -234 1760 l 1,4,-1
 -234 1831 l 1,5,-1
 234 1831 l 1,6,-1
 234 1760 l 1,7,-1
 36 1760 l 1,8,-1
 36 -352 l 1,9,-1
 234 -352 l 1,10,-1
 234 -423 l 1,11,-1
 -234 -423 l 1,0,-1
EndSplineSet
EndChar

StartChar: glyph281
Encoding: 65561 -1 281
Width: 0
GlyphClass: 2
Flags: W
LayerCount: 2
Fore
SplineSet
224 1646 m 1,0,-1
 36 1504 l 1,1,-1
 36 -423 l 1,2,-1
 -36 -423 l 1,3,-1
 -36 1831 l 1,4,-1
 224 1646 l 1,0,-1
EndSplineSet
EndChar

StartChar: glyph282
Encoding: 65562 -1 282
Width: 0
GlyphClass: 2
Flags: W
LayerCount: 2
Fore
SplineSet
36 1831 m 1,0,-1
 36 -423 l 1,1,-1
 -36 -423 l 1,2,-1
 -36 1504 l 1,3,-1
 -224 1646 l 1,4,-1
 36 1831 l 1,0,-1
EndSplineSet
EndChar

StartChar: glyph283
Encoding: 65563 -1 283
Width: 0
GlyphClass: 2
Flags: W
LayerCount: 2
Fore
SplineSet
36 1831 m 1,0,-1
 36 -352 l 1,1,-1
 234 -352 l 1,2,-1
 234 -423 l 1,3,-1
 -36 -423 l 1,4,-1
 -36 1831 l 1,5,-1
 36 1831 l 1,0,-1
EndSplineSet
EndChar

StartChar: glyph284
Encoding: 65564 -1 284
Width: 0
GlyphClass: 2
Flags: W
LayerCount: 2
Fore
SplineSet
224 1646 m 1,0,-1
 36 1504 l 1,1,-1
 36 -423 l 1,2,-1
 -36 -423 l 1,3,-1
 -36 1504 l 1,4,-1
 -224 1641 l 1,5,-1
 0 1831 l 1,6,-1
 224 1646 l 1,0,-1
EndSplineSet
EndChar

StartChar: uni0670
Encoding: 1648 1648 297
Width: 0
GlyphClass: 4
Flags: W
AnchorPoint: "Anchor-2" 0 0 mark 0
AnchorPoint: "Anchor-0" 0 0 mark 0
LayerCount: 2
Fore
SplineSet
-56 394 m 1,0,-1
 55 394 l 1,1,-1
 55 1 l 1,2,-1
 -56 1 l 1,3,-1
 -56 394 l 1,0,-1
EndSplineSet
EndChar

StartChar: glyph298
Encoding: 65565 -1 298
Width: 586
GlyphClass: 2
Flags: W
LayerCount: 2
Fore
SplineSet
289 1412 m 2,0,1
 330 1443 330 1443 367 1450 c 128,-1,2
 404 1457 404 1457 432.5 1442.5 c 128,-1,3
 461 1428 461 1428 478 1394.5 c 128,-1,4
 495 1361 495 1361 495 1312 c 2,5,-1
 494 1205 l 1,6,-1
 69 1205 l 1,7,-1
 69 1282 l 1,8,-1
 141 1282 l 1,9,-1
 289 1412 l 2,0,1
247 1282 m 1,10,-1
 417 1282 l 1,11,-1
 417 1322 l 2,12,13
 415 1360 415 1360 391 1371 c 128,-1,14
 367 1382 367 1382 326 1353 c 1,15,-1
 247 1282 l 1,10,-1
EndSplineSet
EndChar

StartChar: glyph299
Encoding: 65566 -1 299
Width: 1906
GlyphClass: 2
Flags: W
LayerCount: 2
Fore
SplineSet
1906 -287 m 2,0,1
 1906 -379 1906 -379 1849.5 -435.5 c 128,-1,2
 1793 -492 1793 -492 1701 -492 c 2,3,-1
 389 -492 l 2,4,5
 303 -492 303 -492 243.5 -433 c 128,-1,6
 184 -374 184 -374 184 -288 c 2,7,-1
 184 613 l 1,8,-1
 594 613 l 1,9,-1
 594 -205 l 1,10,-1
 1496 -205 l 1,11,-1
 1496 0 l 1,12,-1
 1084 0 l 2,13,14
 998 0 998 0 939 59.5 c 128,-1,15
 880 119 880 119 880 205 c 2,16,-1
 880 694 l 2,17,18
 880 784 880 784 937 841 c 128,-1,19
 994 898 994 898 1084 898 c 2,20,-1
 1701 898 l 2,21,22
 1792 898 1792 898 1849 841.5 c 128,-1,23
 1906 785 1906 785 1906 694 c 2,24,-1
 1906 -287 l 2,0,1
1496 287 m 1,25,-1
 1496 612 l 1,26,-1
 1290 612 l 1,27,-1
 1290 287 l 1,28,-1
 1496 287 l 1,25,-1
EndSplineSet
EndChar

StartChar: uni06DD
Encoding: 1757 1757 388
Width: 2300
GlyphClass: 2
Flags: W
LayerCount: 2
Fore
SplineSet
2250 715 m 256,0,1
 2250 469 2250 469 2146 249 c 0,2,3
 2046 35 2046 35 1867 -119 c 1,4,5
 1870 -133 1870 -133 1870 -148 c 0,6,7
 1870 -203 1870 -203 1831 -241.5 c 128,-1,8
 1792 -280 1792 -280 1737 -280 c 0,9,10
 1697 -280 1697 -280 1664 -258 c 1,11,12
 1424 -385 1424 -385 1149 -385 c 0,13,14
 876 -385 876 -385 636 -258 c 1,15,16
 603 -280 603 -280 563 -280 c 0,17,18
 508 -280 508 -280 469 -241.5 c 128,-1,19
 430 -203 430 -203 430 -148 c 0,20,21
 430 -133 430 -133 433 -119 c 1,22,23
 254 35 254 35 154 249 c 0,24,25
 50 469 50 469 50 715 c 256,26,27
 50 961 50 961 154 1181 c 0,28,29
 254 1394 254 1394 433 1548 c 1,30,31
 430 1562 430 1562 430 1577 c 0,32,33
 430 1632 430 1632 469 1670.5 c 128,-1,34
 508 1709 508 1709 563 1709 c 0,35,36
 603 1709 603 1709 636 1687 c 1,37,38
 876 1814 876 1814 1151 1814 c 0,39,40
 1424 1814 1424 1814 1664 1687 c 1,41,42
 1697 1709 1697 1709 1737 1709 c 0,43,44
 1792 1709 1792 1709 1831 1670.5 c 128,-1,45
 1870 1632 1870 1632 1870 1577 c 0,46,47
 1870 1562 1870 1562 1867 1548 c 1,48,49
 2046 1394 2046 1394 2146 1181 c 0,50,51
 2250 961 2250 961 2250 715 c 256,0,1
1816 1576 m 0,52,53
 1816 1609 1816 1609 1793 1632 c 128,-1,54
 1770 1655 1770 1655 1738 1655 c 256,55,56
 1706 1655 1706 1655 1682.5 1631.5 c 128,-1,57
 1659 1608 1659 1608 1659 1576 c 256,58,59
 1659 1544 1659 1544 1682 1521 c 128,-1,60
 1705 1498 1705 1498 1738 1498 c 0,61,62
 1770 1498 1770 1498 1793 1521 c 128,-1,63
 1816 1544 1816 1544 1816 1576 c 0,52,53
1602 1595 m 1,64,65
 1390 1704 1390 1704 1151 1704 c 0,66,67
 910 1704 910 1704 698 1595 c 1,68,-1
 1602 1595 l 1,64,65
641 1576 m 256,69,70
 641 1608 641 1608 617.5 1631.5 c 128,-1,71
 594 1655 594 1655 562 1655 c 256,72,73
 530 1655 530 1655 507 1632 c 128,-1,74
 484 1609 484 1609 484 1576 c 0,75,76
 484 1544 484 1544 507 1521 c 128,-1,77
 530 1498 530 1498 562 1498 c 0,78,79
 595 1498 595 1498 618 1521 c 128,-1,80
 641 1544 641 1544 641 1576 c 256,69,70
2140 714 m 0,81,82
 2140 933 2140 933 2048 1131 c 0,83,84
 1960 1321 1960 1321 1801 1460 c 1,85,86
 1772 1444 1772 1444 1737 1444 c 0,87,88
 1681 1444 1681 1444 1642 1485 c 1,89,-1
 658 1485 l 1,90,91
 619 1444 619 1444 563 1444 c 0,92,93
 528 1444 528 1444 499 1460 c 1,94,95
 340 1321 340 1321 252 1131 c 0,96,97
 160 933 160 933 160 714 c 0,98,99
 160 265 160 265 499 -31 c 1,100,101
 528 -15 528 -15 563 -15 c 0,102,103
 619 -15 619 -15 658 -56 c 1,104,-1
 1642 -56 l 1,105,106
 1681 -15 1681 -15 1737 -15 c 0,107,108
 1772 -15 1772 -15 1801 -31 c 1,109,110
 2140 265 2140 265 2140 714 c 0,81,82
1816 -147 m 0,111,112
 1816 -115 1816 -115 1793 -92 c 128,-1,113
 1770 -69 1770 -69 1738 -69 c 0,114,115
 1705 -69 1705 -69 1682 -92 c 128,-1,116
 1659 -115 1659 -115 1659 -147 c 256,117,118
 1659 -179 1659 -179 1682.5 -202.5 c 128,-1,119
 1706 -226 1706 -226 1738 -226 c 256,120,121
 1770 -226 1770 -226 1793 -203 c 128,-1,122
 1816 -180 1816 -180 1816 -147 c 0,111,112
1602 -166 m 1,123,-1
 698 -166 l 1,124,125
 910 -275 910 -275 1151 -275 c 0,126,127
 1390 -275 1390 -275 1602 -166 c 1,123,-1
641 -147 m 256,128,129
 641 -115 641 -115 618 -92 c 128,-1,130
 595 -69 595 -69 562 -69 c 0,131,132
 530 -69 530 -69 507 -92 c 128,-1,133
 484 -115 484 -115 484 -147 c 0,134,135
 484 -180 484 -180 507 -203 c 128,-1,136
 530 -226 530 -226 562 -226 c 256,137,138
 594 -226 594 -226 617.5 -202.5 c 128,-1,139
 641 -179 641 -179 641 -147 c 256,128,129
EndSplineSet
EndChar

StartChar: uni06DE
Encoding: 1758 1758 389
Width: 2221
GlyphClass: 2
Flags: W
LayerCount: 2
Fore
SplineSet
2171 750 m 1,0,-1
 1861 439 l 1,1,-1
 1861 0 l 1,2,-1
 1421 0 l 1,3,-1
 1111 -311 l 1,4,-1
 800 0 l 1,5,-1
 361 0 l 1,6,-1
 361 439 l 1,7,-1
 50 750 l 1,8,-1
 361 1061 l 1,9,-1
 361 1500 l 1,10,-1
 800 1500 l 1,11,-1
 1111 1811 l 1,12,-1
 1421 1500 l 1,13,-1
 1861 1500 l 1,14,-1
 1861 1061 l 1,15,-1
 2171 750 l 1,0,-1
436 364 m 1,16,-1
 436 75 l 1,17,-1
 725 75 l 1,18,-1
 436 364 l 1,16,-1
725 1425 m 1,19,-1
 436 1425 l 1,20,-1
 436 1136 l 1,21,-1
 725 1425 l 1,19,-1
1786 1136 m 1,22,-1
 1786 1425 l 1,23,-1
 1496 1425 l 1,24,-1
 1786 1136 l 1,22,-1
1786 75 m 1,25,-1
 1786 364 l 1,26,-1
 1496 75 l 1,27,-1
 1786 75 l 1,25,-1
906 0 m 1,28,-1
 1111 -205 l 1,29,-1
 1315 0 l 1,30,-1
 906 0 l 1,28,-1
361 955 m 1,31,-1
 156 750 l 1,32,-1
 361 545 l 1,33,-1
 361 955 l 1,31,-1
1315 1500 m 1,34,-1
 1111 1705 l 1,35,-1
 906 1500 l 1,36,-1
 1315 1500 l 1,34,-1
1786 1030 m 1,37,-1
 1390 1425 l 1,38,-1
 831 1425 l 1,39,-1
 436 1030 l 1,40,-1
 436 470 l 1,41,-1
 831 75 l 1,42,-1
 1390 75 l 1,43,-1
 1786 470 l 1,44,-1
 1786 1030 l 1,37,-1
2065 750 m 1,45,-1
 1861 955 l 1,46,-1
 1861 545 l 1,47,-1
 2065 750 l 1,45,-1
1328 750 m 256,48,49
 1328 660 1328 660 1264.5 596 c 128,-1,50
 1201 532 1201 532 1111 532 c 256,51,52
 1021 532 1021 532 957 596 c 128,-1,53
 893 660 893 660 893 750 c 256,54,55
 893 840 893 840 957 903.5 c 128,-1,56
 1021 967 1021 967 1111 967 c 256,57,58
 1201 967 1201 967 1264.5 903.5 c 128,-1,59
 1328 840 1328 840 1328 750 c 256,48,49
1253 750 m 256,60,61
 1253 809 1253 809 1211 850.5 c 128,-1,62
 1169 892 1169 892 1110 892 c 256,63,64
 1051 892 1051 892 1009 850.5 c 128,-1,65
 967 809 967 809 967 750 c 256,66,67
 967 691 967 691 1009 649 c 128,-1,68
 1051 607 1051 607 1110 607 c 256,69,70
 1169 607 1169 607 1211 649 c 128,-1,71
 1253 691 1253 691 1253 750 c 256,60,61
EndSplineSet
EndChar

StartChar: uni06DF
Encoding: 1759 1759 390
Width: 0
GlyphClass: 2
Flags: W
LayerCount: 2
Fore
SplineSet
75 1429 m 256,0,1
 75 1398 75 1398 53 1376 c 128,-1,2
 31 1354 31 1354 0 1354 c 256,3,4
 -31 1354 -31 1354 -53 1376 c 128,-1,5
 -75 1398 -75 1398 -75 1429 c 256,6,7
 -75 1460 -75 1460 -53 1482 c 128,-1,8
 -31 1504 -31 1504 0 1504 c 256,9,10
 31 1504 31 1504 53 1482 c 128,-1,11
 75 1460 75 1460 75 1429 c 256,0,1
EndSplineSet
EndChar

StartChar: uni06E9
Encoding: 1769 1769 391
Width: 1229
GlyphClass: 2
Flags: W
LayerCount: 2
Fore
SplineSet
1179 0 m 1,0,-1
 50 0 l 1,1,-1
 278 261 l 1,2,-1
 278 849 l 1,3,-1
 50 1108 l 1,4,-1
 614 1676 l 1,5,-1
 1179 1108 l 1,6,-1
 951 849 l 1,7,-1
 951 261 l 1,8,-1
 1179 0 l 1,0,-1
1101 1108 m 1,9,-1
 614 1598 l 1,10,-1
 128 1108 l 1,11,-1
 338 871 l 1,12,-1
 338 239 l 1,13,-1
 178 56 l 1,14,-1
 1051 56 l 1,15,-1
 891 239 l 1,16,-1
 891 871 l 1,17,-1
 1101 1108 l 1,9,-1
995 1108 m 1,18,-1
 845 937 l 1,19,-1
 845 131 l 1,20,-1
 384 131 l 1,21,-1
 384 937 l 1,22,-1
 234 1108 l 1,23,-1
 614 1489 l 1,24,-1
 995 1108 l 1,18,-1
922 1108 m 1,25,-1
 614 1416 l 1,26,-1
 307 1108 l 1,27,-1
 433 968 l 1,28,-1
 433 186 l 1,29,-1
 796 186 l 1,30,-1
 796 968 l 1,31,-1
 922 1108 l 1,25,-1
833 1108 m 1,32,-1
 745 1011 l 1,33,-1
 745 267 l 1,34,-1
 484 267 l 1,35,-1
 484 1011 l 1,36,-1
 396 1108 l 1,37,-1
 614 1331 l 1,38,-1
 833 1108 l 1,32,-1
780 1108 m 1,39,-1
 614 1278 l 1,40,-1
 449 1108 l 1,41,-1
 523 1027 l 1,42,-1
 523 309 l 1,43,-1
 705 309 l 1,44,-1
 705 1027 l 1,45,-1
 780 1108 l 1,39,-1
EndSplineSet
EndChar

StartChar: uni06EB
Encoding: 1771 1771 393
Width: 0
GlyphClass: 2
Flags: W
LayerCount: 2
Fore
SplineSet
168 1522 m 1,0,-1
 -1 1354 l 1,1,-1
 -168 1521 l 1,2,-1
 1 1689 l 1,3,-1
 168 1522 l 1,0,-1
104 1522 m 1,4,-1
 0 1626 l 1,5,-1
 -104 1521 l 1,6,-1
 0 1417 l 1,7,-1
 104 1522 l 1,4,-1
EndSplineSet
EndChar

StartChar: comma
Encoding: 44 44 402
Width: 336
Flags: W
LayerCount: 2
Fore
SplineSet
338 178 m 1,0,-1
 180 -176 l 1,1,-1
 55 -174 l 1,2,-1
 155 177 l 1,3,-1
 338 178 l 1,0,-1
EndSplineSet
EndChar

StartChar: afii57407
Encoding: 1567 1567 403
Width: 1381
GlyphClass: 2
Flags: W
LayerCount: 2
Fore
SplineSet
1253 489 m 1,0,-1
 845 489 l 1,1,-1
 845 695 l 1,2,-1
 434 695 l 2,3,4
 345 695 345 695 287.5 753 c 128,-1,5
 230 811 230 811 230 900 c 2,6,-1
 230 1268 l 2,7,8
 230 1358 230 1358 287 1415.5 c 128,-1,9
 344 1473 344 1473 434 1473 c 2,10,-1
 1048 1473 l 2,11,12
 1139 1473 1139 1473 1196 1416 c 128,-1,13
 1253 1359 1253 1359 1253 1268 c 2,14,-1
 1253 1063 l 1,15,-1
 845 1063 l 1,16,-1
 845 1186 l 1,17,-1
 640 1186 l 1,18,-1
 640 981 l 1,19,-1
 1048 981 l 2,20,21
 1139 981 1139 981 1196 924.5 c 128,-1,22
 1253 868 1253 868 1253 777 c 2,23,-1
 1253 489 l 1,0,-1
1208 165 m 256,24,25
 1208 97 1208 97 1160.5 49.5 c 128,-1,26
 1113 2 1113 2 1045 2 c 256,27,28
 977 2 977 2 929 49.5 c 128,-1,29
 881 97 881 97 881 165 c 256,30,31
 881 233 881 233 929 281 c 128,-1,32
 977 329 977 329 1045 329 c 256,33,34
 1113 329 1113 329 1160.5 281 c 128,-1,35
 1208 233 1208 233 1208 165 c 256,24,25
EndSplineSet
EndChar

StartChar: afii57392
Encoding: 1776 1776 404
Width: 814
Flags: W
LayerCount: 2
Fore
SplineSet
747 288 m 1,0,-1
 214 288 l 1,1,-1
 214 820 l 1,2,-1
 542 820 l 2,3,4
 628 820 628 820 687.5 761 c 128,-1,5
 747 702 747 702 747 616 c 2,6,-1
 747 288 l 1,0,-1
EndSplineSet
EndChar

StartChar: afii57393
Encoding: 1777 1777 405
Width: 797
Flags: W
LayerCount: 2
Fore
SplineSet
666 1 m 1,0,-1
 257 1 l 1,1,-1
 257 1434 l 1,2,-1
 666 1434 l 1,3,-1
 666 1 l 1,0,-1
EndSplineSet
EndChar

StartChar: afii57394
Encoding: 1778 1778 406
Width: 1208
Flags: W
LayerCount: 2
Fore
SplineSet
1208 821 m 2,0,1
 1208 732 1208 732 1150 673.5 c 128,-1,2
 1092 615 1092 615 1004 615 c 2,3,-1
 594 615 l 1,4,-1
 594 1 l 1,5,-1
 184 1 l 1,6,-1
 184 1434 l 1,7,-1
 594 1434 l 1,8,-1
 594 901 l 1,9,-1
 799 901 l 1,10,-1
 799 1434 l 1,11,-1
 1208 1434 l 1,12,-1
 1208 821 l 2,0,1
EndSplineSet
EndChar

StartChar: afii57395
Encoding: 1779 1779 407
Width: 1618
Flags: W
LayerCount: 2
Fore
SplineSet
1618 821 m 2,0,1
 1618 732 1618 732 1560 673.5 c 128,-1,2
 1502 615 1502 615 1413 615 c 2,3,-1
 1208 615 l 1,4,-1
 1208 821 l 2,5,6
 1208 735 1208 735 1149 675 c 128,-1,7
 1090 615 1090 615 1004 615 c 2,8,-1
 594 615 l 1,9,-1
 594 1 l 1,10,-1
 184 1 l 1,11,-1
 184 1434 l 1,12,-1
 594 1434 l 1,13,-1
 594 901 l 1,14,-1
 799 901 l 1,15,-1
 799 1434 l 1,16,-1
 1208 1434 l 1,17,-1
 1208 901 l 1,18,-1
 1331 901 l 1,19,-1
 1331 1434 l 1,20,-1
 1618 1434 l 1,21,-1
 1618 821 l 2,0,1
EndSplineSet
EndChar

StartChar: afii62843
Encoding: 1780 1780 408
Width: 1540
Flags: W
LayerCount: 2
Fore
SplineSet
1538 615 m 1,0,-1
 594 615 l 1,1,-1
 594 1 l 1,2,-1
 184 1 l 1,3,-1
 184 1434 l 1,4,-1
 594 1434 l 1,5,-1
 594 901 l 1,6,-1
 719 901 l 1,7,-1
 719 1230 l 2,8,9
 719 1319 719 1319 777 1376.5 c 128,-1,10
 835 1434 835 1434 924 1434 c 2,11,-1
 1415 1434 l 1,12,-1
 1415 1147 l 1,13,-1
 1128 1147 l 1,14,-1
 1128 901 l 1,15,-1
 1538 901 l 1,16,-1
 1538 615 l 1,0,-1
EndSplineSet
EndChar

StartChar: afii62844
Encoding: 1781 1781 409
Width: 1619
Flags: W
LayerCount: 2
Fore
SplineSet
1619 207 m 2,0,1
 1619 118 1619 118 1561 59.5 c 128,-1,2
 1503 1 1503 1 1414 1 c 2,3,-1
 1005 1 l 1,4,-1
 1005 205 l 2,5,6
 1005 122 1005 122 944 61.5 c 128,-1,7
 883 1 883 1 800 1 c 2,8,-1
 390 1 l 2,9,10
 304 1 304 1 244.5 60 c 128,-1,11
 185 119 185 119 185 205 c 2,12,-1
 185 1106 l 1,13,-1
 472 1106 l 1,14,-1
 472 287 l 1,15,-1
 595 287 l 1,16,-1
 595 607 l 1,17,-1
 1005 607 l 1,18,-1
 1005 287 l 1,19,-1
 1209 287 l 1,20,-1
 1209 1147 l 1,21,-1
 187 1147 l 1,22,-1
 187 1434 l 1,23,-1
 1414 1434 l 2,24,25
 1500 1434 1500 1434 1559.5 1375 c 128,-1,26
 1619 1316 1619 1316 1619 1230 c 2,27,-1
 1619 207 l 2,0,1
EndSplineSet
EndChar

StartChar: afii62845
Encoding: 1782 1782 410
Width: 1581
Flags: W
LayerCount: 2
Fore
SplineSet
616 1585 m 1,0,-1
 940 1336 l 1,1,-1
 666 986 l 1,2,-1
 829 861 l 1,3,-1
 1153 1283 l 1,4,-1
 1479 1034 l 1,5,-1
 624 -59 l 1,6,-1
 298 190 l 1,7,-1
 654 634 l 1,8,-1
 329 883 l 2,9,10
 259 936 259 936 249 1018 c 128,-1,11
 239 1100 239 1100 292 1171 c 2,12,-1
 616 1585 l 1,0,-1
EndSplineSet
EndChar

StartChar: afii57399
Encoding: 1783 1783 411
Width: 1208
Flags: W
LayerCount: 2
Fore
SplineSet
1208 207 m 2,0,1
 1208 118 1208 118 1150 59.5 c 128,-1,2
 1092 1 1092 1 1004 1 c 2,3,-1
 390 1 l 2,4,5
 299 1 299 1 241.5 56.5 c 128,-1,6
 184 112 184 112 184 202 c 2,7,-1
 184 1434 l 1,8,-1
 594 1434 l 1,9,-1
 594 287 l 1,10,-1
 799 287 l 1,11,-1
 799 1434 l 1,12,-1
 1208 1434 l 1,13,-1
 1208 207 l 2,0,1
EndSplineSet
EndChar

StartChar: afii57400
Encoding: 1784 1784 412
Width: 1208
Flags: W
LayerCount: 2
Fore
SplineSet
1208 1 m 1,0,-1
 799 1 l 1,1,-1
 799 1148 l 1,2,-1
 594 1148 l 1,3,-1
 594 1 l 1,4,-1
 184 1 l 1,5,-1
 184 1233 l 2,6,7
 184 1323 184 1323 241.5 1378.5 c 128,-1,8
 299 1434 299 1434 390 1434 c 2,9,-1
 1004 1434 l 2,10,11
 1092 1434 1092 1434 1150 1375.5 c 128,-1,12
 1208 1317 1208 1317 1208 1228 c 2,13,-1
 1208 1 l 1,0,-1
EndSplineSet
EndChar

StartChar: afii57401
Encoding: 1785 1785 413
Width: 1208
Flags: W
LayerCount: 2
Fore
SplineSet
1208 1 m 1,0,-1
 799 1 l 1,1,-1
 800 615 l 1,2,-1
 390 615 l 2,3,4
 299 615 299 615 241.5 670.5 c 128,-1,5
 184 726 184 726 184 816 c 2,6,-1
 184 1230 l 2,7,8
 184 1319 184 1319 242 1376.5 c 128,-1,9
 300 1434 300 1434 389 1434 c 2,10,-1
 1004 1434 l 2,11,12
 1091 1434 1091 1434 1149.5 1375.5 c 128,-1,13
 1208 1317 1208 1317 1208 1230 c 2,14,-1
 1208 1 l 1,0,-1
799 901 m 1,15,-1
 799 1147 l 1,16,-1
 594 1147 l 1,17,-1
 594 901 l 1,18,-1
 799 901 l 1,15,-1
EndSplineSet
EndChar

StartChar: afii57392.001
Encoding: 1632 1632 414
Width: 814
Flags: W
LayerCount: 2
Fore
SplineSet
747 288 m 1,0,-1
 214 288 l 1,1,-1
 214 820 l 1,2,-1
 542 820 l 2,3,4
 628 820 628 820 687.5 761 c 128,-1,5
 747 702 747 702 747 616 c 2,6,-1
 747 288 l 1,0,-1
EndSplineSet
EndChar

StartChar: afii57393.001
Encoding: 1633 1633 415
Width: 797
Flags: W
LayerCount: 2
Fore
SplineSet
666 1 m 1,0,-1
 257 1 l 1,1,-1
 257 1434 l 1,2,-1
 666 1434 l 1,3,-1
 666 1 l 1,0,-1
EndSplineSet
EndChar

StartChar: afii57394.001
Encoding: 1634 1634 416
Width: 1208
Flags: W
LayerCount: 2
Fore
SplineSet
1208 821 m 2,0,1
 1208 732 1208 732 1150 673.5 c 128,-1,2
 1092 615 1092 615 1004 615 c 2,3,-1
 594 615 l 1,4,-1
 594 1 l 1,5,-1
 184 1 l 1,6,-1
 184 1434 l 1,7,-1
 594 1434 l 1,8,-1
 594 901 l 1,9,-1
 799 901 l 1,10,-1
 799 1434 l 1,11,-1
 1208 1434 l 1,12,-1
 1208 821 l 2,0,1
EndSplineSet
EndChar

StartChar: afii57395.001
Encoding: 1635 1635 417
Width: 1618
Flags: W
LayerCount: 2
Fore
SplineSet
1618 821 m 2,0,1
 1618 732 1618 732 1560 673.5 c 128,-1,2
 1502 615 1502 615 1413 615 c 2,3,-1
 1208 615 l 1,4,-1
 1208 821 l 2,5,6
 1208 735 1208 735 1149 675 c 128,-1,7
 1090 615 1090 615 1004 615 c 2,8,-1
 594 615 l 1,9,-1
 594 1 l 1,10,-1
 184 1 l 1,11,-1
 184 1434 l 1,12,-1
 594 1434 l 1,13,-1
 594 901 l 1,14,-1
 799 901 l 1,15,-1
 799 1434 l 1,16,-1
 1208 1434 l 1,17,-1
 1208 901 l 1,18,-1
 1331 901 l 1,19,-1
 1331 1434 l 1,20,-1
 1618 1434 l 1,21,-1
 1618 821 l 2,0,1
EndSplineSet
EndChar

StartChar: afii57396
Encoding: 1636 1636 418
Width: 1475
Flags: W
LayerCount: 2
Fore
SplineSet
233 1 m 1,0,-1
 233 902 l 1,1,-1
 538 901 l 1,2,-1
 538 1230 l 2,3,4
 538 1319 538 1319 596 1376.5 c 128,-1,5
 654 1434 654 1434 743 1434 c 2,6,-1
 1274 1434 l 1,7,-1
 1274 1147 l 1,8,-1
 947 1147 l 1,9,-1
 947 901 l 1,10,-1
 1357 901 l 1,11,-1
 1357 615 l 1,12,-1
 643 615 l 1,13,-1
 643 287 l 1,14,-1
 1379 287 l 1,15,-1
 1379 -1 l 1,16,-1
 233 1 l 1,0,-1
EndSplineSet
EndChar

StartChar: afii57397
Encoding: 1637 1637 419
Width: 1457
Flags: W
LayerCount: 2
Fore
SplineSet
1389 207 m 2,0,1
 1389 118 1389 118 1331 59.5 c 128,-1,2
 1273 1 1273 1 1184 1 c 2,3,-1
 390 1 l 2,4,5
 304 1 304 1 244.5 60 c 128,-1,6
 185 119 185 119 185 205 c 2,7,-1
 185 1106 l 1,8,-1
 472 1106 l 1,9,-1
 472 287 l 1,10,-1
 979 287 l 1,11,-1
 979 1147 l 1,12,-1
 187 1147 l 1,13,-1
 187 1434 l 1,14,-1
 1184 1434 l 2,15,16
 1270 1434 1270 1434 1329.5 1375 c 128,-1,17
 1389 1316 1389 1316 1389 1230 c 2,18,-1
 1389 207 l 2,0,1
EndSplineSet
EndChar

StartChar: afii57398
Encoding: 1638 1638 420
Width: 1085
Flags: W
LayerCount: 2
Fore
SplineSet
1085 1 m 1,0,-1
 676 1 l 1,1,-1
 677 1147 l 1,2,-1
 185 1147 l 1,3,-1
 185 1434 l 1,4,-1
 881 1434 l 2,5,6
 967 1434 967 1434 1026 1375 c 128,-1,7
 1085 1316 1085 1316 1085 1230 c 2,8,-1
 1085 1 l 1,0,-1
EndSplineSet
EndChar

StartChar: afii57399.001
Encoding: 1639 1639 421
Width: 1208
Flags: W
LayerCount: 2
Fore
SplineSet
1208 207 m 2,0,1
 1208 118 1208 118 1150 59.5 c 128,-1,2
 1092 1 1092 1 1004 1 c 2,3,-1
 390 1 l 2,4,5
 299 1 299 1 241.5 56.5 c 128,-1,6
 184 112 184 112 184 202 c 2,7,-1
 184 1434 l 1,8,-1
 594 1434 l 1,9,-1
 594 287 l 1,10,-1
 799 287 l 1,11,-1
 799 1434 l 1,12,-1
 1208 1434 l 1,13,-1
 1208 207 l 2,0,1
EndSplineSet
EndChar

StartChar: afii57400.001
Encoding: 1640 1640 422
Width: 1208
Flags: W
LayerCount: 2
Fore
SplineSet
1208 1 m 1,0,-1
 799 1 l 1,1,-1
 799 1148 l 1,2,-1
 594 1148 l 1,3,-1
 594 1 l 1,4,-1
 184 1 l 1,5,-1
 184 1233 l 2,6,7
 184 1323 184 1323 241.5 1378.5 c 128,-1,8
 299 1434 299 1434 390 1434 c 2,9,-1
 1004 1434 l 2,10,11
 1092 1434 1092 1434 1150 1375.5 c 128,-1,12
 1208 1317 1208 1317 1208 1228 c 2,13,-1
 1208 1 l 1,0,-1
EndSplineSet
EndChar

StartChar: afii57401.001
Encoding: 1641 1641 423
Width: 1208
Flags: W
LayerCount: 2
Fore
SplineSet
1208 1 m 1,0,-1
 799 1 l 1,1,-1
 800 615 l 1,2,-1
 390 615 l 2,3,4
 299 615 299 615 241.5 670.5 c 128,-1,5
 184 726 184 726 184 816 c 2,6,-1
 184 1230 l 2,7,8
 184 1319 184 1319 242 1376.5 c 128,-1,9
 300 1434 300 1434 389 1434 c 2,10,-1
 1004 1434 l 2,11,12
 1091 1434 1091 1434 1149.5 1375.5 c 128,-1,13
 1208 1317 1208 1317 1208 1230 c 2,14,-1
 1208 1 l 1,0,-1
799 901 m 1,15,-1
 799 1147 l 1,16,-1
 594 1147 l 1,17,-1
 594 901 l 1,18,-1
 799 901 l 1,15,-1
EndSplineSet
EndChar

StartChar: guillemotleft
Encoding: 171 171 424
Width: 875
Flags: W
LayerCount: 2
Fore
SplineSet
399 729 m 1,0,1
 348 603 348 603 348 471 c 0,2,3
 348 310 348 310 469 110 c 1,4,-1
 469 111 l 1,5,6
 488 84 488 84 497 66 c 128,-1,7
 506 48 506 48 509 38 c 0,8,9
 509 9 509 9 484 9 c 0,10,11
 479 9 479 9 466 16 c 0,12,13
 339 96 339 96 262 210 c 1,14,-1
 262 208 l 1,15,16
 176 335 176 335 176 475 c 0,17,18
 177 535 177 535 195.5 594.5 c 128,-1,19
 214 654 214 654 249 714 c 0,20,21
 274 757 274 757 308.5 799.5 c 128,-1,22
 343 842 343 842 384 879 c 0,23,24
 453 942 453 942 479 942 c 0,25,26
 512 942 512 942 512 913 c 0,27,28
 512 902 512 902 504 892 c 0,29,30
 453 829 453 829 431 789.5 c 128,-1,31
 409 750 409 750 398 728 c 1,32,-1
 399 729 l 1,0,1
658 729 m 1,33,34
 607 603 607 603 607 471 c 0,35,36
 607 310 607 310 729 110 c 1,37,-1
 729 111 l 1,38,39
 748 84 748 84 756.5 66 c 128,-1,40
 765 48 765 48 768 38 c 0,41,42
 768 9 768 9 744 9 c 0,43,44
 738 9 738 9 725 16 c 0,45,46
 598 96 598 96 521 210 c 1,47,-1
 521 208 l 1,48,49
 436 335 436 335 436 475 c 0,50,51
 436 535 436 535 454.5 594.5 c 128,-1,52
 473 654 473 654 508 714 c 0,53,54
 533 757 533 757 568 799.5 c 128,-1,55
 603 842 603 842 643 879 c 0,56,57
 713 942 713 942 738 942 c 0,58,59
 771 942 771 942 771 913 c 0,60,61
 771 902 771 902 763 892 c 0,62,63
 713 829 713 829 691 789.5 c 128,-1,64
 669 750 669 750 657 728 c 1,65,-1
 658 729 l 1,33,34
EndSplineSet
EndChar

StartChar: guillemotright
Encoding: 187 187 425
Width: 919
Flags: W
LayerCount: 2
Fore
SplineSet
549 728 m 1,0,1
 538 750 538 750 516 789.5 c 128,-1,2
 494 829 494 829 443 892 c 0,3,4
 435 902 435 902 435 913 c 0,5,6
 435 942 435 942 468 942 c 0,7,8
 494 942 494 942 563 879 c 0,9,10
 604 842 604 842 638.5 799.5 c 128,-1,11
 673 757 673 757 698 714 c 0,12,13
 733 654 733 654 751.5 594.5 c 128,-1,14
 770 535 770 535 771 475 c 0,15,16
 771 335 771 335 685 208 c 1,17,-1
 685 210 l 1,18,19
 608 96 608 96 481 16 c 0,20,21
 468 9 468 9 463 9 c 0,22,23
 438 9 438 9 438 38 c 0,24,25
 441 48 441 48 450 66 c 128,-1,26
 459 84 459 84 478 111 c 1,27,-1
 478 110 l 1,28,29
 599 310 599 310 599 471 c 0,30,31
 599 603 599 603 548 729 c 1,32,-1
 549 728 l 1,0,1
290 728 m 1,33,34
 278 750 278 750 256 789.5 c 128,-1,35
 234 829 234 829 184 892 c 0,36,37
 176 902 176 902 176 913 c 0,38,39
 176 942 176 942 209 942 c 0,40,41
 234 942 234 942 304 879 c 0,42,43
 344 842 344 842 379 799.5 c 128,-1,44
 414 757 414 757 439 714 c 0,45,46
 474 654 474 654 492.5 594.5 c 128,-1,47
 511 535 511 535 511 475 c 0,48,49
 511 335 511 335 426 208 c 1,50,-1
 426 210 l 1,51,52
 349 96 349 96 222 16 c 0,53,54
 209 9 209 9 203 9 c 0,55,56
 179 9 179 9 179 38 c 0,57,58
 182 48 182 48 190.5 66 c 128,-1,59
 199 84 199 84 218 111 c 1,60,-1
 218 110 l 1,61,62
 340 310 340 310 340 471 c 0,63,64
 340 603 340 603 289 729 c 1,65,-1
 290 728 l 1,33,34
EndSplineSet
EndChar

StartChar: quoteleft
Encoding: 8216 8216 426
Width: 461
Flags: W
LayerCount: 2
Fore
SplineSet
127 1258 m 0,0,1
 128 1340 128 1340 183.5 1419.5 c 128,-1,2
 239 1499 239 1499 308 1532 c 1,3,-1
 347 1459 l 1,4,5
 327 1448 327 1448 299 1417.5 c 128,-1,6
 271 1387 271 1387 259 1340 c 1,7,8
 342 1304 342 1304 338 1235 c 0,9,10
 338 1215 338 1215 330 1196.5 c 128,-1,11
 322 1178 322 1178 308 1164 c 128,-1,12
 294 1150 294 1150 275.5 1142 c 128,-1,13
 257 1134 257 1134 236 1134 c 0,14,15
 210 1134 210 1134 190 1144.5 c 128,-1,16
 170 1155 170 1155 156 1172.5 c 128,-1,17
 142 1190 142 1190 134.5 1212.5 c 128,-1,18
 127 1235 127 1235 127 1258 c 0,0,1
EndSplineSet
EndChar

StartChar: quoteright
Encoding: 8217 8217 427
Width: 452
Flags: W
LayerCount: 2
Fore
SplineSet
346 1408 m 0,0,1
 345 1326 345 1326 289.5 1246.5 c 128,-1,2
 234 1167 234 1167 166 1134 c 1,3,-1
 127 1207 l 1,4,5
 147 1218 147 1218 174.5 1248.5 c 128,-1,6
 202 1279 202 1279 215 1326 c 1,7,8
 132 1362 132 1362 136 1431 c 0,9,10
 136 1451 136 1451 144 1469.5 c 128,-1,11
 152 1488 152 1488 165.5 1502 c 128,-1,12
 179 1516 179 1516 197 1524 c 128,-1,13
 215 1532 215 1532 236 1532 c 0,14,15
 262 1532 262 1532 282.5 1521.5 c 128,-1,16
 303 1511 303 1511 317 1493.5 c 128,-1,17
 331 1476 331 1476 338.5 1453.5 c 128,-1,18
 346 1431 346 1431 346 1408 c 0,0,1
EndSplineSet
EndChar

StartChar: afii57451
Encoding: 1611 1611 428
Width: 0
GlyphClass: 4
Flags: W
AnchorPoint: "Anchor-2" 0 0 mark 0
AnchorPoint: "Anchor-0" 0 0 mark 0
LayerCount: 2
Fore
SplineSet
-240 110 m 1,0,-1
 244 227 l 1,1,-1
 244 118 l 1,2,-1
 -240 3 l 1,3,-1
 -240 110 l 1,0,-1
244 447 m 1,4,-1
 244 338 l 1,5,-1
 -240 223 l 1,6,-1
 -240 329 l 1,7,-1
 239 446 l 1,8,-1
 244 447 l 1,4,-1
EndSplineSet
EndChar

StartChar: afii57454
Encoding: 1614 1614 429
Width: 0
GlyphClass: 4
Flags: W
AnchorPoint: "Anchor-2" 0 0 mark 0
AnchorPoint: "Anchor-0" 0 0 mark 0
LayerCount: 2
Fore
SplineSet
-240 110 m 1,0,-1
 244 227 l 1,1,-1
 244 118 l 1,2,-1
 -240 3 l 1,3,-1
 -240 110 l 1,0,-1
EndSplineSet
EndChar

StartChar: afii57455
Encoding: 1615 1615 430
Width: 0
GlyphClass: 4
Flags: W
AnchorPoint: "Anchor-2" 0 0 mark 0
AnchorPoint: "Anchor-0" 0 0 mark 0
LayerCount: 2
Fore
SplineSet
184 310 m 0,0,1
 184 219 184 219 97 153 c 1,2,3
 128 131 128 131 141 115 c 1,4,-1
 94 78 l 1,5,6
 67 78 67 78 36 102 c 1,7,8
 -153 9 -153 9 -229 2 c 1,9,-1
 -238 78 l 1,10,11
 -111 112 -111 112 -32 162 c 1,12,13
 -70 201 -70 201 -70 250 c 0,14,15
 -70 310 -70 310 -25.5 358.5 c 128,-1,16
 19 407 19 407 78 407 c 0,17,18
 120 407 120 407 152 379.5 c 128,-1,19
 184 352 184 352 184 310 c 0,0,1
108 281 m 0,20,21
 108 330 108 330 61 330 c 0,22,23
 38 330 38 330 19 307.5 c 128,-1,24
 0 285 0 285 0 261 c 0,25,26
 0 223 0 223 40 201 c 1,27,28
 63 208 63 208 85.5 233 c 128,-1,29
 108 258 108 258 108 281 c 0,20,21
EndSplineSet
EndChar

StartChar: afii57452
Encoding: 1612 1612 431
Width: 0
GlyphClass: 4
Flags: W
AnchorPoint: "Anchor-2" 0 0 mark 0
AnchorPoint: "Anchor-0" 0 0 mark 0
LayerCount: 2
Fore
SplineSet
221 326 m 0,0,1
 221 235 221 235 134 169 c 1,2,3
 158 148 158 148 185 128 c 1,4,-1
 131 94 l 1,5,6
 104 94 104 94 73 118 c 1,7,8
 -157 10 -157 10 -233 1 c 1,9,-1
 -237 69 l 1,10,11
 -193 71 -193 71 -168 90.5 c 128,-1,12
 -143 110 -143 110 -143 162 c 0,13,14
 -143 186 -143 186 -176 186 c 0,15,16
 -200 186 -200 186 -244 150 c 1,17,-1
 -279 193 l 1,18,19
 -213 256 -213 256 -160 256 c 0,20,21
 -81 256 -81 256 -81 184 c 0,22,23
 -81 158 -81 158 -96 127 c 1,24,25
 -46 146 -46 146 5 178 c 1,26,27
 -33 217 -33 217 -33 266 c 0,28,29
 -33 326 -33 326 11.5 374.5 c 128,-1,30
 56 423 56 423 115 423 c 0,31,32
 157 423 157 423 189 395.5 c 128,-1,33
 221 368 221 368 221 326 c 0,0,1
145 297 m 0,34,35
 145 346 145 346 98 346 c 0,36,37
 75 346 75 346 56 323.5 c 128,-1,38
 37 301 37 301 37 277 c 0,39,40
 37 239 37 239 77 217 c 1,41,42
 100 224 100 224 122.5 249 c 128,-1,43
 145 274 145 274 145 297 c 0,34,35
EndSplineSet
EndChar

StartChar: afii57456
Encoding: 1616 1616 432
Width: 0
GlyphClass: 4
Flags: W
AnchorPoint: "Anchor-3" 0 0 mark 0
AnchorPoint: "Anchor-1" 0 0 mark 0
LayerCount: 2
Fore
SplineSet
-240 110 m 1,0,-1
 244 227 l 1,1,-1
 244 118 l 1,2,-1
 -240 3 l 1,3,-1
 -240 110 l 1,0,-1
EndSplineSet
EndChar

StartChar: afii57457
Encoding: 1617 1617 433
Width: 0
GlyphClass: 4
Flags: W
AnchorPoint: "Anchor-2" 0 0 mark 0
AnchorPoint: "Anchor-0" 0 0 mark 0
LayerCount: 2
Fore
SplineSet
234 58 m 2,0,1
 234 -3 234 -3 172 -3 c 2,2,-1
 -178 -3 l 2,3,4
 -240 -3 -240 -3 -240 58 c 2,5,-1
 -240 283 l 1,6,-1
 -137 283 l 1,7,-1
 -137 120 l 1,8,-1
 -55 120 l 1,9,-1
 -55 283 l 1,10,-1
 49 283 l 1,11,-1
 49 120 l 1,12,-1
 131 120 l 1,13,-1
 131 283 l 1,14,-1
 234 283 l 1,15,-1
 234 58 l 2,0,1
EndSplineSet
EndChar

StartChar: afii57458
Encoding: 1618 1618 434
Width: 0
GlyphClass: 4
Flags: W
AnchorPoint: "Anchor-2" 0 0 mark 0
AnchorPoint: "Anchor-0" 0 0 mark 0
LayerCount: 2
Fore
SplineSet
149 157 m 0,0,1
 149 94 149 94 105.5 48.5 c 128,-1,2
 62 3 62 3 -1 3 c 0,3,4
 -61 3 -61 3 -96 41 c 128,-1,5
 -131 79 -131 79 -131 139 c 0,6,7
 -131 202 -131 202 -95 250 c 0,8,9
 -55 302 -55 302 6 302 c 0,10,11
 70 302 70 302 109.5 261.5 c 128,-1,12
 149 221 149 221 149 157 c 0,0,1
86 143 m 0,13,14
 86 177 86 177 58.5 198 c 128,-1,15
 31 219 31 219 -4 219 c 0,16,17
 -29 219 -29 219 -47.5 196.5 c 128,-1,18
 -66 174 -66 174 -66 148 c 0,19,20
 -66 87 -66 87 11 87 c 0,21,22
 37 87 37 87 61.5 102.5 c 128,-1,23
 86 118 86 118 86 143 c 0,13,14
EndSplineSet
EndChar

StartChar: exclam
Encoding: 33 33 437
Width: 711
GlyphClass: 2
Flags: W
LayerCount: 2
Fore
SplineSet
650 195 m 0,0,1
 650 112 650 112 593 56.5 c 128,-1,2
 536 1 536 1 453 1 c 0,3,4
 371 1 371 1 316 56.5 c 128,-1,5
 261 112 261 112 261 195 c 0,6,7
 261 276 261 276 316.5 331.5 c 128,-1,8
 372 387 372 387 453 387 c 0,9,10
 532 387 532 387 591 330 c 128,-1,11
 650 273 650 273 650 195 c 0,0,1
602 486 m 1,12,-1
 426 486 l 2,13,14
 352 486 352 486 301 536.5 c 128,-1,15
 250 587 250 587 250 661 c 2,16,-1
 250 1380 l 2,17,18
 248 1441 248 1441 275 1482.5 c 128,-1,19
 302 1524 302 1524 342.5 1545 c 128,-1,20
 383 1566 383 1566 430.5 1566.5 c 128,-1,21
 478 1567 478 1567 519 1547.5 c 128,-1,22
 560 1528 560 1528 586.5 1488 c 128,-1,23
 613 1448 613 1448 612 1388 c 2,24,-1
 602 486 l 1,12,-1
EndSplineSet
EndChar

StartChar: afii64060
Encoding: 64830 64830 438
Width: 860
GlyphClass: 2
Flags: W
LayerCount: 2
Fore
SplineSet
860 -474 m 1,0,-1
 389 -474 l 2,1,2
 301 -474 301 -474 242.5 -415.5 c 128,-1,3
 184 -357 184 -357 184 -269 c 2,4,-1
 184 1433 l 2,5,6
 184 1520 184 1520 243 1578.5 c 128,-1,7
 302 1637 302 1637 389 1637 c 2,8,-1
 860 1637 l 1,9,-1
 860 1352 l 1,10,-1
 444 1352 l 1,11,-1
 444 -188 l 1,12,-1
 860 -188 l 1,13,-1
 860 -474 l 1,0,-1
EndSplineSet
EndChar

StartChar: afii64061
Encoding: 64831 64831 439
Width: 860
GlyphClass: 2
Flags: W
LayerCount: 2
Fore
SplineSet
860 -269 m 2,0,1
 860 -357 860 -357 801.5 -415.5 c 128,-1,2
 743 -474 743 -474 655 -474 c 2,3,-1
 184 -474 l 1,4,-1
 184 -188 l 1,5,-1
 600 -188 l 1,6,-1
 600 1352 l 1,7,-1
 184 1352 l 1,8,-1
 184 1637 l 1,9,-1
 655 1637 l 2,10,11
 742 1637 742 1637 801 1578.5 c 128,-1,12
 860 1520 860 1520 860 1433 c 2,13,-1
 860 -269 l 2,0,1
EndSplineSet
EndChar

StartChar: afii62821
Encoding: 65252 65252 440
Width: 1229
GlyphClass: 2
Flags: W
AnchorPoint: "Anchor-3" 585 -615 basechar 0
AnchorPoint: "Anchor-2" 690 1110 basechar 0
LayerCount: 2
Fore
SplineSet
1261 1 m 1,0,-1
 1229 1 l 1,1,-1
 1229 287 l 1,2,-1
 1261 287 l 1,3,-1
 1261 1 l 1,0,-1
1229 207 m 2,4,5
 1229 122 1229 122 1169 61.5 c 128,-1,6
 1109 1 1109 1 1024 1 c 2,7,-1
 614 1 l 1,8,-1
 614 287 l 1,9,-1
 819 287 l 1,10,-1
 819 492 l 1,11,-1
 614 492 l 1,12,-1
 614 207 l 2,13,14
 614 119 614 119 555.5 60 c 128,-1,15
 497 1 497 1 410 1 c 2,16,-1
 -31 1 l 1,17,-1
 -31 287 l 1,18,-1
 205 287 l 1,19,-1
 205 574 l 2,20,21
 205 663 205 663 263 720.5 c 128,-1,22
 321 778 321 778 410 778 c 2,23,-1
 1024 778 l 2,24,25
 1114 778 1114 778 1171.5 721 c 128,-1,26
 1229 664 1229 664 1229 574 c 2,27,-1
 1229 207 l 2,4,5
EndSplineSet
EndChar

StartChar: uni25CC
Encoding: 9676 9676 441
Width: 911
Flags: W
AnchorPoint: "Anchor-3" 465 -450 basechar 0
AnchorPoint: "Anchor-2" 465 975 basechar 0
LayerCount: 2
Fore
SplineSet
771 629 m 256,0,1
 771 592 771 592 734 592 c 0,2,3
 695 592 695 592 695 629 c 256,4,5
 695 666 695 666 734 666 c 0,6,7
 771 666 771 666 771 629 c 256,0,1
658 703 m 0,8,9
 658 666 658 666 621 666 c 0,10,11
 582 666 582 666 582 703 c 0,12,13
 582 742 582 742 621 742 c 0,14,15
 658 742 658 742 658 703 c 0,8,9
847 516 m 0,16,17
 847 477 847 477 808 477 c 0,18,19
 771 477 771 477 771 516 c 0,20,21
 771 553 771 553 810 553 c 0,22,23
 847 553 847 553 847 516 c 0,16,17
873 384 m 256,24,25
 873 347 873 347 836 347 c 0,26,27
 797 347 797 347 797 384 c 256,28,29
 797 421 797 421 836 421 c 0,30,31
 873 421 873 421 873 384 c 256,24,25
525 731 m 0,32,33
 525 692 525 692 488 692 c 256,34,35
 451 692 451 692 451 731 c 0,36,37
 451 768 451 768 488 768 c 256,38,39
 525 768 525 768 525 731 c 0,32,33
847 251 m 0,40,41
 847 214 847 214 808 214 c 0,42,43
 771 214 771 214 771 251 c 0,44,45
 771 290 771 290 808 290 c 0,46,47
 847 290 847 290 847 251 c 0,40,41
394 703 m 0,48,49
 394 666 394 666 356 666 c 0,50,51
 319 666 319 666 319 703 c 0,52,53
 319 742 319 742 356 742 c 0,54,55
 394 742 394 742 394 703 c 0,48,49
282 629 m 256,56,57
 282 592 282 592 243 592 c 0,58,59
 206 592 206 592 206 627 c 0,60,61
 206 666 206 666 243 666 c 0,62,63
 282 666 282 666 282 629 c 256,56,57
771 138 m 0,64,65
 771 101 771 101 734 101 c 256,66,67
 697 101 697 101 697 138 c 0,68,69
 697 177 697 177 734 177 c 256,70,71
 771 177 771 177 771 138 c 0,64,65
658 64 m 0,72,73
 658 27 658 27 621 27 c 256,74,75
 584 27 584 27 584 64 c 0,76,77
 584 103 584 103 621 103 c 256,78,79
 658 103 658 103 658 64 c 0,72,73
206 516 m 0,80,81
 206 477 206 477 171 477 c 0,82,83
 132 477 132 477 132 516 c 0,84,85
 132 553 132 553 169 553 c 256,86,87
 206 553 206 553 206 516 c 0,80,81
180 384 m 256,88,89
 180 347 180 347 143 347 c 0,90,91
 104 347 104 347 104 384 c 256,92,93
 104 421 104 421 143 421 c 0,94,95
 180 421 180 421 180 384 c 256,88,89
525 38 m 0,96,97
 525 -1 525 -1 488 -1 c 256,98,99
 451 -1 451 -1 451 38 c 0,100,101
 451 75 451 75 488 75 c 256,102,103
 525 75 525 75 525 38 c 0,96,97
394 66 m 0,104,105
 394 27 394 27 356 27 c 0,106,107
 319 27 319 27 319 64 c 0,108,109
 319 103 319 103 356 103 c 0,110,111
 394 103 394 103 394 66 c 0,104,105
206 251 m 0,112,113
 206 214 206 214 169 214 c 256,114,115
 132 214 132 214 132 251 c 0,116,117
 132 290 132 290 169 290 c 256,118,119
 206 290 206 290 206 251 c 0,112,113
282 138 m 0,120,121
 282 101 282 101 245 101 c 0,122,123
 206 101 206 101 206 138 c 0,124,125
 206 177 206 177 243 177 c 0,126,127
 282 177 282 177 282 138 c 0,120,121
EndSplineSet
EndChar

StartChar: afii62819
Encoding: 65246 65246 442
Width: 1495
GlyphClass: 2
Flags: W
AnchorPoint: "Anchor-3" 840 -1035 basechar 0
AnchorPoint: "Anchor-2" 1260 1845 basechar 0
LayerCount: 2
Fore
SplineSet
1528 1 m 1,0,-1
 1496 1 l 1,1,-1
 1496 287 l 1,2,-1
 1528 287 l 1,3,-1
 1528 1 l 1,0,-1
1495 -287 m 2,4,5
 1495 -374 1495 -374 1436 -433 c 128,-1,6
 1377 -492 1377 -492 1290 -492 c 2,7,-1
 389 -492 l 2,8,9
 302 -492 302 -492 243 -433 c 128,-1,10
 184 -374 184 -374 184 -287 c 2,11,-1
 184 614 l 1,12,-1
 594 614 l 1,13,-1
 594 -205 l 1,14,-1
 1085 -205 l 1,15,-1
 1085 1556 l 1,16,-1
 1495 1556 l 1,17,-1
 1495 -287 l 2,4,5
EndSplineSet
EndChar

StartChar: braceright
Encoding: 125 125 445
Width: 643
GlyphClass: 2
Flags: W
LayerCount: 2
Fore
SplineSet
588 331 m 1,0,1
 529 328 529 328 499.5 313 c 128,-1,2
 470 298 470 298 448.5 264 c 128,-1,3
 427 230 427 230 417 178 c 0,4,5
 412 139 412 139 412 45 c 0,6,7
 412 -112 412 -112 397.5 -174 c 128,-1,8
 383 -236 383 -236 345 -274 c 128,-1,9
 307 -312 307 -312 234 -333 c 0,10,11
 185 -348 185 -348 79 -348 c 2,12,-1
 36 -348 l 1,13,-1
 36 -155 l 1,14,15
 123 -155 123 -155 149.5 -143.5 c 128,-1,16
 176 -132 176 -132 188.5 -111.5 c 128,-1,17
 201 -91 201 -91 201.5 -42 c 128,-1,18
 202 7 202 7 207 146 c 0,19,20
 212 230 212 230 230 280.5 c 128,-1,21
 248 331 248 331 277.5 366.5 c 128,-1,22
 307 402 307 402 353 428 c 1,23,24
 292 465 292 465 265 503 c 0,25,26
 228 556 228 556 213 639 c 0,27,28
 205 696 205 696 201 887 c 0,29,30
 200 948 200 948 190 968 c 128,-1,31
 180 988 180 988 153.5 999 c 128,-1,32
 127 1010 127 1010 36 1010 c 1,33,-1
 36 1203 l 1,34,-1
 79 1203 l 2,35,36
 187 1203 187 1203 245.5 1185.5 c 128,-1,37
 304 1168 304 1168 343.5 1127.5 c 128,-1,38
 383 1087 383 1087 397.5 1028 c 128,-1,39
 412 969 412 969 412 841 c 0,40,41
 412 694 412 694 423 648 c 0,42,43
 442 584 442 584 478 556 c 128,-1,44
 514 528 514 528 588 524 c 1,45,-1
 588 331 l 1,0,1
EndSplineSet
EndChar

StartChar: uni0656
Encoding: 1622 1622 452
Width: 0
GlyphClass: 4
Flags: W
AnchorPoint: "Anchor-3" 0 0 mark 0
AnchorPoint: "Anchor-1" 0 0 mark 0
LayerCount: 2
Fore
SplineSet
-56 394 m 1,0,-1
 55 394 l 1,1,-1
 55 1 l 1,2,-1
 -56 1 l 1,3,-1
 -56 394 l 1,0,-1
EndSplineSet
EndChar

StartChar: E005
Encoding: 65578 -1 470
Width: 476
GlyphClass: 3
Flags: W
LayerCount: 2
Fore
SplineSet
-43 0 m 1,0,-1
 -43 207 l 1,1,-1
 581 207 l 1,2,-1
 581 0 l 1,3,-1
 -43 0 l 1,0,-1
EndSplineSet
EndChar

StartChar: afii57470
Encoding: 1726 1726 480
Width: 1843
Flags: W
AnchorPoint: "Anchor-3" 765 -510 basechar 0
AnchorPoint: "Anchor-2" 990 1245 basechar 0
LayerCount: 2
Fore
SplineSet
1843 207 m 2,0,1
 1843 133 1843 133 1792 72 c 0,2,3
 1732 1 1732 1 1638 1 c 2,4,-1
 -31 1 l 1,5,-1
 -31 287 l 1,6,-1
 205 287 l 1,7,-1
 205 574 l 2,8,9
 205 663 205 663 263 720.5 c 128,-1,10
 321 778 321 778 410 778 c 2,11,-1
 819 778 l 1,12,-1
 819 983 l 1,13,-1
 1229 983 l 1,14,-1
 1229 778 l 1,15,-1
 1638 778 l 2,16,17
 1728 778 1728 778 1785.5 721 c 128,-1,18
 1843 664 1843 664 1843 574 c 2,19,-1
 1843 207 l 2,0,1
1434 287 m 1,20,-1
 1434 492 l 1,21,-1
 1229 492 l 1,22,-1
 1229 287 l 1,23,-1
 1434 287 l 1,20,-1
819 287 m 1,24,-1
 819 492 l 1,25,-1
 614 492 l 1,26,-1
 614 287 l 1,27,-1
 819 287 l 1,24,-1
EndSplineSet
Substitution2: "'medi' Medial Forms in Arabic lookup 3 subtable" afii62827
Substitution2: "'fina' Terminal Forms in Arabic lookup 2 subtable" afii62827
Substitution2: "'init' Initial Forms in Arabic lookup 1 subtable" afii57470
EndChar

StartChar: at
Encoding: 64 64 489
Width: 1611
Flags: W
LayerCount: 2
Fore
SplineSet
1433 15 m 1,0,-1
 1604 15 l 1,1,2
 1524 -148 1524 -148 1357 -241 c 0,3,4
 1166 -348 1166 -348 891 -348 c 0,5,6
 625 -348 625 -348 431.5 -257.5 c 128,-1,7
 238 -167 238 -167 144 8 c 128,-1,8
 50 183 50 183 50 389 c 0,9,10
 50 616 50 616 157 811.5 c 128,-1,11
 264 1007 264 1007 450 1105.5 c 128,-1,12
 636 1204 636 1204 876 1204 c 0,13,14
 1079 1204 1079 1204 1237 1124.5 c 128,-1,15
 1395 1045 1395 1045 1478.5 899.5 c 128,-1,16
 1562 754 1562 754 1562 581 c 0,17,18
 1562 376 1562 376 1436 210 c 0,19,20
 1276 0 1276 0 1028 0 c 0,21,22
 962 0 962 0 927.5 23 c 128,-1,23
 893 46 893 46 882 92 c 1,24,25
 787 0 787 0 664 0 c 0,26,27
 529 0 529 0 441 92.5 c 128,-1,28
 353 185 353 185 353 338 c 0,29,30
 353 528 353 528 459 684 c 0,31,32
 588 874 588 874 790 874 c 0,33,34
 933 874 933 874 1002 764 c 1,35,-1
 1022 853 l 1,36,-1
 1235 853 l 1,37,-1
 1113 276 l 2,38,39
 1102 221 1102 221 1102 205 c 0,40,41
 1102 185 1102 185 1111 175 c 128,-1,42
 1120 165 1120 165 1133 165 c 0,43,44
 1171 165 1171 165 1233 212 c 0,45,46
 1315 272 1315 272 1366 375.5 c 128,-1,47
 1417 479 1417 479 1417 590 c 0,48,49
 1417 788 1417 788 1273.5 921 c 128,-1,50
 1130 1054 1130 1054 873 1054 c 0,51,52
 654 1054 654 1054 501.5 965.5 c 128,-1,53
 349 877 349 877 272.5 715.5 c 128,-1,54
 196 554 196 554 196 378 c 0,55,56
 196 207 196 207 282 68 c 128,-1,57
 368 -71 368 -71 523.5 -135.5 c 128,-1,58
 679 -200 679 -200 878 -200 c 0,59,60
 1070 -200 1070 -200 1209.5 -146 c 128,-1,61
 1349 -92 1349 -92 1433 15 c 1,0,-1
561 347 m 0,62,63
 561 244 561 244 602.5 195.5 c 128,-1,64
 644 147 644 147 706 147 c 0,65,66
 752 147 752 147 792 171 c 0,67,68
 822 186 822 186 853 221 c 0,69,70
 895 270 895 270 926.5 364.5 c 128,-1,71
 958 459 958 459 958 540 c 0,72,73
 958 631 958 631 915.5 680 c 128,-1,74
 873 729 873 729 808 729 c 0,75,76
 739 729 739 729 680 675.5 c 128,-1,77
 621 622 621 622 591 522.5 c 128,-1,78
 561 423 561 423 561 347 c 0,62,63
EndSplineSet
EndChar

StartChar: A
Encoding: 65 65 490
Width: 1193
Flags: W
LayerCount: 2
Fore
SplineSet
1186 0 m 1,0,-1
 927 0 l 1,1,-1
 823 268 l 1,2,-1
 351 268 l 1,3,-1
 253 0 l 1,4,-1
 0 0 l 1,5,-1
 460 1183 l 1,6,-1
 712 1183 l 1,7,-1
 1186 0 l 1,0,-1
747 468 m 1,8,-1
 584 906 l 1,9,-1
 424 468 l 1,10,-1
 747 468 l 1,8,-1
EndSplineSet
EndChar

StartChar: B
Encoding: 66 66 491
Width: 1193
Flags: W
LayerCount: 2
Fore
SplineSet
121 1183 m 1,0,-1
 594 1183 l 2,1,2
 734 1183 734 1183 803 1171 c 128,-1,3
 872 1159 872 1159 926.5 1121.5 c 128,-1,4
 981 1084 981 1084 1017 1023 c 128,-1,5
 1053 962 1053 962 1053 885 c 0,6,7
 1053 801 1053 801 1008 732.5 c 128,-1,8
 963 664 963 664 887 628 c 1,9,10
 995 596 995 596 1052.5 520.5 c 128,-1,11
 1110 445 1110 445 1110 343 c 0,12,13
 1110 262 1110 262 1073.5 186 c 128,-1,14
 1037 110 1037 110 971.5 64 c 128,-1,15
 906 18 906 18 811 8 c 0,16,17
 752 2 752 2 523 0 c 2,18,-1
 121 0 l 1,19,-1
 121 1183 l 1,0,-1
360 986 m 1,20,-1
 360 711 l 1,21,-1
 516 711 l 2,22,23
 655 711 655 711 690 716 c 0,24,25
 751 724 751 724 786 758.5 c 128,-1,26
 821 793 821 793 821 851 c 0,27,28
 821 906 821 906 790.5 940 c 128,-1,29
 760 974 760 974 701 982 c 0,30,31
 665 986 665 986 497 986 c 2,32,-1
 360 986 l 1,20,-1
360 515 m 1,33,-1
 360 200 l 1,34,-1
 580 200 l 2,35,36
 710 200 710 200 744 207 c 0,37,38
 797 216 797 216 831 253.5 c 128,-1,39
 865 291 865 291 865 354 c 0,40,41
 865 407 865 407 838.5 444.5 c 128,-1,42
 812 482 812 482 764 498.5 c 128,-1,43
 716 515 716 515 553 515 c 2,44,-1
 360 515 l 1,33,-1
EndSplineSet
EndChar

StartChar: C
Encoding: 67 67 492
Width: 1193
Flags: W
LayerCount: 2
Fore
SplineSet
877 434 m 1,0,-1
 1108 361 l 1,1,2
 1054 167 1054 167 930.5 73.5 c 128,-1,3
 807 -20 807 -20 617 -20 c 0,4,5
 381 -20 381 -20 230 141 c 128,-1,6
 79 302 79 302 79 580 c 0,7,8
 79 876 79 876 231 1039.5 c 128,-1,9
 383 1203 383 1203 631 1203 c 0,10,11
 848 1203 848 1203 984 1074 c 0,12,13
 1064 998 1064 998 1105 857 c 1,14,-1
 869 801 l 1,15,16
 848 892 848 892 781.5 945 c 128,-1,17
 715 998 715 998 619 998 c 0,18,19
 488 998 488 998 406 904 c 128,-1,20
 324 810 324 810 324 599 c 0,21,22
 324 374 324 374 405 278.5 c 128,-1,23
 486 183 486 183 615 183 c 0,24,25
 710 183 710 183 778.5 243.5 c 128,-1,26
 847 304 847 304 877 434 c 1,0,-1
EndSplineSet
EndChar

StartChar: D
Encoding: 68 68 493
Width: 1193
Flags: W
LayerCount: 2
Fore
SplineSet
119 1183 m 1,0,-1
 555 1183 l 2,1,2
 704 1183 704 1183 780 1159 c 0,3,4
 885 1129 885 1129 959 1051 c 128,-1,5
 1033 973 1033 973 1071.5 859.5 c 128,-1,6
 1110 746 1110 746 1110 580 c 0,7,8
 1110 433 1110 433 1074 328 c 0,9,10
 1030 200 1030 200 948 119 c 0,11,12
 885 59 885 59 780 25 c 0,13,14
 701 0 701 0 569 0 c 2,15,-1
 119 0 l 1,16,-1
 119 1183 l 1,0,-1
358 982 m 1,17,-1
 358 200 l 1,18,-1
 536 200 l 2,19,20
 636 200 636 200 680 211 c 0,21,22
 739 225 739 225 777.5 259.5 c 128,-1,23
 816 294 816 294 840 374 c 128,-1,24
 864 454 864 454 864 591 c 0,25,26
 864 727 864 727 840 800.5 c 128,-1,27
 816 874 816 874 771.5 915.5 c 128,-1,28
 727 957 727 957 661 971 c 0,29,30
 611 982 611 982 465 982 c 2,31,-1
 358 982 l 1,17,-1
EndSplineSet
EndChar

StartChar: E
Encoding: 69 69 494
Width: 1102
Flags: W
LayerCount: 2
Fore
SplineSet
120 0 m 1,0,-1
 120 1183 l 1,1,-1
 997 1183 l 1,2,-1
 997 982 l 1,3,-1
 359 982 l 1,4,-1
 359 720 l 1,5,-1
 953 720 l 1,6,-1
 953 521 l 1,7,-1
 359 521 l 1,8,-1
 359 200 l 1,9,-1
 1019 200 l 1,10,-1
 1019 0 l 1,11,-1
 120 0 l 1,0,-1
EndSplineSet
EndChar

StartChar: F
Encoding: 70 70 495
Width: 1009
Flags: W
LayerCount: 2
Fore
SplineSet
122 0 m 1,0,-1
 122 1183 l 1,1,-1
 932 1183 l 1,2,-1
 932 982 l 1,3,-1
 361 982 l 1,4,-1
 361 702 l 1,5,-1
 853 702 l 1,6,-1
 853 502 l 1,7,-1
 361 502 l 1,8,-1
 361 0 l 1,9,-1
 122 0 l 1,0,-1
EndSplineSet
EndChar

StartChar: G
Encoding: 71 71 496
Width: 1284
Flags: W
LayerCount: 2
Fore
SplineSet
670 434 m 1,0,-1
 670 634 l 1,1,-1
 1184 634 l 1,2,-1
 1184 163 l 1,3,4
 1110 91 1110 91 967.5 35.5 c 128,-1,5
 825 -20 825 -20 680 -20 c 0,6,7
 494 -20 494 -20 356 57.5 c 128,-1,8
 218 135 218 135 148.5 280 c 128,-1,9
 79 425 79 425 79 595 c 0,10,11
 79 780 79 780 156.5 923.5 c 128,-1,12
 234 1067 234 1067 383 1143 c 0,13,14
 497 1203 497 1203 666 1203 c 0,15,16
 886 1203 886 1203 1010 1110.5 c 128,-1,17
 1134 1018 1134 1018 1169 855 c 1,18,-1
 932 811 l 1,19,20
 907 897 907 897 838 947.5 c 128,-1,21
 769 998 769 998 666 998 c 0,22,23
 510 998 510 998 417 899.5 c 128,-1,24
 324 801 324 801 324 605 c 0,25,26
 324 394 324 394 418 288.5 c 128,-1,27
 512 183 512 183 664 183 c 0,28,29
 739 183 739 183 814 213 c 128,-1,30
 889 243 889 243 943 284 c 1,31,-1
 943 434 l 1,32,-1
 670 434 l 1,0,-1
EndSplineSet
EndChar

StartChar: H
Encoding: 72 72 497
Width: 1193
Flags: W
LayerCount: 2
Fore
SplineSet
121 0 m 1,0,-1
 121 1183 l 1,1,-1
 360 1183 l 1,2,-1
 360 717 l 1,3,-1
 827 717 l 1,4,-1
 827 1183 l 1,5,-1
 1067 1183 l 1,6,-1
 1067 0 l 1,7,-1
 827 0 l 1,8,-1
 827 517 l 1,9,-1
 360 517 l 1,10,-1
 360 0 l 1,11,-1
 121 0 l 1,0,-1
EndSplineSet
EndChar

StartChar: I
Encoding: 73 73 498
Width: 459
Flags: W
LayerCount: 2
Fore
SplineSet
113 0 m 1,0,-1
 113 1183 l 1,1,-1
 352 1183 l 1,2,-1
 352 0 l 1,3,-1
 113 0 l 1,0,-1
EndSplineSet
EndChar

StartChar: J
Encoding: 74 74 499
Width: 918
Flags: W
LayerCount: 2
Fore
SplineSet
546 1183 m 1,0,-1
 785 1183 l 1,1,-1
 785 433 l 2,2,3
 785 287 785 287 759 207 c 0,4,5
 724 105 724 105 633.5 42.5 c 128,-1,6
 543 -20 543 -20 393 -20 c 0,7,8
 218 -20 218 -20 123.5 78 c 128,-1,9
 29 176 29 176 29 365 c 1,10,-1
 253 391 l 1,11,12
 257 289 257 289 283 248 c 0,13,14
 322 183 322 183 402 183 c 0,15,16
 480 183 480 183 513 229.5 c 128,-1,17
 546 276 546 276 546 418 c 2,18,-1
 546 1183 l 1,0,-1
EndSplineSet
EndChar

StartChar: K
Encoding: 75 75 500
Width: 1193
Flags: W
LayerCount: 2
Fore
SplineSet
123 0 m 1,0,-1
 123 1183 l 1,1,-1
 362 1183 l 1,2,-1
 362 657 l 1,3,-1
 845 1183 l 1,4,-1
 1165 1183 l 1,5,-1
 720 722 l 1,6,-1
 1189 0 l 1,7,-1
 881 0 l 1,8,-1
 555 554 l 1,9,-1
 362 357 l 1,10,-1
 362 0 l 1,11,-1
 123 0 l 1,0,-1
EndSplineSet
EndChar

StartChar: L
Encoding: 76 76 501
Width: 1009
Flags: W
LayerCount: 2
Fore
SplineSet
127 0 m 1,0,-1
 127 1173 l 1,1,-1
 365 1173 l 1,2,-1
 365 200 l 1,3,-1
 958 200 l 1,4,-1
 958 0 l 1,5,-1
 127 0 l 1,0,-1
EndSplineSet
EndChar

StartChar: M
Encoding: 77 77 502
Width: 1376
Flags: W
LayerCount: 2
Fore
SplineSet
117 0 m 1,0,-1
 117 1183 l 1,1,-1
 474 1183 l 1,2,-1
 689 376 l 1,3,-1
 901 1183 l 1,4,-1
 1259 1183 l 1,5,-1
 1259 0 l 1,6,-1
 1037 0 l 1,7,-1
 1037 931 l 1,8,-1
 802 0 l 1,9,-1
 573 0 l 1,10,-1
 339 931 l 1,11,-1
 339 0 l 1,12,-1
 117 0 l 1,0,-1
EndSplineSet
EndChar

StartChar: N
Encoding: 78 78 503
Width: 1193
Flags: W
LayerCount: 2
Fore
SplineSet
123 0 m 1,0,-1
 123 1183 l 1,1,-1
 354 1183 l 1,2,-1
 838 393 l 1,3,-1
 838 1183 l 1,4,-1
 1060 1183 l 1,5,-1
 1060 0 l 1,6,-1
 821 0 l 1,7,-1
 344 771 l 1,8,-1
 344 0 l 1,9,-1
 123 0 l 1,0,-1
EndSplineSet
EndChar

StartChar: O
Encoding: 79 79 504
Width: 1284
Flags: W
LayerCount: 2
Fore
SplineSet
71 584 m 0,0,1
 71 764 71 764 126 887 c 0,2,3
 166 978 166 978 236 1049.5 c 128,-1,4
 306 1121 306 1121 389 1155 c 0,5,6
 499 1203 499 1203 643 1203 c 0,7,8
 906 1203 906 1203 1062.5 1040.5 c 128,-1,9
 1219 878 1219 878 1219 590 c 0,10,11
 1219 303 1219 303 1063 141.5 c 128,-1,12
 907 -20 907 -20 647 -20 c 0,13,14
 383 -20 383 -20 227 141 c 128,-1,15
 71 302 71 302 71 584 c 0,0,1
318 591 m 0,16,17
 318 391 318 391 410.5 287 c 128,-1,18
 503 183 503 183 646 183 c 0,19,20
 788 183 788 183 880 286 c 128,-1,21
 972 389 972 389 972 595 c 0,22,23
 972 798 972 798 882.5 898 c 128,-1,24
 793 998 793 998 646 998 c 0,25,26
 498 998 498 998 408 897 c 128,-1,27
 318 796 318 796 318 591 c 0,16,17
EndSplineSet
EndChar

StartChar: P
Encoding: 80 80 505
Width: 1102
Flags: W
LayerCount: 2
Fore
SplineSet
120 0 m 1,0,-1
 120 1183 l 1,1,-1
 503 1183 l 2,2,3
 721 1183 721 1183 787 1164 c 0,4,5
 889 1138 889 1138 957.5 1048.5 c 128,-1,6
 1026 959 1026 959 1026 818 c 0,7,8
 1026 710 1026 710 986.5 635.5 c 128,-1,9
 947 561 947 561 886 519 c 128,-1,10
 825 477 825 477 762 463 c 0,11,12
 676 445 676 445 514 445 c 2,13,-1
 359 445 l 1,14,-1
 359 0 l 1,15,-1
 120 0 l 1,0,-1
359 982 m 1,16,-1
 359 647 l 1,17,-1
 490 647 l 2,18,19
 631 647 631 647 678.5 665.5 c 128,-1,20
 726 684 726 684 753 723.5 c 128,-1,21
 780 763 780 763 780 816 c 0,22,23
 780 880 780 880 742 921.5 c 128,-1,24
 704 963 704 963 646 974 c 0,25,26
 603 982 603 982 474 982 c 2,27,-1
 359 982 l 1,16,-1
EndSplineSet
EndChar

StartChar: Q
Encoding: 81 81 506
Width: 1284
Flags: W
LayerCount: 2
Fore
SplineSet
1072 150 m 1,0,1
 1159 87 1159 87 1263 50 c 1,2,-1
 1175 -119 l 1,3,4
 1121 -102 1121 -102 1069 -75 c 0,5,6
 1058 -69 1058 -69 911 30 c 1,7,8
 795 -20 795 -20 654 -20 c 0,9,10
 381 -20 381 -20 226 140.5 c 128,-1,11
 71 301 71 301 71 591 c 256,12,13
 71 881 71 881 226 1042 c 128,-1,14
 381 1203 381 1203 647 1203 c 0,15,16
 909 1203 909 1203 1063.5 1042 c 128,-1,17
 1218 881 1218 881 1218 591 c 0,18,19
 1218 438 1218 438 1175 322 c 0,20,21
 1143 233 1143 233 1072 150 c 1,0,1
880 284 m 1,22,23
 926 339 926 339 949 415.5 c 128,-1,24
 972 492 972 492 972 591 c 0,25,26
 972 796 972 796 881.5 897 c 128,-1,27
 791 998 791 998 645 998 c 256,28,29
 499 998 499 998 408.5 896.5 c 128,-1,30
 318 795 318 795 318 591 c 0,31,32
 318 384 318 384 408.5 281 c 128,-1,33
 499 178 499 178 638 178 c 0,34,35
 690 178 690 178 736 196 c 1,36,37
 664 243 664 243 588 269 c 1,38,-1
 655 405 l 1,39,40
 772 365 772 365 880 284 c 1,22,23
EndSplineSet
EndChar

StartChar: R
Encoding: 82 82 507
Width: 1193
Flags: W
LayerCount: 2
Fore
SplineSet
121 0 m 1,0,-1
 121 1183 l 1,1,-1
 623 1183 l 2,2,3
 812 1183 812 1183 898 1151 c 128,-1,4
 984 1119 984 1119 1036 1037.5 c 128,-1,5
 1088 956 1088 956 1088 851 c 0,6,7
 1088 717 1088 717 1010 630.5 c 128,-1,8
 932 544 932 544 776 522 c 1,9,10
 853 477 853 477 903 423 c 128,-1,11
 953 369 953 369 1039 231 c 2,12,-1
 1184 0 l 1,13,-1
 898 0 l 1,14,-1
 726 257 l 2,15,16
 634 395 634 395 600 431 c 128,-1,17
 566 467 566 467 528 480.5 c 128,-1,18
 490 494 490 494 408 494 c 2,19,-1
 360 494 l 1,20,-1
 360 0 l 1,21,-1
 121 0 l 1,0,-1
360 682 m 1,22,-1
 536 682 l 2,23,24
 707 682 707 682 750 696.5 c 128,-1,25
 793 711 793 711 817.5 746.5 c 128,-1,26
 842 782 842 782 842 836 c 0,27,28
 842 895 842 895 810 932 c 128,-1,29
 778 969 778 969 720 978 c 0,30,31
 691 982 691 982 546 982 c 2,32,-1
 360 982 l 1,33,-1
 360 682 l 1,22,-1
EndSplineSet
EndChar

StartChar: S
Encoding: 83 83 508
Width: 1102
Flags: W
LayerCount: 2
Fore
SplineSet
60 385 m 1,0,-1
 292 407 l 1,1,2
 312 291 312 291 377 236 c 128,-1,3
 442 181 442 181 550 181 c 0,4,5
 665 181 665 181 723.5 229.5 c 128,-1,6
 782 278 782 278 782 344 c 0,7,8
 782 385 782 385 757 414.5 c 128,-1,9
 732 444 732 444 671 465 c 0,10,11
 630 480 630 480 480 518 c 0,12,13
 288 565 288 565 212 635 c 0,14,15
 102 732 102 732 102 873 c 0,16,17
 102 963 102 963 153.5 1041.5 c 128,-1,18
 205 1120 205 1120 301 1161.5 c 128,-1,19
 397 1203 397 1203 534 1203 c 0,20,21
 756 1203 756 1203 869 1105 c 128,-1,22
 982 1007 982 1007 987 845 c 1,23,-1
 748 833 l 1,24,25
 732 926 732 926 682 965.5 c 128,-1,26
 632 1005 632 1005 531 1005 c 0,27,28
 428 1005 428 1005 369 962 c 0,29,30
 331 934 331 934 331 889 c 0,31,32
 331 847 331 847 366 816 c 0,33,34
 412 780 412 780 586 738 c 128,-1,35
 760 696 760 696 843.5 652.5 c 128,-1,36
 927 609 927 609 974 533 c 128,-1,37
 1021 457 1021 457 1021 344 c 0,38,39
 1021 243 1021 243 964.5 154.5 c 128,-1,40
 908 66 908 66 804.5 22.5 c 128,-1,41
 701 -21 701 -21 548 -21 c 0,42,43
 323 -21 323 -21 202.5 82.5 c 128,-1,44
 82 186 82 186 60 385 c 1,0,-1
EndSplineSet
EndChar

StartChar: T
Encoding: 84 84 509
Width: 1009
Flags: W
LayerCount: 2
Fore
SplineSet
386 0 m 1,0,-1
 386 982 l 1,1,-1
 35 982 l 1,2,-1
 35 1183 l 1,3,-1
 974 1183 l 1,4,-1
 974 982 l 1,5,-1
 625 982 l 1,6,-1
 625 0 l 1,7,-1
 386 0 l 1,0,-1
EndSplineSet
EndChar

StartChar: U
Encoding: 85 85 510
Width: 1193
Flags: W
LayerCount: 2
Fore
SplineSet
119 1183 m 1,0,-1
 357 1183 l 1,1,-1
 357 543 l 2,2,3
 357 389 357 389 366 344 c 0,4,5
 381 272 381 272 439 227.5 c 128,-1,6
 497 183 497 183 596 183 c 0,7,8
 699 183 699 183 750 225 c 128,-1,9
 801 267 801 267 811.5 327.5 c 128,-1,10
 822 388 822 388 822 528 c 2,11,-1
 822 1183 l 1,12,-1
 1062 1183 l 1,13,-1
 1062 561 l 2,14,15
 1062 349 1062 349 1042 260.5 c 128,-1,16
 1022 172 1022 172 970 111.5 c 128,-1,17
 918 51 918 51 831 15.5 c 128,-1,18
 744 -20 744 -20 604 -20 c 0,19,20
 434 -20 434 -20 347 19.5 c 128,-1,21
 260 59 260 59 209 121 c 128,-1,22
 158 183 158 183 142 252 c 0,23,24
 119 353 119 353 119 551 c 2,25,-1
 119 1183 l 1,0,-1
EndSplineSet
EndChar

StartChar: V
Encoding: 86 86 511
Width: 1102
Flags: W
LayerCount: 2
Fore
SplineSet
422 0 m 1,0,-1
 -1 1183 l 1,1,-1
 258 1183 l 1,2,-1
 558 307 l 1,3,-1
 847 1183 l 1,4,-1
 1100 1183 l 1,5,-1
 676 0 l 1,6,-1
 422 0 l 1,0,-1
EndSplineSet
EndChar

StartChar: W
Encoding: 87 87 512
Width: 1558
Flags: W
LayerCount: 2
Fore
SplineSet
288 0 m 1,0,-1
 6 1183 l 1,1,-1
 250 1183 l 1,2,-1
 428 370 l 1,3,-1
 644 1183 l 1,4,-1
 928 1183 l 1,5,-1
 1135 357 l 1,6,-1
 1316 1183 l 1,7,-1
 1557 1183 l 1,8,-1
 1270 0 l 1,9,-1
 1017 0 l 1,10,-1
 781 884 l 1,11,-1
 546 0 l 1,12,-1
 288 0 l 1,0,-1
EndSplineSet
EndChar

StartChar: X
Encoding: 88 88 513
Width: 1102
Flags: W
LayerCount: 2
Fore
SplineSet
0 0 m 1,0,-1
 404 617 l 1,1,-1
 39 1183 l 1,2,-1
 317 1183 l 1,3,-1
 554 802 l 1,4,-1
 786 1183 l 1,5,-1
 1063 1183 l 1,6,-1
 696 608 l 1,7,-1
 1099 0 l 1,8,-1
 811 0 l 1,9,-1
 549 409 l 1,10,-1
 286 0 l 1,11,-1
 0 0 l 1,0,-1
EndSplineSet
EndChar

StartChar: Y
Encoding: 89 89 514
Width: 1102
Flags: W
LayerCount: 2
Fore
SplineSet
430 0 m 1,0,-1
 430 498 l 1,1,-1
 -2 1183 l 1,2,-1
 277 1183 l 1,3,-1
 555 715 l 1,4,-1
 828 1183 l 1,5,-1
 1103 1183 l 1,6,-1
 669 496 l 1,7,-1
 669 0 l 1,8,-1
 430 0 l 1,0,-1
EndSplineSet
EndChar

StartChar: Z
Encoding: 90 90 515
Width: 1009
Flags: W
LayerCount: 2
Fore
SplineSet
18 0 m 1,0,-1
 18 216 l 1,1,-1
 639 982 l 1,2,-1
 87 982 l 1,3,-1
 87 1183 l 1,4,-1
 953 1183 l 1,5,-1
 953 997 l 1,6,-1
 306 200 l 1,7,-1
 978 200 l 1,8,-1
 978 0 l 1,9,-1
 18 0 l 1,0,-1
EndSplineSet
EndChar

StartChar: a
Encoding: 97 97 516
Width: 918
Flags: W
LayerCount: 2
Fore
SplineSet
288 595 m 1,0,-1
 82 632 l 1,1,2
 117 756 117 756 201.5 816 c 128,-1,3
 286 876 286 876 454 876 c 0,4,5
 605 876 605 876 679 840.5 c 128,-1,6
 753 805 753 805 783 749.5 c 128,-1,7
 813 694 813 694 813 546 c 2,8,-1
 811 281 l 2,9,10
 811 168 811 168 821.5 114.5 c 128,-1,11
 832 61 832 61 863 0 c 1,12,-1
 639 0 l 1,13,14
 630 22 630 22 617 66 c 0,15,16
 611 87 611 87 609 94 c 1,17,18
 550 37 550 37 484 9 c 128,-1,19
 418 -19 418 -19 344 -19 c 0,20,21
 212 -19 212 -19 135.5 52.5 c 128,-1,22
 59 124 59 124 59 234 c 0,23,24
 59 307 59 307 93.5 363.5 c 128,-1,25
 128 420 128 420 190.5 450 c 128,-1,26
 253 480 253 480 371 503 c 0,27,28
 530 533 530 533 591 559 c 1,29,-1
 591 581 l 2,30,31
 591 647 591 647 558.5 674.5 c 128,-1,32
 526 702 526 702 438 702 c 0,33,34
 377 702 377 702 342.5 678.5 c 128,-1,35
 308 655 308 655 288 595 c 1,0,-1
591 412 m 1,36,37
 548 397 548 397 453.5 377 c 128,-1,38
 359 357 359 357 329 337 c 0,39,40
 286 306 286 306 286 257 c 0,41,42
 286 210 286 210 321.5 175 c 128,-1,43
 357 140 357 140 412 140 c 0,44,45
 473 140 473 140 528 181 c 0,46,47
 570 212 570 212 583 256 c 0,48,49
 591 284 591 284 591 366 c 2,50,-1
 591 412 l 1,36,37
EndSplineSet
EndChar

StartChar: b
Encoding: 98 98 517
Width: 1009
Flags: W
LayerCount: 2
Fore
SplineSet
109 0 m 1,0,-1
 109 1183 l 1,1,-1
 336 1183 l 1,2,-1
 336 756 l 1,3,4
 440 876 440 876 584 876 c 0,5,6
 740 876 740 876 843 762.5 c 128,-1,7
 946 649 946 649 946 438 c 0,8,9
 946 218 946 218 841 99.5 c 128,-1,10
 736 -19 736 -19 586 -19 c 0,11,12
 514 -19 514 -19 442.5 18 c 128,-1,13
 371 55 371 55 319 126 c 1,14,-1
 319 0 l 1,15,-1
 109 0 l 1,0,-1
333 447 m 0,16,17
 333 313 333 313 376 250 c 0,18,19
 434 160 434 160 533 160 c 0,20,21
 606 160 606 160 659 224 c 128,-1,22
 712 288 712 288 712 425 c 0,23,24
 712 573 712 573 659 637.5 c 128,-1,25
 606 702 606 702 523 702 c 0,26,27
 442 702 442 702 387.5 638.5 c 128,-1,28
 333 575 333 575 333 447 c 0,16,17
EndSplineSet
EndChar

StartChar: c
Encoding: 99 99 518
Width: 918
Flags: W
LayerCount: 2
Fore
SplineSet
865 603 m 1,0,-1
 642 563 l 1,1,2
 631 630 631 630 590.5 663.5 c 128,-1,3
 550 697 550 697 487 697 c 0,4,5
 402 697 402 697 352 638.5 c 128,-1,6
 302 580 302 580 302 444 c 0,7,8
 302 291 302 291 353 228 c 128,-1,9
 404 165 404 165 490 165 c 0,10,11
 554 165 554 165 595.5 202 c 128,-1,12
 637 239 637 239 654 328 c 1,13,-1
 877 291 l 1,14,15
 842 137 842 137 743.5 59 c 128,-1,16
 645 -19 645 -19 480 -19 c 0,17,18
 292 -19 292 -19 180.5 99.5 c 128,-1,19
 69 218 69 218 69 428 c 0,20,21
 69 639 69 639 180.5 757.5 c 128,-1,22
 292 876 292 876 484 876 c 0,23,24
 640 876 640 876 732.5 808.5 c 128,-1,25
 825 741 825 741 865 603 c 1,0,-1
EndSplineSet
EndChar

StartChar: d
Encoding: 100 100 519
Width: 1009
Flags: W
LayerCount: 2
Fore
SplineSet
904 0 m 1,0,-1
 694 0 l 1,1,-1
 694 126 l 1,2,3
 641 52 641 52 569.5 16.5 c 128,-1,4
 498 -19 498 -19 425 -19 c 0,5,6
 278 -19 278 -19 172.5 99.5 c 128,-1,7
 67 218 67 218 67 432 c 0,8,9
 67 649 67 649 169.5 762.5 c 128,-1,10
 272 876 272 876 429 876 c 0,11,12
 573 876 573 876 677 756 c 1,13,-1
 677 1183 l 1,14,-1
 904 1183 l 1,15,-1
 904 0 l 1,0,-1
299 447 m 0,16,17
 299 309 299 309 337 248 c 0,18,19
 392 160 392 160 490 160 c 0,20,21
 569 160 569 160 624 226 c 128,-1,22
 679 292 679 292 679 425 c 0,23,24
 679 573 679 573 625 637.5 c 128,-1,25
 571 702 571 702 489 702 c 0,26,27
 408 702 408 702 353.5 638.5 c 128,-1,28
 299 575 299 575 299 447 c 0,16,17
EndSplineSet
EndChar

StartChar: e
Encoding: 101 101 520
Width: 918
Flags: W
LayerCount: 2
Fore
SplineSet
615 272 m 1,0,-1
 841 235 l 1,1,2
 796 111 796 111 702.5 46 c 128,-1,3
 609 -19 609 -19 468 -19 c 0,4,5
 244 -19 244 -19 137 127 c 0,6,7
 52 244 52 244 52 422 c 0,8,9
 52 635 52 635 164 755.5 c 128,-1,10
 276 876 276 876 445 876 c 0,11,12
 636 876 636 876 746.5 749.5 c 128,-1,13
 857 623 857 623 853 363 c 1,14,-1
 284 363 l 1,15,16
 287 262 287 262 339.5 206 c 128,-1,17
 392 150 392 150 470 150 c 0,18,19
 523 150 523 150 559.5 178.5 c 128,-1,20
 596 207 596 207 615 272 c 1,0,-1
627 502 m 1,21,22
 625 600 625 600 576.5 651 c 128,-1,23
 528 702 528 702 459 702 c 0,24,25
 385 702 385 702 337 648 c 0,26,27
 288 595 288 595 288 502 c 1,28,-1
 627 502 l 1,21,22
EndSplineSet
EndChar

StartChar: f
Encoding: 102 102 521
Width: 550
Flags: W
LayerCount: 2
Fore
SplineSet
19 857 m 1,0,-1
 145 857 l 1,1,-1
 145 921 l 2,2,3
 145 1029 145 1029 168.5 1082 c 128,-1,4
 192 1135 192 1135 253 1169 c 128,-1,5
 314 1203 314 1203 409 1203 c 0,6,7
 506 1203 506 1203 599 1173 c 1,8,-1
 568 1015 l 1,9,10
 514 1028 514 1028 464 1028 c 256,11,12
 414 1028 414 1028 393 1005 c 128,-1,13
 372 982 372 982 372 917 c 2,14,-1
 372 857 l 1,15,-1
 541 857 l 1,16,-1
 541 679 l 1,17,-1
 372 679 l 1,18,-1
 372 0 l 1,19,-1
 145 0 l 1,20,-1
 145 679 l 1,21,-1
 19 679 l 1,22,-1
 19 857 l 1,0,-1
EndSplineSet
EndChar

StartChar: g
Encoding: 103 103 522
Width: 1009
Flags: W
LayerCount: 2
Fore
SplineSet
97 -56 m 1,0,-1
 357 -87 l 1,1,2
 363 -133 363 -133 386 -150 c 0,3,4
 418 -175 418 -175 488 -175 c 0,5,6
 576 -175 576 -175 621 -147 c 0,7,8
 651 -130 651 -130 666 -91 c 0,9,10
 676 -62 676 -62 676 14 c 2,11,-1
 676 139 l 1,12,13
 575 0 575 0 420 0 c 0,14,15
 248 0 248 0 147 146 c 0,16,17
 67 261 67 261 67 433 c 0,18,19
 67 648 67 648 171.5 762 c 128,-1,20
 276 876 276 876 429 876 c 0,21,22
 588 876 588 876 691 736 c 1,23,-1
 691 857 l 1,24,-1
 903 857 l 1,25,-1
 903 87 l 2,26,27
 903 -64 903 -64 878 -138.5 c 128,-1,28
 853 -213 853 -213 808 -256 c 128,-1,29
 763 -299 763 -299 687.5 -323.5 c 128,-1,30
 612 -348 612 -348 497 -348 c 0,31,32
 279 -348 279 -348 188 -273 c 128,-1,33
 97 -198 97 -198 97 -84 c 0,34,35
 97 -72 97 -72 97 -56 c 1,0,-1
301 445 m 0,36,37
 301 309 301 309 353 246 c 128,-1,38
 405 183 405 183 483 183 c 0,39,40
 566 183 566 183 623 247.5 c 128,-1,41
 680 312 680 312 680 440 c 0,42,43
 680 574 680 574 625 638 c 128,-1,44
 570 702 570 702 487 702 c 0,45,46
 405 702 405 702 353 638.5 c 128,-1,47
 301 575 301 575 301 445 c 0,36,37
EndSplineSet
EndChar

StartChar: h
Encoding: 104 104 523
Width: 1009
Flags: W
LayerCount: 2
Fore
SplineSet
344 1183 m 1,0,-1
 344 748 l 1,1,2
 454 876 454 876 606 876 c 0,3,4
 685 876 685 876 748 846.5 c 128,-1,5
 811 817 811 817 842.5 772 c 128,-1,6
 874 727 874 727 885.5 672.5 c 128,-1,7
 897 618 897 618 897 502 c 2,8,-1
 897 0 l 1,9,-1
 671 0 l 1,10,-1
 671 453 l 2,11,12
 671 586 671 586 658 622.5 c 128,-1,13
 645 659 645 659 612.5 680.5 c 128,-1,14
 580 702 580 702 530 702 c 0,15,16
 474 702 474 702 429.5 674.5 c 128,-1,17
 385 647 385 647 364.5 592.5 c 128,-1,18
 344 538 344 538 344 429 c 2,19,-1
 344 0 l 1,20,-1
 118 0 l 1,21,-1
 118 1183 l 1,22,-1
 344 1183 l 1,0,-1
EndSplineSet
EndChar

StartChar: i
Encoding: 105 105 524
Width: 459
Flags: W
LayerCount: 2
Fore
SplineSet
119 973 m 1,0,-1
 119 1183 l 1,1,-1
 344 1183 l 1,2,-1
 344 973 l 1,3,-1
 119 973 l 1,0,-1
119 0 m 1,4,-1
 119 857 l 1,5,-1
 344 857 l 1,6,-1
 344 0 l 1,7,-1
 119 0 l 1,4,-1
EndSplineSet
EndChar

StartChar: j
Encoding: 106 106 525
Width: 459
Flags: W
LayerCount: 2
Fore
SplineSet
114 973 m 1,0,-1
 114 1183 l 1,1,-1
 341 1183 l 1,2,-1
 341 973 l 1,3,-1
 114 973 l 1,0,-1
341 857 m 1,4,-1
 341 26 l 2,5,6
 341 -137 341 -137 319 -204.5 c 128,-1,7
 297 -272 297 -272 236.5 -310 c 128,-1,8
 176 -348 176 -348 81 -348 c 0,9,10
 47 -348 47 -348 8.5 -342 c 128,-1,11
 -30 -336 -30 -336 -76 -323 c 1,12,-1
 -36 -130 l 1,13,14
 -20 -133 -20 -133 -6 -135 c 128,-1,15
 8 -137 8 -137 20 -137 c 0,16,17
 55 -137 55 -137 77 -122 c 128,-1,18
 99 -107 99 -107 106.5 -86.5 c 128,-1,19
 114 -66 114 -66 114 39 c 2,20,-1
 114 857 l 1,21,-1
 341 857 l 1,4,-1
EndSplineSet
EndChar

StartChar: k
Encoding: 107 107 526
Width: 918
Flags: W
LayerCount: 2
Fore
SplineSet
111 0 m 1,0,-1
 111 1183 l 1,1,-1
 337 1183 l 1,2,-1
 337 554 l 1,3,-1
 603 857 l 1,4,-1
 881 857 l 1,5,-1
 589 543 l 1,6,-1
 902 0 l 1,7,-1
 659 0 l 1,8,-1
 443 385 l 1,9,-1
 337 274 l 1,10,-1
 337 0 l 1,11,-1
 111 0 l 1,0,-1
EndSplineSet
EndChar

StartChar: l
Encoding: 108 108 527
Width: 459
Flags: W
LayerCount: 2
Fore
SplineSet
119 0 m 1,0,-1
 119 1183 l 1,1,-1
 344 1183 l 1,2,-1
 344 0 l 1,3,-1
 119 0 l 1,0,-1
EndSplineSet
EndChar

StartChar: m
Encoding: 109 109 528
Width: 1468
Flags: W
LayerCount: 2
Fore
SplineSet
102 857 m 1,0,-1
 311 857 l 1,1,-1
 311 740 l 1,2,3
 423 876 423 876 578 876 c 0,4,5
 659 876 659 876 719.5 842 c 128,-1,6
 780 808 780 808 820 740 c 1,7,8
 876 808 876 808 941 842 c 128,-1,9
 1006 876 1006 876 1080 876 c 0,10,11
 1175 876 1175 876 1240 838 c 128,-1,12
 1305 800 1305 800 1337 725 c 0,13,14
 1361 670 1361 670 1361 548 c 2,15,-1
 1361 0 l 1,16,-1
 1135 0 l 1,17,-1
 1135 490 l 2,18,19
 1135 617 1135 617 1110 654 c 0,20,21
 1079 702 1079 702 1014 702 c 0,22,23
 967 702 967 702 925 673 c 128,-1,24
 883 644 883 644 864.5 588.5 c 128,-1,25
 846 533 846 533 846 412 c 2,26,-1
 846 0 l 1,27,-1
 619 0 l 1,28,-1
 619 470 l 2,29,30
 619 595 619 595 607 631 c 128,-1,31
 595 667 595 667 569.5 684.5 c 128,-1,32
 544 702 544 702 501 702 c 0,33,34
 449 702 449 702 407 674 c 128,-1,35
 365 646 365 646 346.5 592.5 c 128,-1,36
 328 539 328 539 328 417 c 2,37,-1
 328 0 l 1,38,-1
 102 0 l 1,39,-1
 102 857 l 1,0,-1
EndSplineSet
EndChar

StartChar: n
Encoding: 110 110 529
Width: 1009
Flags: W
LayerCount: 2
Fore
SplineSet
897 0 m 1,0,-1
 671 0 l 1,1,-1
 671 438 l 2,2,3
 671 575 671 575 656.5 616 c 128,-1,4
 642 657 642 657 609 679.5 c 128,-1,5
 576 702 576 702 530 702 c 0,6,7
 472 702 472 702 425 670 c 128,-1,8
 378 638 378 638 361 584.5 c 128,-1,9
 344 531 344 531 344 388 c 2,10,-1
 344 0 l 1,11,-1
 117 0 l 1,12,-1
 117 857 l 1,13,-1
 328 857 l 1,14,-1
 328 731 l 1,15,16
 439 876 439 876 610 876 c 0,17,18
 685 876 685 876 746.5 849 c 128,-1,19
 808 822 808 822 840.5 780 c 128,-1,20
 873 738 873 738 885 684.5 c 128,-1,21
 897 631 897 631 897 533 c 2,22,-1
 897 0 l 1,0,-1
EndSplineSet
EndChar

StartChar: o
Encoding: 111 111 530
Width: 1009
Flags: W
LayerCount: 2
Fore
SplineSet
66 440 m 0,0,1
 66 554 66 554 121.5 659 c 128,-1,2
 177 764 177 764 279 820 c 128,-1,3
 381 876 381 876 507 876 c 0,4,5
 701 876 701 876 825 749.5 c 128,-1,6
 949 623 949 623 949 430 c 0,7,8
 949 236 949 236 824.5 108.5 c 128,-1,9
 700 -19 700 -19 509 -19 c 0,10,11
 391 -19 391 -19 284 34 c 128,-1,12
 177 87 177 87 121.5 189.5 c 128,-1,13
 66 292 66 292 66 440 c 0,0,1
298 428 m 256,14,15
 298 301 298 301 358.5 233 c 128,-1,16
 419 165 419 165 508 165 c 0,17,18
 596 165 596 165 656.5 233 c 128,-1,19
 717 301 717 301 717 429 c 0,20,21
 717 555 717 555 656.5 623 c 128,-1,22
 596 691 596 691 508 691 c 0,23,24
 419 691 419 691 358.5 623 c 128,-1,25
 298 555 298 555 298 428 c 256,14,15
EndSplineSet
EndChar

StartChar: p
Encoding: 112 112 531
Width: 1009
Flags: W
LayerCount: 2
Fore
SplineSet
112 857 m 1,0,-1
 323 857 l 1,1,-1
 323 731 l 1,2,3
 365 795 365 795 435 835.5 c 128,-1,4
 505 876 505 876 591 876 c 0,5,6
 740 876 740 876 844 759 c 128,-1,7
 948 642 948 642 948 433 c 0,8,9
 948 218 948 218 843 99.5 c 128,-1,10
 738 -19 738 -19 589 -19 c 0,11,12
 518 -19 518 -19 460 9 c 128,-1,13
 402 37 402 37 339 106 c 1,14,-1
 339 -326 l 1,15,-1
 112 -326 l 1,16,-1
 112 857 l 1,0,-1
337 443 m 0,17,18
 337 298 337 298 393.5 229 c 128,-1,19
 450 160 450 160 533 160 c 0,20,21
 612 160 612 160 664.5 223.5 c 128,-1,22
 717 287 717 287 717 432 c 0,23,24
 717 566 717 566 663 631 c 128,-1,25
 609 696 609 696 529 696 c 0,26,27
 445 696 445 696 391 632.5 c 128,-1,28
 337 569 337 569 337 443 c 0,17,18
EndSplineSet
EndChar

StartChar: q
Encoding: 113 113 532
Width: 1009
Flags: W
LayerCount: 2
Fore
SplineSet
679 -326 m 1,0,-1
 679 105 l 1,1,2
 634 47 634 47 568 14 c 128,-1,3
 502 -19 502 -19 425 -19 c 0,4,5
 279 -19 279 -19 185 91 c 0,6,7
 74 218 74 218 74 438 c 0,8,9
 74 644 74 644 178 760 c 128,-1,10
 282 876 282 876 438 876 c 0,11,12
 522 876 522 876 584.5 839.5 c 128,-1,13
 647 803 647 803 696 730 c 1,14,-1
 696 857 l 1,15,-1
 906 857 l 1,16,-1
 906 -326 l 1,17,-1
 679 -326 l 1,0,-1
685 438 m 0,18,19
 685 570 685 570 632 634.5 c 128,-1,20
 579 699 579 699 498 699 c 0,21,22
 415 699 415 699 359.5 633.5 c 128,-1,23
 304 568 304 568 304 425 c 0,24,25
 304 284 304 284 358 222 c 128,-1,26
 412 160 412 160 490 160 c 256,27,28
 568 160 568 160 626.5 230.5 c 128,-1,29
 685 301 685 301 685 438 c 0,18,19
EndSplineSet
EndChar

StartChar: r
Encoding: 114 114 533
Width: 643
Flags: W
LayerCount: 2
Fore
SplineSet
336 0 m 1,0,-1
 109 0 l 1,1,-1
 109 857 l 1,2,-1
 319 857 l 1,3,-1
 319 735 l 1,4,5
 373 821 373 821 416 848.5 c 128,-1,6
 459 876 459 876 514 876 c 0,7,8
 591 876 591 876 664 832 c 1,9,-1
 594 635 l 1,10,11
 536 672 536 672 487 672 c 0,12,13
 439 672 439 672 406 646 c 128,-1,14
 373 620 373 620 354.5 551.5 c 128,-1,15
 336 483 336 483 336 264 c 2,16,-1
 336 0 l 1,0,-1
EndSplineSet
EndChar

StartChar: s
Encoding: 115 115 534
Width: 918
Flags: W
LayerCount: 2
Fore
SplineSet
39 244 m 1,0,-1
 266 279 l 1,1,2
 281 213 281 213 325 178.5 c 128,-1,3
 369 144 369 144 449 144 c 0,4,5
 538 144 538 144 581 176 c 0,6,7
 611 200 611 200 611 237 c 0,8,9
 611 263 611 263 595 281 c 0,10,11
 579 297 579 297 519 309 c 0,12,13
 245 370 245 370 171 420 c 0,14,15
 71 490 71 490 71 613 c 0,16,17
 71 724 71 724 158.5 800 c 128,-1,18
 246 876 246 876 430 876 c 0,19,20
 606 876 606 876 691.5 818.5 c 128,-1,21
 777 761 777 761 810 649 c 1,22,-1
 596 610 l 1,23,24
 583 659 583 659 544.5 685.5 c 128,-1,25
 506 712 506 712 434 712 c 0,26,27
 344 712 344 712 307 687 c 0,28,29
 281 670 281 670 281 642 c 0,30,31
 281 618 281 618 303 601 c 0,32,33
 333 579 333 579 514.5 537.5 c 128,-1,34
 696 496 696 496 768 437 c 0,35,36
 838 376 838 376 838 268 c 0,37,38
 838 150 838 150 740 65.5 c 128,-1,39
 642 -19 642 -19 449 -19 c 0,40,41
 274 -19 274 -19 172.5 52 c 128,-1,42
 71 123 71 123 39 244 c 1,0,-1
EndSplineSet
EndChar

StartChar: t
Encoding: 116 116 535
Width: 550
Flags: W
LayerCount: 2
Fore
SplineSet
511 857 m 1,0,-1
 511 675 l 1,1,-1
 357 675 l 1,2,-1
 357 331 l 2,3,4
 357 226 357 226 361 209 c 128,-1,5
 365 192 365 192 381 180 c 128,-1,6
 397 168 397 168 419 168 c 0,7,8
 450 168 450 168 510 191 c 1,9,-1
 530 14 l 1,10,11
 450 -19 450 -19 351 -19 c 0,12,13
 289 -19 289 -19 240.5 1.5 c 128,-1,14
 192 22 192 22 168.5 54.5 c 128,-1,15
 145 87 145 87 136 143 c 0,16,17
 129 182 129 182 129 302 c 2,18,-1
 129 675 l 1,19,-1
 25 675 l 1,20,-1
 25 857 l 1,21,-1
 129 857 l 1,22,-1
 129 1026 l 1,23,-1
 357 1159 l 1,24,-1
 357 857 l 1,25,-1
 511 857 l 1,0,-1
EndSplineSet
EndChar

StartChar: u
Encoding: 117 117 536
Width: 1009
Flags: W
LayerCount: 2
Fore
SplineSet
682 0 m 1,0,-1
 682 128 l 1,1,2
 635 60 635 60 559 20.5 c 128,-1,3
 483 -19 483 -19 398 -19 c 0,4,5
 312 -19 312 -19 244 18.5 c 128,-1,6
 176 56 176 56 145 124.5 c 128,-1,7
 114 193 114 193 114 314 c 2,8,-1
 114 857 l 1,9,-1
 341 857 l 1,10,-1
 341 463 l 2,11,12
 341 282 341 282 353 241.5 c 128,-1,13
 365 201 365 201 398.5 177 c 128,-1,14
 432 153 432 153 482 153 c 0,15,16
 540 153 540 153 586 185 c 128,-1,17
 632 217 632 217 649 264.5 c 128,-1,18
 666 312 666 312 666 495 c 2,19,-1
 666 857 l 1,20,-1
 893 857 l 1,21,-1
 893 0 l 1,22,-1
 682 0 l 1,0,-1
EndSplineSet
EndChar

StartChar: v
Encoding: 118 118 537
Width: 918
Flags: W
LayerCount: 2
Fore
SplineSet
354 0 m 1,0,-1
 9 857 l 1,1,-1
 247 857 l 1,2,-1
 408 419 l 1,3,-1
 454 273 l 1,4,5
 474 328 474 328 478 347 c 0,6,7
 490 383 490 383 502 419 c 2,8,-1
 665 857 l 1,9,-1
 898 857 l 1,10,-1
 559 0 l 1,11,-1
 354 0 l 1,0,-1
EndSplineSet
EndChar

StartChar: w
Encoding: 119 119 538
Width: 1284
Flags: W
LayerCount: 2
Fore
SplineSet
278 0 m 1,0,-1
 7 857 l 1,1,-1
 228 857 l 1,2,-1
 388 296 l 1,3,-1
 535 857 l 1,4,-1
 754 857 l 1,5,-1
 897 296 l 1,6,-1
 1060 857 l 1,7,-1
 1284 857 l 1,8,-1
 1009 0 l 1,9,-1
 791 0 l 1,10,-1
 643 550 l 1,11,-1
 498 0 l 1,12,-1
 278 0 l 1,0,-1
EndSplineSet
EndChar

StartChar: x
Encoding: 120 120 539
Width: 918
Flags: W
LayerCount: 2
Fore
SplineSet
10 0 m 1,0,-1
 318 442 l 1,1,-1
 22 857 l 1,2,-1
 299 857 l 1,3,-1
 450 621 l 1,4,-1
 611 857 l 1,5,-1
 877 857 l 1,6,-1
 586 450 l 1,7,-1
 903 0 l 1,8,-1
 625 0 l 1,9,-1
 450 265 l 1,10,-1
 276 0 l 1,11,-1
 10 0 l 1,0,-1
EndSplineSet
EndChar

StartChar: y
Encoding: 121 121 540
Width: 918
Flags: W
LayerCount: 2
Fore
SplineSet
11 857 m 1,0,-1
 252 857 l 1,1,-1
 458 248 l 1,2,-1
 657 857 l 1,3,-1
 892 857 l 1,4,-1
 590 32 l 1,5,-1
 535 -117 l 2,6,7
 506 -192 506 -192 479 -231.5 c 128,-1,8
 452 -271 452 -271 416.5 -296 c 128,-1,9
 381 -321 381 -321 330 -334.5 c 128,-1,10
 279 -348 279 -348 215 -348 c 0,11,12
 150 -348 150 -348 87 -333 c 1,13,-1
 66 -156 l 1,14,15
 119 -167 119 -167 162 -167 c 0,16,17
 241 -167 241 -167 279 -121 c 128,-1,18
 317 -75 317 -75 337 -2 c 1,19,-1
 11 857 l 1,0,-1
EndSplineSet
EndChar

StartChar: z
Encoding: 122 122 541
Width: 826
Flags: W
LayerCount: 2
Fore
SplineSet
27 0 m 1,0,-1
 27 176 l 1,1,-1
 349 545 l 2,2,3
 428 635 428 635 465 674 c 1,4,5
 425 671 425 671 361 670 c 2,6,-1
 59 669 l 1,7,-1
 59 857 l 1,8,-1
 767 857 l 1,9,-1
 767 696 l 1,10,-1
 439 318 l 1,11,-1
 324 193 l 1,12,13
 418 200 418 200 442 200 c 2,14,-1
 792 200 l 1,15,-1
 792 0 l 1,16,-1
 27 0 l 1,0,-1
EndSplineSet
EndChar

StartChar: two
Encoding: 50 50 542
Width: 918
Flags: W
LayerCount: 2
Fore
SplineSet
836 211 m 1,0,-1
 836 0 l 1,1,-1
 41 0 l 1,2,3
 55 119 55 119 119 226 c 128,-1,4
 183 333 183 333 373 510 c 0,5,6
 526 652 526 652 561 704 c 0,7,8
 608 773 608 773 608 842 c 0,9,10
 608 917 608 917 567 958 c 128,-1,11
 526 999 526 999 454 999 c 0,12,13
 384 999 384 999 342.5 956 c 128,-1,14
 301 913 301 913 293 815 c 1,15,-1
 67 837 l 1,16,17
 87 1024 87 1024 194 1106 c 128,-1,18
 301 1188 301 1188 460 1188 c 0,19,20
 635 1188 635 1188 735.5 1093 c 128,-1,21
 836 998 836 998 836 858 c 0,22,23
 836 778 836 778 807 706 c 128,-1,24
 778 634 778 634 716 554 c 0,25,26
 675 502 675 502 567.5 404 c 128,-1,27
 460 306 460 306 431.5 273.5 c 128,-1,28
 403 241 403 241 385 211 c 1,29,-1
 836 211 l 1,0,-1
EndSplineSet
EndChar

StartChar: three
Encoding: 51 51 543
Width: 918
Flags: W
LayerCount: 2
Fore
SplineSet
62 313 m 1,0,-1
 281 341 l 1,1,2
 292 256 292 256 338 211.5 c 128,-1,3
 384 167 384 167 449 167 c 0,4,5
 519 167 519 167 567 220.5 c 128,-1,6
 615 274 615 274 615 365 c 0,7,8
 615 449 615 449 569 499.5 c 128,-1,9
 523 550 523 550 458 550 c 0,10,11
 413 550 413 550 353 533 c 1,12,-1
 378 717 l 1,13,14
 470 716 470 716 518 758.5 c 128,-1,15
 566 801 566 801 566 870 c 0,16,17
 566 929 566 929 531 965 c 128,-1,18
 496 1001 496 1001 438 1001 c 0,19,20
 379 1001 379 1001 338 961 c 128,-1,21
 297 921 297 921 288 843 c 1,22,-1
 79 878 l 1,23,24
 101 986 101 986 144.5 1050 c 128,-1,25
 188 1114 188 1114 267 1151 c 128,-1,26
 346 1188 346 1188 444 1188 c 0,27,28
 611 1188 611 1188 711 1080 c 0,29,30
 795 994 795 994 795 884 c 0,31,32
 795 727 795 727 624 635 c 1,33,34
 726 614 726 614 787 538 c 128,-1,35
 848 462 848 462 848 354 c 0,36,37
 848 200 848 200 734 90 c 128,-1,38
 620 -20 620 -20 450 -20 c 0,39,40
 291 -20 291 -20 185 72.5 c 128,-1,41
 79 165 79 165 62 313 c 1,0,-1
EndSplineSet
EndChar

StartChar: four
Encoding: 52 52 544
Width: 918
Flags: W
LayerCount: 2
Fore
SplineSet
514 0 m 1,0,-1
 514 238 l 1,1,-1
 30 238 l 1,2,-1
 30 437 l 1,3,-1
 543 1188 l 1,4,-1
 734 1188 l 1,5,-1
 734 438 l 1,6,-1
 881 438 l 1,7,-1
 881 238 l 1,8,-1
 734 238 l 1,9,-1
 734 0 l 1,10,-1
 514 0 l 1,0,-1
514 438 m 1,11,-1
 514 841 l 1,12,-1
 243 438 l 1,13,-1
 514 438 l 1,11,-1
EndSplineSet
EndChar

StartChar: five
Encoding: 53 53 545
Width: 918
Flags: W
LayerCount: 2
Fore
SplineSet
74 304 m 1,0,-1
 299 328 l 1,1,2
 308 251 308 251 356 206 c 128,-1,3
 404 161 404 161 465 161 c 0,4,5
 538 161 538 161 586.5 218.5 c 128,-1,6
 635 276 635 276 635 393 c 0,7,8
 635 502 635 502 586.5 556.5 c 128,-1,9
 538 611 538 611 459 611 c 0,10,11
 362 611 362 611 284 524 c 1,12,-1
 101 550 l 1,13,-1
 217 1166 l 1,14,-1
 816 1166 l 1,15,-1
 816 953 l 1,16,-1
 389 953 l 1,17,-1
 353 753 l 1,18,19
 429 791 429 791 508 791 c 0,20,21
 659 791 659 791 764 681 c 128,-1,22
 869 571 869 571 869 397 c 0,23,24
 869 251 869 251 785 136 c 0,25,26
 669 -20 669 -20 464 -20 c 0,27,28
 301 -20 301 -20 197.5 67.5 c 128,-1,29
 94 155 94 155 74 304 c 1,0,-1
EndSplineSet
EndChar

StartChar: six
Encoding: 54 54 546
Width: 918
Flags: W
LayerCount: 2
Fore
SplineSet
837 893 m 1,0,-1
 619 869 l 1,1,2
 611 937 611 937 577 969 c 128,-1,3
 543 1001 543 1001 489 1001 c 0,4,5
 417 1001 417 1001 367.5 936.5 c 128,-1,6
 318 872 318 872 304 667 c 1,7,8
 389 768 389 768 515 768 c 0,9,10
 657 768 657 768 758.5 659.5 c 128,-1,11
 860 551 860 551 860 381 c 0,12,13
 860 200 860 200 753.5 90 c 128,-1,14
 647 -20 647 -20 480 -20 c 0,15,16
 301 -20 301 -20 186 119 c 128,-1,17
 71 258 71 258 71 575 c 0,18,19
 71 900 71 900 191 1044 c 128,-1,20
 311 1188 311 1188 502 1188 c 0,21,22
 637 1188 637 1188 725 1112.5 c 128,-1,23
 813 1037 813 1037 837 893 c 1,0,-1
324 398 m 0,24,25
 324 288 324 288 374.5 227.5 c 128,-1,26
 425 167 425 167 491 167 c 0,27,28
 554 167 554 167 596 216.5 c 128,-1,29
 638 266 638 266 638 378 c 0,30,31
 638 494 638 494 593 547.5 c 128,-1,32
 548 601 548 601 480 601 c 0,33,34
 414 601 414 601 369 549.5 c 128,-1,35
 324 498 324 498 324 398 c 0,24,25
EndSplineSet
EndChar

StartChar: seven
Encoding: 55 55 547
Width: 918
Flags: W
LayerCount: 2
Fore
SplineSet
71 956 m 1,0,-1
 71 1166 l 1,1,-1
 845 1166 l 1,2,-1
 845 1002 l 1,3,4
 749 907 749 907 649.5 730.5 c 128,-1,5
 550 554 550 554 498.5 355 c 128,-1,6
 447 156 447 156 448 0 c 1,7,-1
 228 0 l 1,8,9
 235 245 235 245 330 500 c 128,-1,10
 425 755 425 755 585 956 c 1,11,-1
 71 956 l 1,0,-1
EndSplineSet
EndChar

StartChar: eight
Encoding: 56 56 548
Width: 918
Flags: W
LayerCount: 2
Fore
SplineSet
264 638 m 1,0,1
 176 675 176 675 136.5 740 c 128,-1,2
 97 805 97 805 97 882 c 0,3,4
 97 1014 97 1014 189 1101 c 128,-1,5
 281 1188 281 1188 452 1188 c 0,6,7
 620 1188 620 1188 713 1101 c 128,-1,8
 806 1014 806 1014 806 882 c 0,9,10
 806 801 806 801 763.5 736 c 128,-1,11
 721 671 721 671 643 638 c 1,12,13
 742 599 742 599 793.5 523 c 128,-1,14
 845 447 845 447 845 348 c 0,15,16
 845 183 845 183 740 81 c 128,-1,17
 635 -21 635 -21 462 -21 c 0,18,19
 301 -21 301 -21 193 64 c 0,20,21
 66 163 66 163 66 338 c 0,22,23
 66 433 66 433 114 514 c 128,-1,24
 162 595 162 595 264 638 c 1,0,1
312 866 m 0,25,26
 312 798 312 798 350 760 c 128,-1,27
 388 722 388 722 452 722 c 256,28,29
 516 722 516 722 555 761 c 128,-1,30
 594 800 594 800 594 867 c 0,31,32
 594 931 594 931 555.5 969 c 128,-1,33
 517 1007 517 1007 454 1007 c 0,34,35
 389 1007 389 1007 350.5 968 c 128,-1,36
 312 929 312 929 312 866 c 0,25,26
291 360 m 0,37,38
 291 266 291 266 338.5 213.5 c 128,-1,39
 386 161 386 161 458 161 c 0,40,41
 528 161 528 161 574 211.5 c 128,-1,42
 620 262 620 262 620 357 c 0,43,44
 620 440 620 440 573 490.5 c 128,-1,45
 526 541 526 541 454 541 c 0,46,47
 372 541 372 541 331.5 484 c 128,-1,48
 291 427 291 427 291 360 c 0,37,38
EndSplineSet
EndChar

StartChar: nine
Encoding: 57 57 549
Width: 918
Flags: W
LayerCount: 2
Fore
SplineSet
75 273 m 1,0,-1
 294 297 l 1,1,2
 302 231 302 231 336 198.5 c 128,-1,3
 370 166 370 166 425 166 c 0,4,5
 496 166 496 166 545.5 231 c 128,-1,6
 595 296 595 296 608 498 c 1,7,8
 522 399 522 399 394 399 c 0,9,10
 255 399 255 399 153.5 507 c 128,-1,11
 52 615 52 615 52 787 c 0,12,13
 52 967 52 967 159 1077.5 c 128,-1,14
 266 1188 266 1188 432 1188 c 0,15,16
 611 1188 611 1188 726.5 1048.5 c 128,-1,17
 842 909 842 909 842 591 c 0,18,19
 842 266 842 266 721.5 122.5 c 128,-1,20
 601 -21 601 -21 409 -21 c 0,21,22
 270 -21 270 -21 184.5 53 c 128,-1,23
 99 127 99 127 75 273 c 1,0,-1
588 768 m 0,24,25
 588 878 588 878 537.5 938.5 c 128,-1,26
 487 999 487 999 422 999 c 0,27,28
 358 999 358 999 317 949.5 c 128,-1,29
 276 900 276 900 276 787 c 0,30,31
 276 672 276 672 320.5 618.5 c 128,-1,32
 365 565 365 565 433 565 c 0,33,34
 498 565 498 565 543 617 c 128,-1,35
 588 669 588 669 588 768 c 0,24,25
EndSplineSet
EndChar

StartChar: numbersign
Encoding: 35 35 550
Width: 918
Flags: W
LayerCount: 2
Fore
SplineSet
124 294 m 1,0,-1
 14 294 l 1,1,-1
 14 472 l 1,2,-1
 160 472 l 1,3,-1
 207 710 l 1,4,-1
 14 710 l 1,5,-1
 14 888 l 1,6,-1
 244 888 l 1,7,-1
 308 1203 l 1,8,-1
 489 1203 l 1,9,-1
 425 888 l 1,10,-1
 603 888 l 1,11,-1
 665 1203 l 1,12,-1
 853 1203 l 1,13,-1
 788 888 l 1,14,-1
 899 888 l 1,15,-1
 899 710 l 1,16,-1
 752 710 l 1,17,-1
 704 472 l 1,18,-1
 899 472 l 1,19,-1
 899 294 l 1,20,-1
 667 294 l 1,21,-1
 603 -20 l 1,22,-1
 423 -20 l 1,23,-1
 486 294 l 1,24,-1
 307 294 l 1,25,-1
 243 -20 l 1,26,-1
 60 -20 l 1,27,-1
 124 294 l 1,0,-1
389 710 m 1,28,-1
 342 472 l 1,29,-1
 521 472 l 1,30,-1
 568 710 l 1,31,-1
 389 710 l 1,28,-1
EndSplineSet
EndChar

StartChar: dollar
Encoding: 36 36 551
Width: 918
Flags: W
LayerCount: 2
Fore
SplineSet
394 176 m 1,0,-1
 394 513 l 1,1,2
 236 559 236 559 162.5 650 c 128,-1,3
 89 741 89 741 89 872 c 0,4,5
 89 1004 89 1004 172.5 1094 c 128,-1,6
 256 1184 256 1184 394 1198 c 1,7,-1
 394 1277 l 1,8,-1
 511 1277 l 1,9,-1
 511 1198 l 1,10,11
 639 1183 639 1183 715 1110.5 c 128,-1,12
 791 1038 791 1038 812 917 c 1,13,-1
 608 890 l 1,14,15
 590 986 590 986 511 1019 c 1,16,-1
 511 704 l 1,17,18
 705 651 705 651 775 568 c 128,-1,19
 845 485 845 485 845 354 c 0,20,21
 845 207 845 207 757 107.5 c 128,-1,22
 669 8 669 8 511 -14 c 1,23,-1
 511 -165 l 1,24,-1
 394 -165 l 1,25,-1
 394 -18 l 1,26,27
 255 -2 255 -2 168 85 c 128,-1,28
 81 172 81 172 56 332 c 1,29,-1
 267 354 l 1,30,31
 281 289 281 289 316 242.5 c 128,-1,32
 351 196 351 196 394 176 c 1,0,-1
394 1022 m 1,33,34
 347 1006 347 1006 319 967 c 128,-1,35
 291 928 291 928 291 881 c 0,36,37
 291 838 291 838 316.5 801.5 c 128,-1,38
 342 765 342 765 394 743 c 1,39,-1
 394 1022 l 1,33,34
511 163 m 1,40,41
 571 176 571 176 609 220 c 128,-1,42
 647 264 647 264 647 324 c 0,43,44
 647 379 647 379 615.5 418.5 c 128,-1,45
 584 458 584 458 511 478 c 1,46,-1
 511 163 l 1,40,41
EndSplineSet
EndChar

StartChar: percent
Encoding: 37 37 552
Width: 1468
Flags: W
LayerCount: 2
Fore
SplineSet
71 890 m 256,0,1
 71 1049 71 1049 141.5 1126 c 128,-1,2
 212 1203 212 1203 331 1203 c 0,3,4
 454 1203 454 1203 524 1126.5 c 128,-1,5
 594 1050 594 1050 594 890 c 0,6,7
 594 732 594 732 524 655.5 c 128,-1,8
 454 579 454 579 334 579 c 0,9,10
 212 579 212 579 141.5 655 c 128,-1,11
 71 731 71 731 71 890 c 256,0,1
248 892 m 0,12,13
 248 776 248 776 276 737 c 0,14,15
 296 707 296 707 331 707 c 0,16,17
 367 707 367 707 387 737 c 0,18,19
 413 776 413 776 413 892 c 0,20,21
 413 1007 413 1007 387 1047 c 0,22,23
 367 1075 367 1075 331 1075 c 0,24,25
 296 1075 296 1075 276 1047 c 0,26,27
 248 1007 248 1007 248 892 c 0,12,13
503 -45 m 1,28,-1
 336 -45 l 1,29,-1
 966 1203 l 1,30,-1
 1128 1203 l 1,31,-1
 503 -45 l 1,28,-1
869 265 m 256,32,33
 869 424 869 424 939 501 c 128,-1,34
 1009 578 1009 578 1130 578 c 0,35,36
 1252 578 1252 578 1321.5 501 c 128,-1,37
 1391 424 1391 424 1391 265 c 256,38,39
 1391 106 1391 106 1321.5 29.5 c 128,-1,40
 1252 -47 1252 -47 1132 -47 c 0,41,42
 1009 -47 1009 -47 939 29.5 c 128,-1,43
 869 106 869 106 869 265 c 256,32,33
1047 266 m 256,44,45
 1047 151 1047 151 1073 112 c 0,46,47
 1093 82 1093 82 1128 82 c 0,48,49
 1164 82 1164 82 1184 111 c 0,50,51
 1210 151 1210 151 1210 266 c 256,52,53
 1210 381 1210 381 1184 422 c 0,54,55
 1164 449 1164 449 1128 449 c 256,56,57
 1092 449 1092 449 1073 422 c 0,58,59
 1047 381 1047 381 1047 266 c 256,44,45
EndSplineSet
EndChar

StartChar: ampersand
Encoding: 38 38 553
Width: 1193
Flags: W
LayerCount: 2
Fore
SplineSet
1166 144 m 1,0,-1
 1029 -30 l 1,1,2
 928 18 928 18 836 105 c 1,3,4
 764 40 764 40 683.5 9.5 c 128,-1,5
 603 -21 603 -21 491 -21 c 0,6,7
 270 -21 270 -21 160 102 c 0,8,9
 72 200 72 200 72 324 c 0,10,11
 72 438 72 438 139.5 528.5 c 128,-1,12
 207 619 207 619 343 686 c 1,13,14
 282 758 282 758 251.5 823 c 128,-1,15
 221 888 221 888 221 946 c 0,16,17
 221 1053 221 1053 307 1128 c 128,-1,18
 393 1203 393 1203 551 1203 c 0,19,20
 705 1203 705 1203 791 1125 c 128,-1,21
 877 1047 877 1047 877 933 c 0,22,23
 877 861 877 861 834.5 796.5 c 128,-1,24
 792 732 792 732 662 651 c 1,25,-1
 827 433 l 1,26,27
 856 486 856 486 877 569 c 1,28,-1
 1082 522 l 1,29,30
 1050 413 1050 413 1028 362.5 c 128,-1,31
 1006 312 1006 312 979 278 c 1,32,33
 1018 243 1018 243 1078 200.5 c 128,-1,34
 1138 158 1138 158 1166 144 c 1,0,-1
549 787 m 1,35,-1
 611 833 l 2,36,37
 679 886 679 886 679 937 c 0,38,39
 679 982 679 982 646 1012 c 128,-1,40
 613 1042 613 1042 558 1042 c 256,41,42
 503 1042 503 1042 472.5 1015.5 c 128,-1,43
 442 989 442 989 442 953 c 0,44,45
 442 911 442 911 494 852 c 2,46,-1
 549 787 l 1,35,-1
460 541 m 1,47,48
 382 502 382 502 343 446 c 128,-1,49
 304 390 304 390 304 333 c 0,50,51
 304 259 304 259 353 212.5 c 128,-1,52
 402 166 402 166 482 166 c 0,53,54
 534 166 534 166 583.5 186.5 c 128,-1,55
 633 207 633 207 691 256 c 1,56,-1
 460 541 l 1,47,48
EndSplineSet
EndChar

StartChar: zero
Encoding: 48 48 554
Width: 918
Flags: W
LayerCount: 2
Fore
SplineSet
454 1188 m 0,0,1
 625 1188 625 1188 722 1064 c 0,2,3
 837 919 837 919 837 583 c 0,4,5
 837 248 837 248 721 101 c 0,6,7
 625 -20 625 -20 454 -20 c 0,8,9
 281 -20 281 -20 175.5 112.5 c 128,-1,10
 70 245 70 245 70 585 c 0,11,12
 70 919 70 919 186 1067 c 0,13,14
 281 1188 281 1188 454 1188 c 0,0,1
454 999 m 0,15,16
 412 999 412 999 380 973 c 128,-1,17
 348 947 348 947 329 879 c 0,18,19
 307 791 307 791 307 583 c 256,20,21
 307 375 307 375 328 297.5 c 128,-1,22
 349 220 349 220 380.5 193.5 c 128,-1,23
 412 167 412 167 454 167 c 0,24,25
 494 167 494 167 526.5 193.5 c 128,-1,26
 559 220 559 220 576 288 c 0,27,28
 600 375 600 375 600 583 c 256,29,30
 600 791 600 791 579.5 869 c 128,-1,31
 559 947 559 947 526.5 973 c 128,-1,32
 494 999 494 999 454 999 c 0,15,16
EndSplineSet
EndChar

StartChar: one
Encoding: 49 49 555
Width: 918
Flags: W
LayerCount: 2
Fore
SplineSet
650 0 m 1,0,-1
 423 0 l 1,1,-1
 423 853 l 1,2,3
 299 738 299 738 131 682 c 1,4,-1
 131 888 l 1,5,6
 220 917 220 917 324 998 c 128,-1,7
 428 1079 428 1079 465 1188 c 1,8,-1
 650 1188 l 1,9,-1
 650 0 l 1,0,-1
EndSplineSet
EndChar

StartChar: colon
Encoding: 58 58 557
Width: 655
Flags: W
LayerCount: 2
Fore
SplineSet
329 924 m 0,0,1
 395 924 395 924 441 877 c 128,-1,2
 487 830 487 830 487 764 c 256,3,4
 487 698 487 698 441 651.5 c 128,-1,5
 395 605 395 605 329 605 c 0,6,7
 262 605 262 605 215.5 651.5 c 128,-1,8
 169 698 169 698 169 764 c 256,9,10
 169 830 169 830 215.5 877 c 128,-1,11
 262 924 262 924 329 924 c 0,0,1
328 295 m 0,12,13
 395 295 395 295 441 248.5 c 128,-1,14
 487 202 487 202 487 136 c 256,15,16
 487 70 487 70 440.5 23 c 128,-1,17
 394 -24 394 -24 328 -24 c 256,18,19
 262 -24 262 -24 215 23 c 128,-1,20
 168 70 168 70 168 136 c 256,21,22
 168 202 168 202 215 248.5 c 128,-1,23
 262 295 262 295 328 295 c 0,12,13
EndSplineSet
EndChar

StartChar: semicolon
Encoding: 59 59 558
Width: 440
Flags: W
LayerCount: 2
Fore
SplineSet
124 504 m 1,0,-1
 124 685 l 1,1,-1
 306 685 l 1,2,-1
 306 504 l 1,3,-1
 124 504 l 1,0,-1
124 181 m 1,4,-1
 306 181 l 1,5,-1
 306 51 l 2,6,7
 306 -27 306 -27 292.5 -72.5 c 128,-1,8
 279 -118 279 -118 241 -154.5 c 128,-1,9
 203 -191 203 -191 145 -212 c 1,10,-1
 110 -136 l 1,11,12
 165 -118 165 -118 188.5 -86 c 128,-1,13
 212 -54 212 -54 212 0 c 1,14,-1
 124 0 l 1,15,-1
 124 181 l 1,4,-1
EndSplineSet
EndChar

StartChar: question
Encoding: 63 63 559
Width: 1009
Flags: W
LayerCount: 2
Fore
SplineSet
606 304 m 1,0,-1
 400 304 l 1,1,2
 399 349 399 349 399 359 c 0,3,4
 399 459 399 459 432 523.5 c 128,-1,5
 465 588 465 588 564.5 668.5 c 128,-1,6
 664 749 664 749 684 774 c 0,7,8
 712 813 712 813 712 861 c 0,9,10
 712 927 712 927 659 974.5 c 128,-1,11
 606 1022 606 1022 518 1022 c 0,12,13
 432 1022 432 1022 374 972.5 c 128,-1,14
 316 923 316 923 293 822 c 1,15,-1
 86 848 l 1,16,17
 95 993 95 993 209 1093.5 c 128,-1,18
 323 1194 323 1194 508 1194 c 0,19,20
 704 1194 704 1194 818.5 1092 c 128,-1,21
 933 990 933 990 933 855 c 0,22,23
 933 780 933 780 890.5 713 c 128,-1,24
 848 646 848 646 711 530 c 0,25,26
 639 470 639 470 621.5 434 c 128,-1,27
 604 398 604 398 606 304 c 1,0,-1
400 0 m 1,28,-1
 400 227 l 1,29,-1
 627 227 l 1,30,-1
 627 0 l 1,31,-1
 400 0 l 1,28,-1
EndSplineSet
EndChar

StartChar: asciicircum
Encoding: 94 94 560
Width: 964
Flags: W
LayerCount: 2
Fore
SplineSet
92 559 m 1,0,-1
 396 1203 l 1,1,-1
 575 1203 l 1,2,-1
 871 559 l 1,3,-1
 642 559 l 1,4,-1
 482 953 l 1,5,-1
 323 559 l 1,6,-1
 92 559 l 1,0,-1
EndSplineSet
EndChar

StartChar: underscore
Encoding: 95 95 561
Width: 918
Flags: W
LayerCount: 2
Fore
SplineSet
-15 -327 m 1,0,-1
 -15 -180 l 1,1,-1
 927 -180 l 1,2,-1
 927 -327 l 1,3,-1
 -15 -327 l 1,0,-1
EndSplineSet
EndChar

StartChar: afii57388
Encoding: 1548 1548 562
Width: 512
Flags: W
LayerCount: 2
Fore
SplineSet
512 1 m 1,0,-1
 390 1 l 2,1,2
 295 1 295 1 238 73 c 0,3,4
 185 139 185 139 185 236 c 2,5,-1
 185 328 l 2,6,7
 185 470 185 470 276 597 c 0,8,9
 376 737 376 737 512 737 c 1,10,-1
 512 532 l 1,11,12
 390 484 390 484 390 328 c 1,13,-1
 512 328 l 1,14,-1
 512 1 l 1,0,-1
EndSplineSet
EndChar

StartChar: cent
Encoding: 162 162 563
Width: 1707
Flags: W
LayerCount: 2
Fore
SplineSet
918 -306 m 1,0,-1
 788 -306 l 1,1,-1
 788 1213 l 1,2,-1
 918 1213 l 1,3,-1
 918 -306 l 1,0,-1
EndSplineSet
EndChar

StartChar: sterling
Encoding: 163 163 564
Width: 1707
Flags: W
LayerCount: 2
Fore
SplineSet
1141 1213 m 1,0,-1
 565 1213 l 1,1,-1
 565 1335 l 1,2,-1
 1141 1335 l 1,3,-1
 1141 1213 l 1,0,-1
EndSplineSet
EndChar

StartChar: yen
Encoding: 165 165 566
Width: 1707
Flags: W
LayerCount: 2
Fore
SplineSet
1268 1486 m 1,0,-1
 439 1486 l 1,1,-1
 439 1606 l 1,2,-1
 1268 1606 l 1,3,-1
 1268 1486 l 1,0,-1
1268 1171 m 1,4,-1
 439 1171 l 1,5,-1
 439 1291 l 1,6,-1
 1268 1291 l 1,7,-1
 1268 1171 l 1,4,-1
EndSplineSet
EndChar

StartChar: afii57403
Encoding: 1563 1563 569
Width: 512
Flags: W
LayerCount: 2
Fore
SplineSet
512 1 m 1,0,-1
 390 1 l 2,1,2
 185 1 185 1 185 204 c 2,3,-1
 185 328 l 1,4,-1
 512 328 l 1,5,-1
 512 1 l 1,0,-1
512 441 m 1,6,-1
 390 441 l 2,7,8
 295 441 295 441 238 513 c 0,9,10
 185 579 185 579 185 676 c 2,11,-1
 185 768 l 2,12,13
 185 910 185 910 276 1037 c 0,14,15
 376 1177 376 1177 512 1177 c 1,16,-1
 512 972 l 1,17,18
 390 924 390 924 390 768 c 1,19,-1
 512 768 l 1,20,-1
 512 441 l 1,6,-1
EndSplineSet
EndChar

StartChar: guilsinglright
Encoding: 8250 8250 570
Width: 1117
Flags: W
LayerCount: 2
Fore
SplineSet
966 444 m 1,0,-1
 160 58 l 1,1,-1
 160 192 l 1,2,-1
 786 489 l 1,3,-1
 160 784 l 1,4,-1
 160 918 l 1,5,-1
 966 534 l 1,6,-1
 966 444 l 1,0,-1
EndSplineSet
EndChar

StartChar: backslash
Encoding: 92 92 578
Width: 459
Flags: W
LayerCount: 2
Fore
SplineSet
-2 1203 m 1,0,-1
 165 1203 l 1,1,-1
 460 -20 l 1,2,-1
 291 -20 l 1,3,-1
 -2 1203 l 1,0,-1
EndSplineSet
EndChar

StartChar: Euro
Encoding: 8364 8364 581
Width: 1707
Flags: W
LayerCount: 2
Fore
SplineSet
1268 586 m 1,0,-1
 439 586 l 1,1,-1
 439 706 l 1,2,-1
 1268 706 l 1,3,-1
 1268 586 l 1,0,-1
1268 271 m 1,4,-1
 439 271 l 1,5,-1
 439 391 l 1,6,-1
 1268 391 l 1,7,-1
 1268 271 l 1,4,-1
EndSplineSet
EndChar

StartChar: afii62827
Encoding: 64427 64427 587
Width: 1843
GlyphClass: 2
Flags: W
AnchorPoint: "Anchor-3" 975 -495 basechar 0
AnchorPoint: "Anchor-2" 1035 1305 basechar 0
LayerCount: 2
Fore
SplineSet
1875 1 m 1,0,-1
 1843 1 l 1,1,-1
 1843 287 l 1,2,-1
 1875 287 l 1,3,-1
 1875 1 l 1,0,-1
1843 207 m 2,4,5
 1843 133 1843 133 1792 72 c 0,6,7
 1732 1 1732 1 1638 1 c 2,8,-1
 -31 1 l 1,9,-1
 -31 287 l 1,10,-1
 205 287 l 1,11,-1
 205 574 l 2,12,13
 205 663 205 663 263 720.5 c 128,-1,14
 321 778 321 778 410 778 c 2,15,-1
 819 778 l 1,16,-1
 819 983 l 1,17,-1
 1229 983 l 1,18,-1
 1229 778 l 1,19,-1
 1638 778 l 2,20,21
 1728 778 1728 778 1785.5 721 c 128,-1,22
 1843 664 1843 664 1843 574 c 2,23,-1
 1843 207 l 2,4,5
1434 287 m 1,24,-1
 1434 492 l 1,25,-1
 1229 492 l 1,26,-1
 1229 287 l 1,27,-1
 1434 287 l 1,24,-1
819 287 m 1,28,-1
 819 492 l 1,29,-1
 614 492 l 1,30,-1
 614 287 l 1,31,-1
 819 287 l 1,28,-1
EndSplineSet
EndChar

